<svg xmlns="http://www.w3.org/2000/svg" width="240" height="340" viewBox="0 0 240 340">
  <defs>
    <linearGradient id="icon-download-a" x1="10.117%" y1="60.205%" y2="50%">
      <stop offset="0%" stop-color="#323232" stop-opacity="0"/>
      <stop offset="100%" stop-color="#323232"/>
    </linearGradient>
    <linearGradient id="icon-download-b" x1="50%" x2="50%" y1="0%" y2="100%">
      <stop offset="0%" stop-opacity="0"/>
      <stop offset="100%"/>
    </linearGradient>
  </defs>
  <g fill="none" fill-rule="evenodd">
    <circle cx="120" cy="102" r="77.5" fill="#FFF" stroke="#4A4A4A" stroke-width="5"/>
    <ellipse cx="120" cy="102" stroke="url(#icon-download-a)" stroke-width="5" rx="37.5" ry="77.5" transform="rotate(90 120 102)"/>
    <ellipse cx="120" cy="102" stroke="url(#icon-download-a)" stroke-width="5" rx="37.5" ry="77.5" transform="rotate(135 120 102)"/>
    <ellipse cx="120" cy="102" stroke="url(#icon-download-a)" stroke-width="5" rx="27.5" ry="77.5" transform="rotate(-180 120 102)"/>
    <ellipse cx="120.187" cy="101.782" stroke="url(#icon-download-b)" stroke-width="5" rx="18.5" ry="77.5" transform="rotate(30 120.187 101.782)"/>
    <circle cx="157.527" cy="69.527" r="12.5" fill="#FFF" stroke="#4A4A4A" stroke-width="5" transform="rotate(-22 157.527 69.527)"/>
    <circle cx="44.527" cy="113.527" r="12.5" fill="#FFF" stroke="#4A4A4A" stroke-width="5" transform="rotate(-22 44.527 113.527)"/>
    <path fill="#FFF" stroke="#4A4A4A" stroke-width="5" d="M66.0355339,271.5 L120,325.464466 L173.964466,271.5 L147.5,271.5 L147.5,198.998964 C147.5,195.958073 145.040699,193.5 142.00145,193.5 L97.9985496,193.5 C94.9572767,193.5 92.5,195.958993 92.5,198.998964 L92.5,271.5 L66.0355339,271.5 Z"/>
    <circle cx="90.527" cy="133.527" r="12.5" fill="#FFF" stroke="#4A4A4A" stroke-width="5" transform="rotate(-22 90.527 133.527)"/>
    <circle cx="109.527" cy="26.527" r="12.5" fill="#FFF" stroke="#4A4A4A" stroke-width="5" transform="rotate(-22 109.527 26.527)"/>
    <circle cx="168.527" cy="132.527" r="12.5" fill="#FFF" stroke="#4A4A4A" stroke-width="5" transform="rotate(-22 168.527 132.527)"/>
  </g>
</svg>
