<?xml version="1.0" encoding="UTF-8"?>
<svg width="115px" height="40px" viewBox="0 0 115 40" version="1.1" xmlns="http://www.w3.org/2000/svg" xmlns:xlink="http://www.w3.org/1999/xlink">
    <!-- Generator: Sketch 41 (35326) - http://www.bohemiancoding.com/sketch -->
    <title>lulu-small</title>
    <desc>Created with Sketch.</desc>
    <defs></defs>
    <g id="Symbols" stroke="none" stroke-width="1" fill="none" fill-rule="evenodd">
        <g id="lulu" transform="translate(-10.000000, -10.000000)">
            <g id="lulu-small" transform="translate(10.000000, 10.000000)">
                <polyline id="Fill-1" fill="#1D4671" points="112.1075 37.9890625 112.1075 38.195 111.52625 38.195 111.52625 39.714375 111.292187 39.714375 111.292187 38.195 110.711562 38.195 110.711562 37.9890625 112.1075 37.9890625"></polyline>
                <path d="M112.414688,37.9890625 L112.745625,37.9890625 L113.24125,39.448125 L113.734688,37.9890625 L114.0625,37.9890625 L114.0625,39.714375 L113.843438,39.714375 L113.843438,38.6971875 L113.843438,38.5209375 C113.85,38.43875 113.85,38.3528125 113.85,38.260625 L113.354375,39.714375 L113.12625,39.714375 L112.627813,38.260625 L112.627813,38.311875 L112.627813,38.5053125 C112.627813,38.5934375 112.634375,38.6553125 112.634375,38.6971875 L112.634375,39.714375 L112.412813,39.714375 L112.412813,37.9890625 L112.414688,37.9890625" id="Fill-2" fill="#1D4671"></path>
                <polygon id="Fill-3" fill="#1D4671" points="65.805625 39.388125 67.9996875 39.388125 67.9996875 37.135 65.805625 37.135"></polygon>
                <polyline id="Fill-4" fill="#1D4671" points="65.805625 37.135 65.805625 37.5465625 67.5878125 37.5465625 67.5878125 38.97625 66.2175 38.97625 66.2175 37.135 65.805625 37.135 65.805625 37.5465625 65.805625 37.135 65.3940625 37.135 65.3940625 39.8 68.41125 39.8 68.41125 36.723125 65.3940625 36.723125 65.3940625 37.135 65.805625 37.135"></polyline>
                <path d="M77.04375,29.5771875 L77.04375,29.32125 C77.04375,29.150625 77.008125,28.974375 76.94,28.7959375 C76.8725,28.61625 76.753125,28.45 76.5825,28.294375 C76.4121875,28.141875 76.188125,28.0184375 75.9065625,27.92375 C75.625625,27.8296875 75.2740625,27.7828125 74.8465625,27.7828125 C73.995,27.7828125 73.4209375,27.958125 73.1228125,28.3084375 C72.8246875,28.6590625 72.6771875,29.0825 72.6771875,29.5771875 L72.6771875,35.75875 C72.6771875,36.40625 72.82875,36.8878125 73.1353125,37.2015625 C73.440625,37.5153125 74.0121875,37.6734375 74.8465625,37.6734375 C75.6971875,37.6734375 76.276875,37.5071875 76.5825,37.1753125 C76.890625,36.844375 77.04375,36.370625 77.04375,35.75875 L79.1971875,35.75875 L79.1971875,36.4990625 C79.1971875,36.805625 79.143125,37.1415625 79.03,37.5071875 C78.9221875,37.87375 78.7021875,38.2096875 78.37875,38.5159375 C78.0540625,38.823125 77.61125,39.076875 77.04875,39.2809375 C76.48625,39.4853125 75.7515625,39.588125 74.8496875,39.588125 C73.9465625,39.588125 73.2125,39.4853125 72.65,39.2809375 C72.086875,39.0778125 71.64375,38.823125 71.3225,38.516875 C70.995625,38.21125 70.7796875,37.8753125 70.669375,37.5096875 C70.5575,37.1446875 70.5025,36.80875 70.5025,36.5025 L70.5025,28.9540625 C70.5025,28.5296875 70.5821875,28.12875 70.7453125,27.755625 C70.9065625,27.381875 71.166875,27.053125 71.5259375,26.7740625 C71.8825,26.4925 72.3340625,26.2725 72.880625,26.1109375 C73.425,25.9496875 74.0815625,25.868125 74.8496875,25.868125 C76.3665625,25.868125 77.4684375,26.163125 78.1603125,26.751875 C78.85125,27.3390625 79.1971875,28.076875 79.1971875,28.96375 L79.1971875,29.5771875 L77.04375,29.5771875" id="Fill-5" fill="#1D4671"></path>
                <path d="M77.04375,29.5771875 L77.4553125,29.5771875 L77.4553125,29.32125 C77.4553125,29.093125 77.4078125,28.8671875 77.3246875,28.6490625 L77.3253125,28.6509375 C77.230625,28.3990625 77.0675,28.1790625 76.8603125,27.9903125 L76.8584375,27.98875 L76.856875,27.9871875 C76.6346875,27.78875 76.35875,27.64125 76.0375,27.5334375 L76.036875,27.533125 C75.696875,27.42 75.3040625,27.3715625 74.8465625,27.37125 C74.3925,27.3715625 73.99875,27.4165625 73.6571875,27.5203125 C73.3171875,27.62375 73.0225,27.79125 72.809375,28.04125 C72.445625,28.465625 72.2628125,29.0015625 72.265625,29.5771875 L72.265625,35.75875 C72.265,36.4646875 72.4303125,37.066875 72.840625,37.489375 C73.06,37.71375 73.349375,37.86 73.683125,37.9521875 C74.0178125,38.044375 74.4034375,38.085 74.8465625,38.0853125 C75.29875,38.085 75.6915625,38.0421875 76.0325,37.9446875 C76.371875,37.8471875 76.6665625,37.6915625 76.885625,37.4540625 L76.8840625,37.455625 C77.283125,37.0271875 77.456875,36.435 77.4553125,35.75875 L77.04375,35.75875 L77.04375,36.170625 L78.785625,36.170625 L78.785625,36.4990625 C78.785625,36.756875 78.7396875,37.0525 78.6365625,37.3853125 L78.63625,37.3865625 L78.635,37.3909375 C78.5509375,37.67625 78.378125,37.9490625 78.095625,38.216875 C77.825625,38.473125 77.43375,38.7034375 76.908125,38.8940625 C76.4121875,39.075 75.7203125,39.1771875 74.8496875,39.1765625 C73.9775,39.1771875 73.2865625,39.075 72.790625,38.8940625 C72.264375,38.704375 71.8728125,38.473125 71.606875,38.21875 L71.60625,38.2184375 L71.60375,38.2159375 C71.320625,37.950625 71.1515625,37.68 71.06375,37.390625 L71.063125,37.38875 C70.960625,37.0553125 70.9140625,36.759375 70.9140625,36.5025 L70.9140625,28.9540625 C70.914375,28.58125 70.9834375,28.239375 71.1225,27.920625 L71.123125,27.91875 C71.2559375,27.6128125 71.4671875,27.3421875 71.77875,27.0990625 L71.78125,27.0971875 C72.0865625,26.8559375 72.4884375,26.65625 72.9971875,26.5059375 C73.4915625,26.3590625 74.110625,26.2796875 74.8496875,26.28 C76.3175,26.2778125 77.3215625,26.5728125 77.8934375,27.0653125 C78.5028125,27.5909375 78.7796875,28.185 78.785625,28.96375 L78.785625,29.165625 L77.04375,29.165625 L77.04375,29.5771875 L77.4553125,29.5771875 L77.04375,29.5771875 L77.04375,29.9890625 L79.6090625,29.9890625 L79.6090625,28.96375 C79.615,27.96875 79.2,27.086875 78.426875,26.438125 C77.615625,25.753125 76.4159375,25.4584375 74.8496875,25.45625 C74.0525,25.4565625 73.3584375,25.5403125 72.76375,25.71625 C72.179375,25.88875 71.67875,26.1290625 71.270625,26.4509375 L71.273125,26.4490625 C70.8665625,26.764375 70.5575,27.150625 70.3671875,27.5925 L70.3678125,27.5909375 C70.1809375,28.018125 70.0903125,28.4784375 70.090625,28.9540625 L70.090625,36.5025 C70.090625,36.8584375 70.1540625,37.2340625 70.2759375,37.630625 L70.2753125,37.62875 C70.408125,38.070625 70.670625,38.4721875 71.0415625,38.8178125 L71.3225,38.516875 L71.0384375,38.8146875 C71.415,39.173125 71.909375,39.4509375 72.5103125,39.6684375 C73.13875,39.895625 73.9153125,39.999375 74.8496875,40 C75.7828125,39.999375 76.56,39.895625 77.1890625,39.668125 C77.78875,39.4503125 78.2828125,39.173125 78.661875,38.815 C79.0265625,38.4703125 79.29375,38.07125 79.425,37.6234375 L79.03,37.5071875 L79.4234375,37.62875 C79.5465625,37.230625 79.6090625,36.8540625 79.6090625,36.4990625 L79.6090625,35.3471875 L76.631875,35.3471875 L76.631875,35.75875 C76.630625,36.30625 76.498125,36.66125 76.2809375,36.8946875 L76.2796875,36.8965625 C76.193125,36.9909375 76.045,37.084375 75.8053125,37.153125 C75.5675,37.221875 75.245,37.2621875 74.8465625,37.261875 C74.4553125,37.2621875 74.1378125,37.22375 73.9021875,37.1584375 C73.665,37.093125 73.5159375,37.003125 73.4303125,36.914375 C73.2275,36.70875 73.0896875,36.3475 73.0890625,35.75875 L73.0890625,29.5771875 C73.091875,29.163125 73.20375,28.8528125 73.4365625,28.575 C73.5215625,28.4753125 73.6628125,28.38 73.8971875,28.308125 C74.13,28.2365625 74.4490625,28.194375 74.8465625,28.1946875 C75.2440625,28.194375 75.5540625,28.2396875 75.7759375,28.3140625 L75.7753125,28.3140625 C76.0175,28.3953125 76.189375,28.495 76.308125,28.60125 L76.5825,28.294375 L76.305,28.5984375 C76.43875,28.7209375 76.5140625,28.8334375 76.5546875,28.9409375 L76.5553125,28.9425 C76.6084375,29.081875 76.631875,29.208125 76.631875,29.32125 L76.631875,29.9890625 L77.04375,29.9890625 L77.04375,29.5771875" id="Fill-6" fill="#1D4671"></path>
                <path d="M90.374375,36.0940625 L90.374375,36.5025 C90.374375,36.706875 90.34125,36.9784375 90.27375,37.31875 C90.208125,37.6578125 90.0259375,37.99875 89.7359375,38.3390625 C89.44625,38.6790625 89.0121875,38.9721875 88.4340625,39.2184375 C87.855,39.4640625 87.0528125,39.588125 86.029375,39.588125 C85.0065625,39.588125 84.204375,39.4640625 83.62625,39.2184375 C83.0465625,38.9721875 82.6115625,38.6790625 82.3225,38.3390625 C82.0309375,37.99875 81.8540625,37.65375 81.785,37.30625 C81.715625,36.9578125 81.681875,36.689375 81.681875,36.5025 L81.681875,28.9540625 C81.681875,28.766875 81.715625,28.4984375 81.785,28.1509375 C81.8540625,27.8025 82.0309375,27.4584375 82.3225,27.1175 C82.611875,26.7775 83.0465625,26.4840625 83.62625,26.23875 C84.204375,25.9915625 85.0065625,25.868125 86.029375,25.868125 C87.0528125,25.868125 87.855,25.9915625 88.4340625,26.23875 C89.0121875,26.4840625 89.44625,26.7775 89.7359375,27.1175 C90.0259375,27.4584375 90.208125,27.7984375 90.27375,28.1378125 C90.34125,28.4778125 90.374375,28.750625 90.374375,28.9540625 L90.374375,36.0940625 Z M88.201875,35.83875 L88.201875,29.3378125 C88.201875,29.1853125 88.176875,29.0190625 88.1259375,28.8403125 C88.0765625,28.6625 87.9671875,28.496875 87.8071875,28.3428125 C87.645,28.19125 87.41875,28.05875 87.12875,27.9484375 C86.8396875,27.838125 86.4509375,27.7828125 85.9534375,27.7828125 C85.495625,27.7828125 85.1234375,27.838125 84.8440625,27.9484375 C84.565,28.05875 84.3459375,28.195625 84.191875,28.3559375 C84.0396875,28.5184375 83.9409375,28.6921875 83.9003125,28.8790625 C83.856875,29.0659375 83.8359375,29.2265625 83.8359375,29.363125 L83.8359375,36.0925 C83.8359375,36.2290625 83.85625,36.390625 83.9003125,36.5775 C83.940625,36.764375 84.0396875,36.9390625 84.191875,37.1003125 C84.3459375,37.261875 84.565,37.3978125 84.8440625,37.5071875 C85.1234375,37.6175 85.495625,37.6734375 85.9534375,37.6734375 C86.4509375,37.6734375 86.8396875,37.6175 87.12875,37.5071875 C87.4184375,37.3978125 87.645,37.2659375 87.8071875,37.1128125 C87.9671875,36.9603125 88.0765625,36.7940625 88.1259375,36.61625 C88.176875,36.438125 88.201875,36.271875 88.201875,36.11875 L88.201875,35.83875 L88.201875,35.83875 Z" id="Fill-7" fill="#1D4671"></path>
                <path d="M90.374375,36.0940625 L89.9625,36.0940625 L89.9625,36.5025 C89.963125,36.663125 89.934375,36.915 89.87,37.2384375 L89.8696875,37.24 C89.8215625,37.489375 89.6803125,37.7696875 89.4225,38.071875 C89.19,38.34625 88.8115625,38.610625 88.2728125,38.8396875 C87.7746875,39.0525 87.0196875,39.1775 86.029375,39.1765625 C85.04,39.1778125 84.2846875,39.0525 83.7871875,38.839375 C83.2465625,38.6103125 82.8678125,38.3459375 82.63625,38.0721875 L82.63375,38.069375 L82.6353125,38.0709375 C82.379375,37.771875 82.241875,37.4915625 82.18875,37.2259375 C82.1221875,36.893125 82.093125,36.6415625 82.09375,36.5025 L82.09375,28.9540625 C82.093125,28.8146875 82.121875,28.563125 82.18875,28.2315625 C82.241875,27.9646875 82.3790625,27.685625 82.635625,27.385 L82.63625,27.3840625 C82.8678125,27.110625 83.24625,26.84625 83.786875,26.6178125 L83.788125,26.6175 C84.2846875,26.4034375 85.0396875,26.27875 86.029375,26.28 C87.02,26.27875 87.7746875,26.4034375 88.2725,26.6175 C88.811875,26.8459375 89.19,27.1103125 89.4225,27.384375 C89.680625,27.6878125 89.8215625,27.9671875 89.8696875,28.21625 L89.87,28.218125 C89.9346875,28.54125 89.963125,28.7940625 89.9625,28.9540625 L89.9625,36.0940625 L90.7859375,36.0940625 L90.7859375,28.9540625 C90.785625,28.706875 90.748125,28.414375 90.6778125,28.0575 L90.678125,28.059375 C90.594375,27.6296875 90.37125,27.2290625 90.0496875,26.850625 C89.7025,26.444375 89.2125,26.1225 88.595,25.8596875 C87.9353125,25.58 87.0859375,25.4575 86.029375,25.45625 C84.9734375,25.4575 84.1240625,25.58 83.464375,25.86 L83.465625,25.859375 C82.8465625,26.1221875 82.355625,26.4440625 82.00875,26.850625 L82.0096875,26.85 C81.683125,27.23125 81.46625,27.6403125 81.3809375,28.070625 C81.3090625,28.43375 81.2709375,28.719375 81.2703125,28.9540625 L81.2703125,36.5025 C81.2709375,36.7375 81.309375,37.0225 81.3809375,37.3865625 C81.46625,37.8159375 81.6828125,38.225625 82.01,38.606875 L82.00875,38.605625 C82.355625,39.0121875 82.8465625,39.3340625 83.4653125,39.5975 C84.1240625,39.8753125 84.973125,39.99875 86.029375,40 C87.08625,39.99875 87.935625,39.8753125 88.5946875,39.5975 C89.2125,39.3340625 89.7025,39.011875 90.049375,38.6059375 C90.37125,38.228125 90.594375,37.82625 90.678125,37.3971875 L90.6778125,37.39875 C90.748125,37.0421875 90.785625,36.7503125 90.7859375,36.5025 L90.7859375,36.0940625 L90.374375,36.0940625 Z M88.201875,35.83875 L88.6134375,35.83875 L88.6134375,29.3378125 C88.6134375,29.1403125 88.5815625,28.936875 88.5221875,28.7278125 L88.52125,28.7253125 L88.5228125,28.73 C88.4484375,28.4628125 88.2903125,28.2365625 88.093125,28.0465625 L88.0909375,28.044375 L88.0884375,28.041875 C87.8734375,27.841875 87.600625,27.6878125 87.2753125,27.5634375 C86.91375,27.426875 86.48125,27.371875 85.9534375,27.37125 C85.4625,27.371875 85.045,27.4275 84.6928125,27.5653125 C84.3746875,27.6915625 84.10375,27.85375 83.8946875,28.0709375 L83.8915625,28.074375 L83.891875,28.0740625 C83.7003125,28.2775 83.5565625,28.5196875 83.4978125,28.7921875 L83.9003125,28.8790625 L83.499375,28.785625 C83.4509375,28.9946875 83.424375,29.1840625 83.4240625,29.363125 L83.4240625,36.0925 C83.424375,36.27 83.45,36.46125 83.4996875,36.6721875 L83.9003125,36.5775 L83.4978125,36.6640625 C83.55625,36.9365625 83.7,37.1796875 83.8925,37.383125 L83.8940625,37.3846875 C84.1040625,37.60375 84.375625,37.7653125 84.69375,37.890625 L84.6996875,37.8928125 L84.6928125,37.89 C85.044375,38.0278125 85.4621875,38.084375 85.9534375,38.0853125 C86.481875,38.084375 86.9146875,38.0284375 87.275625,37.891875 L87.274375,37.8925 C87.599375,37.7690625 87.87375,37.615625 88.09,37.4121875 L88.0915625,37.410625 C88.2909375,37.2209375 88.44875,36.9928125 88.5228125,36.72625 L88.521875,36.7290625 C88.5815625,36.5203125 88.6134375,36.316875 88.6134375,36.11875 L88.6134375,35.83875 L87.79,35.83875 L87.79,36.11875 C87.79,36.226875 87.7721875,36.3559375 87.73,36.503125 L87.729375,36.5059375 C87.7046875,36.595 87.6434375,36.7 87.523125,36.8146875 L87.5246875,36.8134375 C87.4165625,36.91625 87.2378125,37.02625 86.983125,37.121875 L86.97875,37.12375 L86.981875,37.1225 C86.7646875,37.2065625 86.4203125,37.2625 85.9534375,37.261875 C85.5290625,37.2625 85.2025,37.2071875 84.995625,37.124375 L84.9946875,37.12375 C84.754375,37.03 84.588125,36.92 84.49,36.81625 L84.4915625,36.8178125 C84.379375,36.698125 84.325,36.5921875 84.303125,36.4909375 L84.3021875,36.486875 L84.30125,36.4828125 C84.2625,36.32 84.2475,36.188125 84.2475,36.0925 L84.2475,29.363125 C84.2475,29.26875 84.2628125,29.1371875 84.3015625,28.9725 L84.301875,28.9703125 L84.3028125,28.9659375 C84.3253125,28.864375 84.3790625,28.7590625 84.4921875,28.6378125 L84.191875,28.3559375 L84.4890625,28.6409375 C84.588125,28.536875 84.7553125,28.4259375 84.995625,28.33125 C85.201875,28.24875 85.52875,28.19375 85.9534375,28.1946875 C86.420625,28.19375 86.765625,28.2490625 86.981875,28.333125 C87.236875,28.4296875 87.416875,28.5409375 87.52625,28.64375 L87.8071875,28.3428125 L87.5215625,28.639375 C87.64375,28.7571875 87.705,28.861875 87.729375,28.9503125 L87.73,28.953125 L87.73,28.9528125 C87.7721875,29.10125 87.79,29.230625 87.79,29.3378125 L87.79,35.83875 L88.201875,35.83875 L88.201875,35.83875 Z" id="Fill-8" fill="#1D4671"></path>
                <path d="M108.07625,39.388125 L105.90375,39.388125 L105.90375,29.363125 C105.90375,29.2115625 105.88,29.0453125 105.839063,28.8675 C105.796875,28.6878125 105.704063,28.5190625 105.5575,28.3559375 C105.4125,28.195625 105.2,28.05875 104.919375,27.9484375 C104.638438,27.838125 104.259375,27.7828125 103.782813,27.7828125 C103.305,27.7828125 102.91875,27.838125 102.619063,27.9484375 C102.320938,28.05875 102.092813,28.19125 101.930625,28.34375 C101.769063,28.4978125 101.664687,28.6625 101.613438,28.841875 C101.56,29.0196875 101.536875,29.1771875 101.536875,29.313125 L101.536875,39.388125 L99.361875,39.388125 L99.361875,29.363125 C99.361875,29.2115625 99.3409375,29.0453125 99.30125,28.8675 C99.2571875,28.6878125 99.1621875,28.5190625 99.0171875,28.3559375 C98.875625,28.195625 98.663125,28.05875 98.385625,27.9484375 C98.10375,27.838125 97.7265625,27.7828125 97.250625,27.7828125 C96.7778125,27.7828125 96.3925,27.838125 96.094375,27.9484375 C95.798125,28.05875 95.5696875,28.19125 95.4109375,28.34375 C95.246875,28.4978125 95.1415625,28.6625 95.09125,28.841875 C95.039375,29.0196875 95.015625,29.1771875 95.015625,29.313125 L95.015625,39.388125 L92.86125,39.388125 L92.86125,28.9546875 C92.86125,28.75125 92.895,28.47875 92.9634375,28.139375 C93.0325,27.7984375 93.20875,27.4584375 93.499375,27.1175 C93.78875,26.7775 94.2240625,26.485 94.8,26.23875 C95.3796875,25.9915625 96.18,25.868125 97.20125,25.868125 C98.02,25.868125 98.6853125,25.9496875 99.205625,26.1109375 C99.7246875,26.2725 100.14625,26.4725 100.468125,26.7115625 C100.791875,26.4725 101.212813,26.2725 101.7325,26.1109375 C102.250313,25.9496875 102.919063,25.868125 103.73625,25.868125 C104.757188,25.868125 105.557813,25.9915625 106.136875,26.23875 C106.713125,26.485 107.149688,26.7775 107.43875,27.1175 C107.729375,27.4584375 107.906563,27.8025 107.975625,28.151875 C108.041563,28.5003125 108.07625,28.7678125 108.07625,28.9546875 L108.07625,39.388125" id="Fill-9" fill="#1D4671"></path>
                <path d="M108.07625,39.388125 L108.07625,38.97625 L106.315313,38.97625 L106.315313,29.363125 C106.315313,29.16875 106.285938,28.97375 106.240313,28.7753125 L106.239063,28.76875 L106.24,28.7734375 C106.180312,28.5175 106.046875,28.2834375 105.86375,28.080625 C105.660938,27.856875 105.391875,27.6921875 105.069688,27.565 C104.714687,27.426875 104.29125,27.371875 103.782813,27.37125 C103.273438,27.3715625 102.842812,27.428125 102.476875,27.561875 C102.141875,27.68625 101.865313,27.8409375 101.64875,28.0434375 L101.647188,28.0446875 L101.64625,28.045625 C101.443125,28.2384375 101.290625,28.4696875 101.2175,28.729375 L101.613438,28.841875 L101.219063,28.7234375 C101.155938,28.9340625 101.125313,29.13 101.125,29.313125 L101.125,38.97625 L99.77375,38.97625 L99.77375,29.363125 C99.77375,29.1734375 99.7478125,28.97875 99.703125,28.778125 L99.7021875,28.77375 L99.70125,28.7690625 C99.63875,28.5134375 99.5040625,28.283125 99.325,28.0825 L99.3259375,28.08375 C99.1246875,27.856875 98.855625,27.6928125 98.5375,27.565625 L98.535625,27.565 C98.180625,27.4271875 97.7584375,27.371875 97.250625,27.37125 C96.7459375,27.3715625 96.3165625,27.428125 95.9515625,27.5621875 C95.6184375,27.686875 95.3415625,27.840625 95.1259375,28.0465625 L95.4109375,28.34375 L95.1290625,28.04375 C94.9228125,28.23625 94.7675,28.46875 94.6946875,28.7309375 L95.09125,28.841875 L94.69625,28.72625 C94.6353125,28.9346875 94.6040625,29.1290625 94.60375,29.313125 L94.60375,38.97625 L93.2728125,38.97625 L93.273125,29.414375 L93.273125,28.9546875 C93.2725,28.7959375 93.3015625,28.543125 93.366875,28.2209375 C93.419375,27.9628125 93.55625,27.68625 93.8128125,27.3846875 C94.044375,27.1109375 94.424375,26.8465625 94.961875,26.6171875 C95.4603125,26.403125 96.213125,26.27875 97.20125,26.28 C97.9925,26.279375 98.620625,26.3603125 99.08375,26.504375 C99.570625,26.655625 99.95125,26.84 100.222813,27.0421875 L100.4675,27.22375 L100.712812,27.0428125 C100.987188,26.8396875 101.366563,26.655625 101.854687,26.504375 C102.314375,26.3603125 102.946563,26.279375 103.73625,26.28 C104.724063,26.27875 105.477187,26.403125 105.975,26.6175 C106.513125,26.8465625 106.894375,27.11125 107.125,27.3840625 C107.38125,27.6853125 107.51875,27.9646875 107.571562,28.231875 L107.570938,28.228125 C107.635,28.5634375 107.665,28.816875 107.664375,28.9546875 L107.664375,39.915625 L108.175938,39.7875 L108.07625,38.97625 L108.07625,39.388125 L107.97625,38.98875 L108.07625,39.388125 L108.487813,39.388125 L108.487813,28.9546875 C108.487188,28.71875 108.448125,28.436875 108.380313,28.0753125 L108.38,28.0734375 L108.379688,28.071875 C108.294375,27.640625 108.0775,27.2315625 107.752188,26.8503125 C107.405,26.4434375 106.913125,26.123125 106.298438,25.86 C105.638438,25.58 104.790312,25.4575 103.73625,25.45625 C102.891562,25.456875 102.186563,25.5390625 101.61,25.7178125 C101.059063,25.889375 100.596563,26.1053125 100.22375,26.38 L100.468125,26.7115625 L100.713437,26.380625 C100.34125,26.1053125 99.8784375,25.889375 99.328125,25.7178125 C98.7496875,25.5390625 98.0471875,25.456875 97.20125,25.45625 C96.146875,25.4575 95.2990625,25.58 94.6384375,25.86 C94.02375,26.1234375 93.5328125,26.44375 93.185625,26.850625 C92.8615625,27.230625 92.645625,27.6340625 92.5596875,28.0575 C92.488125,28.4140625 92.45,28.706875 92.449375,28.9546875 L92.449375,39.8 L95.4275,39.8 L95.4275,29.313125 C95.4271875,29.225 95.4434375,29.105 95.4865625,28.9575 L95.486875,28.95625 L95.4878125,28.9528125 C95.515625,28.8559375 95.57125,28.759375 95.6928125,28.64375 L95.6953125,28.6415625 L95.6959375,28.6409375 C95.7978125,28.541875 95.9775,28.430625 96.238125,28.334375 C96.46875,28.248125 96.81,28.1940625 97.250625,28.1946875 C97.695,28.19375 98.026875,28.2490625 98.2353125,28.331875 L98.2334375,28.3309375 C98.4703125,28.4246875 98.6265625,28.5340625 98.7084375,28.6284375 L98.7109375,28.6315625 L98.709375,28.6296875 C98.8203125,28.755 98.875625,28.8625 98.9015625,28.9659375 L99.30125,28.8675 L98.899375,28.956875 C98.9340625,29.111875 98.9503125,29.25 98.9503125,29.363125 L98.9503125,39.8 L101.94875,39.8 L101.94875,29.313125 C101.948438,29.2240625 101.964063,29.105625 102.007812,28.9603125 L102.008438,28.958125 L102.009687,28.9546875 C102.038438,28.855 102.095,28.756875 102.214687,28.6415625 L102.2125,28.64375 C102.320312,28.5415625 102.5,28.43125 102.761875,28.3346875 C102.994688,28.248125 103.336563,28.1940625 103.782813,28.1946875 C104.227812,28.19375 104.561875,28.2490625 104.76875,28.3315625 C105.008437,28.4253125 105.164063,28.5340625 105.251875,28.631875 C105.36125,28.7546875 105.413438,28.8584375 105.438125,28.9615625 L105.437813,28.9596875 C105.474063,29.116875 105.492188,29.2546875 105.491875,29.363125 L105.491875,39.8 L108.07625,39.8 L108.07625,39.388125 L107.97625,38.98875 L108.07625,39.388125" id="Fill-10" fill="#1D4671"></path>
                <path d="M1.819375,19.0740625 C1.819375,10.44 16.8940625,3.443125 35.4878125,3.443125 C54.0809375,3.443125 69.1534375,10.44 69.1534375,19.0740625 C69.1534375,19.87375 69.023125,20.659375 68.7728125,21.4259375 C70.005,19.801875 70.685,18.0609375 70.685,16.2475 C70.685,7.43 54.8615625,0.2825 35.3428125,0.2825 C15.8234375,0.2825 0,7.43 0,16.2475 C0,18.3090625 0.87625,20.2771875 2.45,22.0871875 C2.0415625,21.11125 1.819375,20.105 1.819375,19.0740625" id="Fill-11" fill="#E9832C"></path>
                <path d="M41.95125,29.4390625 C43.2803125,29.38875 44.55375,29.3228125 45.755,29.2371875 L45.755,10.890625 L41.95125,10.890625 L41.95125,29.4390625 Z M27.985625,18.6284375 L24.185,18.6284375 L24.185,29.0221875 C25.4046875,29.131875 26.6778125,29.2275 28.01625,29.3040625 L27.985625,18.6284375 Z M33.9975,29.5140625 C35.176875,29.533125 36.3946875,29.539375 37.6565625,29.5321875 L37.7990625,29.530625 L37.7990625,18.62875 L33.9975,18.62875 L33.9975,29.514375 L33.9975,29.5140625 Z M52.9275,18.6284375 L49.124375,18.6284375 L49.124375,28.9334375 C50.49375,28.784375 51.7671875,28.61125 52.9521875,28.4178125 L52.9271875,18.6284375 L52.9275,18.6284375 Z M58.9375,18.6284375 L58.9375,27.07375 C60.4125,26.6315625 61.669375,26.1521875 62.74,25.650625 L62.74,18.6284375 L58.9375,18.6284375 Z M41.95125,39.2415625 L45.7553125,39.2415625 L45.7553125,30.1225 C44.5478125,30.2090625 43.280625,30.275625 41.95125,30.3259375 L41.95125,39.2415625 Z M58.9375,33.578125 L58.896875,33.9990625 C58.896875,34.325 58.8596875,35.581875 58.804375,35.9384375 C58.4140625,36.05625 56.7925,36.0446875 56.234375,36.0396875 L55.85625,36.0371875 C55.1809375,36.0371875 54.643125,35.960625 54.2559375,35.8090625 C53.87875,35.660625 53.5921875,35.48125 53.41125,35.27625 C53.2259375,35.069375 53.1090625,34.8553125 53.0571875,34.6215625 L52.9671875,33.9609375 L52.9671875,33.578125 L52.9575,29.30875 C51.765,29.500625 50.4909375,29.6728125 49.1246875,29.821875 L49.1246875,34.574375 L49.2828125,35.83625 C49.39625,36.4109375 49.6903125,36.9775 50.1540625,37.521875 C50.6159375,38.0646875 51.30875,38.535625 52.2178125,38.921875 C53.11875,39.305 54.368125,39.5 55.931875,39.5 L56.47125,39.50125 C56.9859375,39.5021875 57.4496875,39.50125 57.8846875,39.49875 C58.1184375,39.43375 58.698125,39.246875 58.85375,38.9609375 C58.988125,38.7146875 59.2121875,39.1678125 59.340625,39.478125 C61.956875,39.4121875 62.50375,39.205625 62.579375,38.824375 C62.6921875,38.2725 62.74,34.80125 62.74,34.5740625 L62.74,26.614375 C61.650625,27.0978125 60.39125,27.5615625 58.9378125,27.988125 L58.9378125,33.5775 L58.9375,33.578125 Z M33.9975,30.4034375 L33.9975,33.5790625 L33.9571875,33.9996875 C33.9571875,34.314375 33.9175,35.58 33.8659375,35.9390625 C33.4721875,36.056875 31.85375,36.0453125 31.29375,36.040625 L30.9134375,36.0378125 C30.24125,36.0378125 29.70375,35.96125 29.3165625,35.8096875 C28.9378125,35.6615625 28.654375,35.481875 28.4684375,35.2759375 C28.2846875,35.069375 28.1684375,34.8553125 28.1165625,34.6221875 L28.0278125,33.961875 L28.0278125,33.57875 L28.0178125,30.195 C26.6821875,30.12 25.40625,30.0278125 24.185,29.9196875 L24.185,34.5753125 L24.345625,35.8384375 C24.4534375,36.4084375 24.7484375,36.975 25.21375,37.5228125 C25.6740625,38.0646875 26.3675,38.535625 27.2765625,38.9228125 C28.1759375,39.305625 29.4278125,39.5009375 30.9934375,39.5009375 L31.529375,39.5021875 C32.115,39.5034375 32.633125,39.5021875 33.113125,39.49875 C33.3478125,39.433125 33.9234375,39.2459375 34.0784375,38.961875 C34.2115625,38.7165625 34.435625,39.164375 34.5640625,39.475 C37.043125,39.405 37.564375,39.198125 37.639375,38.8259375 C37.7528125,38.2678125 37.7990625,34.8015625 37.7990625,34.575 L37.7990625,30.4178125 L37.660625,30.4190625 C36.4,30.4265625 35.179375,30.4203125 33.9975,30.4025 L33.9975,30.4034375 Z M14.2984375,35.385 C13.9515625,35.0028125 13.78125,34.5540625 13.78125,34.0121875 L13.78125,28.3865625 C12.3984375,28.0803125 11.135,27.7484375 9.97875,27.3990625 L9.97875,34.620625 C9.97875,35.1328125 10.0753125,35.668125 10.26375,36.21 C10.4515625,36.75125 10.7425,37.2534375 11.1203125,37.7015625 C11.5025,38.1503125 11.9825,38.5234375 12.5515625,38.809375 C13.1265625,39.0965625 13.8140625,39.2425 14.5971875,39.2425 L21.8996875,39.2425 L21.8996875,35.9384375 L15.66875,35.9384375 C15.088125,35.9384375 14.6384375,35.7571875 14.2984375,35.385 L14.2984375,35.385 Z M13.78125,10.89125 L9.97875,10.89125 L9.97875,26.4321875 C11.1278125,26.7921875 12.389375,27.1346875 13.78125,27.451875 L13.78125,10.89125 L13.78125,10.89125 Z" id="Fill-12" fill="#1D4671"></path>
            </g>
        </g>
    </g>
</svg>