<?xml version="1.0" encoding="UTF-8" standalone="no"?><!DOCTYPE svg PUBLIC "-//W3C//DTD SVG 1.1//EN" "http://www.w3.org/Graphics/SVG/1.1/DTD/svg11.dtd"><svg width="100%" height="100%" viewBox="0 0 32 32" version="1.1" xmlns="http://www.w3.org/2000/svg" xmlns:xlink="http://www.w3.org/1999/xlink" xml:space="preserve" xmlns:serif="http://www.serif.com/" style="fill-rule:evenodd;clip-rule:evenodd;stroke-linejoin:bevel;stroke-miterlimit:1;"><g id="app-icon-tiny"><rect x="0" y="0" width="32" height="32" style="fill:none;"/><clipPath id="_clip1"><rect x="0" y="0" width="32" height="32"/></clipPath><g clip-path="url(#_clip1)"><path d="M15.75,0.75l-15,15l15,15l15,-15l-15,-15Z" style="fill:#fff;"/><path d="M30.75,15.75l-15,15l-15,-15l15,-15l15,15Zm-29.293,0l14.293,14.293l14.293,-14.293l-14.293,-14.293l-14.293,14.293Z"/><g id="souris"><g id="corps-souris" serif:id="corps souris"><path d="M16.5,7.5c0,0 -0.249,-0.751 -0.5,-1c-0.244,-0.243 -1,-0.5 -1,-0.5l-3,0l-1,-1l-3,0l-1,1l-3,0c0,0 -0.75,0.25 -1,0.5c-0.25,0.25 -0.5,1 -0.5,1l0,16c0,0 0.003,0.508 0.5,1c0.505,0.499 1,0.5 1,0.5l11,0c0,0 0.503,-0.009 1,-0.5c0.496,-0.491 0.5,-1 0.5,-1l0,-16Z" style="fill:#fff;"/><path d="M12,6l3,0l0.033,0.012l0.038,0.013l0.051,0.019l0.061,0.023l0.069,0.027l0.076,0.031l0.081,0.034l0.041,0.018l0.042,0.019l0.042,0.019l0.042,0.02l0.042,0.02l0.042,0.021l0.041,0.022l0.04,0.021l0.039,0.022l0.037,0.023l0.036,0.022l0.034,0.023l0.032,0.023l0.015,0.011l0.015,0.011l0.013,0.012l0.014,0.011l0.012,0.012l0.012,0.011l0.012,0.012l0.011,0.013l0.012,0.013l0.012,0.014l0.012,0.015l0.011,0.015l0.023,0.033l0.023,0.034l0.023,0.036l0.023,0.038l0.022,0.038l0.022,0.041l0.021,0.04l0.021,0.042l0.02,0.042l0.02,0.042l0.019,0.042l0.019,0.042l0.018,0.042l0.034,0.08l0.03,0.075l0.026,0.069l0.023,0.061l0.018,0.05l0.014,0.038l0.011,0.033l0,16l0,0.006l-0.001,0.017l-0.003,0.027l-0.002,0.018l-0.002,0.019l-0.004,0.022l-0.004,0.024l-0.005,0.026l-0.006,0.028l-0.008,0.03l-0.008,0.031l-0.01,0.033l-0.011,0.035l-0.012,0.036l-0.015,0.037l-0.015,0.039l-0.018,0.04l-0.019,0.041l-0.021,0.042l-0.023,0.042l-0.026,0.044l-0.013,0.022l-0.014,0.022l-0.014,0.022l-0.016,0.022l-0.015,0.023l-0.017,0.023l-0.017,0.022l-0.017,0.023l-0.018,0.023l-0.019,0.023l-0.019,0.023l-0.021,0.023l-0.02,0.023l-0.022,0.023l-0.022,0.023l-0.023,0.023l-0.023,0.023l-0.024,0.022l-0.023,0.021l-0.023,0.021l-0.023,0.02l-0.023,0.019l-0.024,0.018l-0.023,0.019l-0.023,0.017l-0.022,0.017l-0.023,0.016l-0.023,0.016l-0.022,0.015l-0.023,0.014l-0.022,0.014l-0.022,0.013l-0.043,0.026l-0.043,0.023l-0.042,0.021l-0.041,0.019l-0.039,0.018l-0.039,0.015l-0.037,0.015l-0.036,0.012l-0.035,0.011l-0.033,0.01l-0.031,0.009l-0.03,0.007l-0.027,0.007l-0.026,0.005l-0.024,0.004l-0.022,0.004l-0.019,0.003l-0.017,0.002l-0.027,0.003l-0.017,0.001l-0.006,0l-11,0l-0.006,0l-0.016,-0.001l-0.027,-0.002l-0.017,-0.002l-0.019,-0.003l-0.022,-0.003l-0.023,-0.005l-0.026,-0.005l-0.027,-0.006l-0.03,-0.007l-0.031,-0.008l-0.032,-0.01l-0.035,-0.011l-0.036,-0.013l-0.037,-0.014l-0.038,-0.015l-0.04,-0.018l-0.041,-0.019l-0.041,-0.021l-0.043,-0.023l-0.044,-0.026l-0.022,-0.013l-0.022,-0.014l-0.023,-0.015l-0.022,-0.015l-0.023,-0.015l-0.023,-0.017l-0.023,-0.017l-0.023,-0.017l-0.023,-0.019l-0.024,-0.018l-0.023,-0.02l-0.024,-0.02l-0.023,-0.021l-0.024,-0.022l-0.023,-0.022l-0.024,-0.023l-0.023,-0.023l-0.022,-0.023l-0.022,-0.023l-0.021,-0.023l-0.02,-0.023l-0.019,-0.023l-0.019,-0.023l-0.018,-0.023l-0.018,-0.023l-0.017,-0.023l-0.016,-0.022l-0.016,-0.023l-0.015,-0.022l-0.015,-0.022l-0.014,-0.023l-0.013,-0.022l-0.013,-0.021l-0.012,-0.022l-0.023,-0.043l-0.022,-0.042l-0.019,-0.04l-0.017,-0.04l-0.016,-0.039l-0.014,-0.037l-0.013,-0.036l-0.011,-0.035l-0.009,-0.033l-0.009,-0.031l-0.007,-0.03l-0.006,-0.028l-0.005,-0.026l-0.004,-0.024l-0.004,-0.022l-0.002,-0.02l-0.002,-0.017l-0.003,-0.027l-0.001,-0.017l0,-0.006l0,-16l0.011,-0.033l0.014,-0.038l0.018,-0.05l0.023,-0.061l0.026,-0.068l0.031,-0.076l0.033,-0.08l0.018,-0.042l0.019,-0.041l0.019,-0.043l0.02,-0.042l0.02,-0.042l0.021,-0.041l0.022,-0.041l0.021,-0.04l0.023,-0.039l0.022,-0.038l0.023,-0.036l0.023,-0.034l0.023,-0.033l0.012,-0.015l0.011,-0.015l0.012,-0.014l0.012,-0.013l0.011,-0.013l0.012,-0.012l0.012,-0.012l0.013,-0.011l0.013,-0.012l0.014,-0.012l0.015,-0.011l0.015,-0.012l0.033,-0.023l0.034,-0.023l0.036,-0.023l0.038,-0.022l0.039,-0.023l0.04,-0.021l0.041,-0.022l0.041,-0.021l0.042,-0.02l0.042,-0.02l0.043,-0.019l0.041,-0.019l0.042,-0.018l0.08,-0.033l0.076,-0.031l0.068,-0.026l0.061,-0.023l0.05,-0.018l0.038,-0.014l0.033,-0.011l3,0l1,-1l3,0l1,1Zm-3.793,-0.5l-0.853,0.854l-0.354,0.146l-2.915,0l-0.034,0.012l-0.055,0.021l-0.063,0.024l-0.069,0.028l-0.074,0.031l-0.037,0.016l-0.037,0.017l-0.037,0.016l-0.037,0.018l-0.036,0.018l-0.035,0.017l-0.034,0.018l-0.032,0.017l-0.031,0.018l-0.027,0.016l-0.025,0.016l-0.022,0.014l-0.021,0.016l-0.006,0.004l-0.007,0.005l-0.005,0.005l-0.002,0.002l-0.003,0.003l-0.003,0.002l-0.002,0.002l-0.001,0.002l-0.003,0.003l-0.004,0.005l-0.007,0.008l-0.004,0.006l-0.014,0.02l-0.015,0.022l-0.016,0.024l-0.016,0.028l-0.018,0.031l-0.017,0.032l-0.018,0.034l-0.018,0.035l-0.017,0.036l-0.017,0.037l-0.017,0.037l-0.017,0.038l-0.016,0.036l-0.031,0.074l-0.028,0.069l-0.024,0.063l-0.021,0.056l-0.012,0.033l0,15.903l0.001,0.011l0.001,0.006l0.001,0.011l0.002,0.011l0.002,0.014l0.003,0.016l0.004,0.017l0.005,0.019l0.005,0.02l0.007,0.022l0.007,0.023l0.008,0.024l0.01,0.025l0.01,0.026l0.012,0.028l0.014,0.028l0.014,0.029l0.017,0.031l0.009,0.015l0.008,0.015l0.01,0.015l0.01,0.017l0.011,0.015l0.01,0.016l0.011,0.016l0.012,0.016l0.013,0.018l0.013,0.016l0.012,0.016l0.015,0.018l0.014,0.016l0.015,0.017l0.016,0.018l0.016,0.017l0.016,0.017l0.017,0.017l0.018,0.018l0.019,0.017l0.018,0.017l0.017,0.015l0.018,0.016l0.018,0.015l0.017,0.013l0.017,0.014l0.019,0.014l0.015,0.011l0.017,0.012l0.018,0.012l0.016,0.011l0.015,0.01l0.017,0.011l0.015,0.009l0.032,0.019l0.03,0.016l0.029,0.014l0.03,0.014l0.027,0.013l0.026,0.01l0.025,0.009l0.024,0.009l0.023,0.007l0.021,0.006l0.019,0.006l0.019,0.004l0.018,0.004l0.016,0.004l0.011,0.001l0.009,0.002l0.011,0.001l0.008,0.001l0.009,0.001l10.973,0l0.007,-0.001l0.008,-0.001l0.012,-0.001l0.01,-0.002l0.014,-0.003l0.015,-0.003l0.018,-0.004l0.019,-0.005l0.02,-0.005l0.023,-0.007l0.022,-0.007l0.024,-0.009l0.026,-0.01l0.027,-0.011l0.028,-0.012l0.029,-0.014l0.029,-0.014l0.03,-0.016l0.034,-0.02l0.014,-0.009l0.015,-0.009l0.017,-0.011l0.017,-0.012l0.016,-0.011l0.016,-0.011l0.017,-0.012l0.017,-0.013l0.017,-0.014l0.017,-0.014l0.018,-0.014l0.017,-0.015l0.018,-0.016l0.017,-0.016l0.017,-0.016l0.018,-0.017l0.018,-0.018l0.016,-0.017l0.016,-0.017l0.016,-0.017l0.014,-0.017l0.015,-0.017l0.014,-0.017l0.013,-0.016l0.013,-0.018l0.012,-0.016l0.011,-0.016l0.012,-0.016l0.011,-0.016l0.011,-0.017l0.01,-0.016l0.008,-0.013l0.018,-0.032l0.017,-0.031l0.015,-0.029l0.013,-0.028l0.012,-0.027l0.011,-0.026l0.009,-0.026l0.009,-0.024l0.007,-0.024l0.007,-0.021l0.005,-0.02l0.005,-0.019l0.003,-0.018l0.004,-0.015l0.002,-0.015l0.002,-0.011l0.001,-0.011l0.001,-0.006l0.001,-0.01l0,-15.903l-0.012,-0.033l-0.021,-0.056l-0.024,-0.064l-0.028,-0.069l-0.031,-0.073l-0.016,-0.037l-0.016,-0.037l-0.017,-0.037l-0.018,-0.037l-0.017,-0.036l-0.018,-0.035l-0.018,-0.034l-0.017,-0.032l-0.017,-0.03l-0.017,-0.028l-0.016,-0.026l-0.014,-0.021l-0.015,-0.02l-0.004,-0.006l-0.005,-0.006l-0.004,-0.005l-0.004,-0.005l-0.002,-0.002l-0.002,-0.002l0,0l-0.002,-0.002l-0.006,-0.005l-0.003,-0.003l-0.006,-0.004l-0.008,-0.006l-0.019,-0.014l-0.021,-0.014l-0.025,-0.015l-0.029,-0.018l-0.029,-0.016l-0.033,-0.018l-0.034,-0.018l-0.035,-0.017l-0.037,-0.018l-0.037,-0.018l-0.037,-0.017l-0.038,-0.016l-0.036,-0.016l-0.075,-0.032l-0.07,-0.028l-0.064,-0.025l-0.056,-0.022l-0.033,-0.012l-2.914,0l-0.354,-0.146l-0.853,-0.854l-2.586,0Z"/><path d="M15,8.565c0,-0.588 -0.477,-1.065 -1.065,-1.065l-8.87,0c-0.588,0 -1.065,0.477 -1.065,1.065l0,12.37c0,0.588 0.477,1.065 1.065,1.065l8.87,0c0.588,0 1.065,-0.477 1.065,-1.065l0,-12.37Z" style="fill:#fff;"/><path d="M13.963,7.5l0.027,0.001l0.027,0.002l0.027,0.003l0.027,0.003l0.026,0.003l0.027,0.005l0.026,0.005l0.026,0.005l0.025,0.007l0.026,0.006l0.025,0.008l0.025,0.008l0.024,0.009l0.024,0.009l0.024,0.01l0.024,0.01l0.024,0.011l0.023,0.012l0.023,0.012l0.022,0.012l0.022,0.013l0.022,0.014l0.021,0.014l0.021,0.015l0.021,0.015l0.02,0.015l0.02,0.016l0.02,0.017l0.019,0.017l0.019,0.017l0.018,0.018l0.018,0.018l0.017,0.019l0.017,0.019l0.017,0.02l0.016,0.02l0.015,0.02l0.015,0.021l0.015,0.021l0.014,0.021l0.014,0.022l0.013,0.022l0.012,0.022l0.012,0.023l0.012,0.023l0.011,0.024l0.01,0.024l0.01,0.024l0.009,0.024l0.009,0.024l0.008,0.025l0.008,0.025l0.006,0.026l0.007,0.025l0.005,0.026l0.005,0.026l0.005,0.027l0.003,0.026l0.003,0.027l0.003,0.027l0.002,0.027l0.001,0.027l0,0.028l0,12.37l0,0.028l-0.001,0.027l-0.002,0.027l-0.003,0.027l-0.003,0.027l-0.003,0.026l-0.005,0.027l-0.005,0.026l-0.005,0.026l-0.007,0.025l-0.006,0.026l-0.008,0.025l-0.008,0.025l-0.009,0.024l-0.009,0.024l-0.01,0.024l-0.01,0.024l-0.011,0.024l-0.012,0.023l-0.012,0.023l-0.012,0.022l-0.013,0.022l-0.014,0.022l-0.014,0.021l-0.015,0.021l-0.015,0.021l-0.015,0.02l-0.016,0.02l-0.017,0.02l-0.017,0.019l-0.017,0.019l-0.018,0.018l-0.018,0.018l-0.019,0.017l-0.019,0.017l-0.02,0.017l-0.02,0.016l-0.02,0.015l-0.021,0.015l-0.021,0.015l-0.021,0.014l-0.022,0.014l-0.022,0.013l-0.022,0.012l-0.023,0.012l-0.023,0.012l-0.024,0.011l-0.024,0.01l-0.024,0.01l-0.024,0.009l-0.024,0.009l-0.025,0.008l-0.025,0.008l-0.026,0.006l-0.025,0.007l-0.026,0.005l-0.026,0.005l-0.027,0.005l-0.026,0.003l-0.027,0.003l-0.027,0.003l-0.027,0.002l-0.027,0.001l-0.028,0l-8.87,0l-0.028,0l-0.027,-0.001l-0.027,-0.002l-0.027,-0.003l-0.027,-0.003l-0.026,-0.003l-0.027,-0.005l-0.026,-0.005l-0.026,-0.005l-0.025,-0.007l-0.026,-0.006l-0.025,-0.008l-0.025,-0.008l-0.024,-0.009l-0.024,-0.009l-0.024,-0.01l-0.024,-0.01l-0.024,-0.011l-0.023,-0.012l-0.023,-0.012l-0.022,-0.012l-0.022,-0.013l-0.022,-0.014l-0.021,-0.014l-0.021,-0.015l-0.021,-0.015l-0.02,-0.015l-0.02,-0.016l-0.02,-0.017l-0.019,-0.017l-0.019,-0.017l-0.018,-0.018l-0.018,-0.018l-0.017,-0.019l-0.017,-0.019l-0.017,-0.02l-0.016,-0.02l-0.015,-0.02l-0.015,-0.021l-0.015,-0.021l-0.014,-0.021l-0.014,-0.022l-0.013,-0.022l-0.012,-0.022l-0.012,-0.023l-0.012,-0.023l-0.011,-0.024l-0.01,-0.024l-0.01,-0.024l-0.009,-0.024l-0.009,-0.024l-0.008,-0.025l-0.008,-0.025l-0.006,-0.026l-0.007,-0.025l-0.005,-0.026l-0.005,-0.026l-0.005,-0.027l-0.003,-0.026l-0.003,-0.027l-0.003,-0.027l-0.002,-0.027l-0.001,-0.027l0,-0.028l0,-12.37l0,-0.028l0.001,-0.027l0.002,-0.027l0.003,-0.027l0.003,-0.027l0.003,-0.026l0.005,-0.027l0.005,-0.026l0.005,-0.026l0.007,-0.025l0.006,-0.026l0.008,-0.025l0.008,-0.025l0.009,-0.024l0.009,-0.024l0.01,-0.024l0.01,-0.024l0.011,-0.024l0.012,-0.023l0.012,-0.023l0.012,-0.022l0.013,-0.022l0.014,-0.022l0.014,-0.021l0.015,-0.021l0.015,-0.021l0.015,-0.02l0.016,-0.02l0.017,-0.02l0.017,-0.019l0.017,-0.019l0.018,-0.018l0.018,-0.018l0.019,-0.017l0.019,-0.017l0.02,-0.017l0.02,-0.016l0.02,-0.015l0.021,-0.015l0.021,-0.015l0.021,-0.014l0.022,-0.014l0.022,-0.013l0.022,-0.012l0.023,-0.012l0.023,-0.012l0.024,-0.011l0.024,-0.01l0.024,-0.01l0.024,-0.009l0.024,-0.009l0.025,-0.008l0.025,-0.008l0.026,-0.006l0.025,-0.007l0.026,-0.005l0.026,-0.005l0.027,-0.005l0.026,-0.003l0.027,-0.003l0.027,-0.003l0.027,-0.002l0.027,-0.001l0.028,0l8.87,0l0.028,0Zm-8.895,0.5l-0.019,0l-0.014,0.001l-0.014,0.001l-0.015,0.001l-0.014,0.002l-0.015,0.002l-0.012,0.002l-0.014,0.002l-0.013,0.003l-0.014,0.004l-0.014,0.004l-0.013,0.003l-0.014,0.005l-0.013,0.005l-0.011,0.004l-0.013,0.005l-0.014,0.006l-0.011,0.005l-0.012,0.006l-0.014,0.007l-0.01,0.006l-0.011,0.007l-0.013,0.008l-0.012,0.008l-0.012,0.008l-0.01,0.007l-0.01,0.008l-0.011,0.009l-0.01,0.008l-0.01,0.01l-0.011,0.01l-0.01,0.009l-0.009,0.009l-0.009,0.01l-0.009,0.011l-0.01,0.01l-0.008,0.01l-0.007,0.011l-0.009,0.011l-0.008,0.012l-0.007,0.011l-0.008,0.012l-0.006,0.011l-0.007,0.012l-0.007,0.012l-0.005,0.012l-0.006,0.012l-0.006,0.014l-0.005,0.012l-0.005,0.013l-0.004,0.013l-0.005,0.013l-0.004,0.013l-0.003,0.014l-0.004,0.013l-0.002,0.014l-0.003,0.013l-0.002,0.014l-0.002,0.014l-0.002,0.015l-0.001,0.014l-0.001,0.014l-0.001,0.015l0,0.018l0,12.364l0,0.018l0.001,0.015l0.001,0.014l0.001,0.014l0.002,0.015l0.002,0.014l0.002,0.013l0.003,0.014l0.002,0.014l0.004,0.013l0.003,0.014l0.004,0.013l0.005,0.013l0.004,0.013l0.005,0.013l0.005,0.013l0.006,0.012l0.005,0.012l0.006,0.012l0.007,0.013l0.007,0.012l0.006,0.011l0.008,0.012l0.008,0.012l0.007,0.01l0.008,0.011l0.008,0.011l0.009,0.011l0.009,0.01l0.008,0.01l0.01,0.011l0.01,0.01l0.01,0.009l0.009,0.009l0.01,0.009l0.011,0.009l0.011,0.009l0.01,0.008l0.012,0.008l0.011,0.008l0.011,0.007l0.011,0.007l0.012,0.007l0.013,0.007l0.012,0.007l0.01,0.005l0.014,0.006l0.013,0.006l0.012,0.005l0.013,0.005l0.012,0.004l0.014,0.005l0.014,0.004l0.012,0.003l0.013,0.003l0.015,0.004l0.014,0.002l0.012,0.002l0.015,0.002l0.016,0.002l0.013,0.001l0.014,0.001l0.016,0.001l0.017,0l8.864,0l0.017,0l0.016,-0.001l0.014,-0.001l0.013,-0.001l0.016,-0.002l0.015,-0.002l0.012,-0.002l0.014,-0.002l0.015,-0.004l0.013,-0.003l0.012,-0.003l0.014,-0.004l0.014,-0.005l0.012,-0.004l0.013,-0.005l0.012,-0.005l0.013,-0.006l0.014,-0.006l0.01,-0.005l0.012,-0.007l0.013,-0.007l0.012,-0.007l0.011,-0.007l0.011,-0.007l0.011,-0.008l0.012,-0.008l0.01,-0.008l0.011,-0.009l0.011,-0.009l0.01,-0.009l0.009,-0.009l0.01,-0.009l0.01,-0.01l0.01,-0.011l0.008,-0.01l0.009,-0.01l0.009,-0.011l0.008,-0.011l0.008,-0.011l0.007,-0.01l0.008,-0.012l0.008,-0.012l0.006,-0.011l0.007,-0.012l0.007,-0.013l0.006,-0.012l0.005,-0.012l0.006,-0.012l0.005,-0.013l0.005,-0.013l0.004,-0.013l0.005,-0.013l0.004,-0.013l0.003,-0.014l0.004,-0.013l0.002,-0.014l0.003,-0.014l0.002,-0.013l0.002,-0.014l0.002,-0.015l0.001,-0.014l0.001,-0.014l0.001,-0.015l0,-0.018l0,-12.364l0,-0.018l-0.001,-0.015l-0.001,-0.014l-0.001,-0.014l-0.002,-0.015l-0.002,-0.014l-0.002,-0.014l-0.003,-0.013l-0.002,-0.014l-0.004,-0.013l-0.003,-0.014l-0.004,-0.013l-0.005,-0.013l-0.004,-0.013l-0.005,-0.012l-0.005,-0.013l-0.006,-0.014l-0.006,-0.012l-0.005,-0.011l-0.007,-0.013l-0.007,-0.012l-0.006,-0.011l-0.008,-0.012l-0.007,-0.011l-0.008,-0.012l-0.009,-0.011l-0.007,-0.011l-0.008,-0.01l-0.01,-0.01l-0.009,-0.011l-0.009,-0.01l-0.009,-0.009l-0.01,-0.009l-0.011,-0.01l-0.01,-0.01l-0.01,-0.008l-0.011,-0.009l-0.01,-0.008l-0.01,-0.007l-0.012,-0.008l-0.012,-0.008l-0.013,-0.008l-0.011,-0.007l-0.01,-0.006l-0.014,-0.007l-0.012,-0.006l-0.011,-0.005l-0.014,-0.006l-0.013,-0.005l-0.011,-0.004l-0.013,-0.005l-0.014,-0.005l-0.013,-0.003l-0.014,-0.004l-0.014,-0.004l-0.013,-0.003l-0.014,-0.002l-0.012,-0.002l-0.015,-0.002l-0.014,-0.002l-0.015,-0.001l-0.014,-0.001l-0.014,-0.001l-0.019,0l-8.864,0Z"/></g><g id="bouton"><path d="M13.5,7.753c0,-0.416 -0.337,-0.753 -0.753,-0.753l-6.494,0c-0.416,0 -0.753,0.337 -0.753,0.753l0,3.494c0,0.416 0.337,0.753 0.753,0.753l6.494,0c0.416,0 0.753,-0.337 0.753,-0.753l0,-3.494Z" style="fill:#fff;"/><path d="M12.766,7l0.02,0.001l0.019,0.001l0.019,0.002l0.019,0.002l0.019,0.003l0.018,0.003l0.019,0.003l0.018,0.004l0.018,0.005l0.018,0.005l0.018,0.005l0.017,0.006l0.018,0.006l0.017,0.006l0.017,0.007l0.017,0.008l0.016,0.007l0.017,0.008l0.016,0.009l0.016,0.009l0.015,0.009l0.016,0.01l0.015,0.01l0.015,0.01l0.014,0.011l0.015,0.011l0.014,0.011l0.014,0.012l0.013,0.012l0.013,0.012l0.013,0.013l0.013,0.013l0.012,0.013l0.012,0.013l0.012,0.014l0.011,0.014l0.011,0.015l0.011,0.014l0.01,0.015l0.01,0.015l0.01,0.016l0.009,0.015l0.009,0.016l0.009,0.016l0.008,0.017l0.007,0.016l0.008,0.017l0.007,0.017l0.006,0.017l0.006,0.018l0.006,0.017l0.005,0.018l0.005,0.018l0.005,0.018l0.004,0.018l0.003,0.019l0.003,0.018l0.003,0.019l0.002,0.019l0.002,0.019l0.001,0.019l0.001,0.02l0,0.019l0,3.494l0,0.019l-0.001,0.02l-0.001,0.019l-0.002,0.019l-0.002,0.019l-0.003,0.019l-0.003,0.018l-0.003,0.019l-0.004,0.018l-0.005,0.018l-0.005,0.018l-0.005,0.018l-0.006,0.017l-0.006,0.018l-0.006,0.017l-0.007,0.017l-0.008,0.017l-0.007,0.016l-0.008,0.017l-0.009,0.016l-0.009,0.016l-0.009,0.015l-0.01,0.016l-0.01,0.015l-0.01,0.015l-0.011,0.014l-0.011,0.015l-0.011,0.014l-0.012,0.014l-0.012,0.013l-0.012,0.013l-0.013,0.013l-0.013,0.013l-0.013,0.012l-0.013,0.012l-0.014,0.012l-0.014,0.011l-0.015,0.011l-0.014,0.011l-0.015,0.01l-0.015,0.01l-0.016,0.01l-0.015,0.009l-0.016,0.009l-0.016,0.009l-0.017,0.008l-0.016,0.007l-0.017,0.008l-0.017,0.007l-0.017,0.006l-0.018,0.006l-0.017,0.006l-0.018,0.005l-0.018,0.005l-0.018,0.005l-0.018,0.004l-0.019,0.003l-0.018,0.003l-0.019,0.003l-0.019,0.002l-0.019,0.002l-0.019,0.001l-0.02,0.001l-0.019,0l-6.494,0l-0.019,0l-0.02,-0.001l-0.019,-0.001l-0.019,-0.002l-0.019,-0.002l-0.019,-0.003l-0.018,-0.003l-0.019,-0.003l-0.018,-0.004l-0.018,-0.005l-0.018,-0.005l-0.018,-0.005l-0.017,-0.006l-0.018,-0.006l-0.017,-0.006l-0.017,-0.007l-0.017,-0.008l-0.016,-0.007l-0.017,-0.008l-0.016,-0.009l-0.016,-0.009l-0.015,-0.009l-0.016,-0.01l-0.015,-0.01l-0.015,-0.01l-0.014,-0.011l-0.015,-0.011l-0.014,-0.011l-0.014,-0.012l-0.013,-0.012l-0.013,-0.012l-0.013,-0.013l-0.013,-0.013l-0.012,-0.013l-0.012,-0.013l-0.012,-0.014l-0.011,-0.014l-0.011,-0.015l-0.011,-0.014l-0.01,-0.015l-0.01,-0.015l-0.01,-0.016l-0.009,-0.015l-0.009,-0.016l-0.009,-0.016l-0.008,-0.017l-0.007,-0.016l-0.008,-0.017l-0.007,-0.017l-0.006,-0.017l-0.006,-0.018l-0.006,-0.017l-0.005,-0.018l-0.005,-0.018l-0.005,-0.018l-0.004,-0.018l-0.003,-0.019l-0.003,-0.018l-0.003,-0.019l-0.002,-0.019l-0.002,-0.019l-0.001,-0.019l-0.001,-0.02l0,-0.019l0,-3.494l0,-0.019l0.001,-0.02l0.001,-0.019l0.002,-0.019l0.002,-0.019l0.003,-0.019l0.003,-0.018l0.003,-0.019l0.004,-0.018l0.005,-0.018l0.005,-0.018l0.005,-0.018l0.006,-0.017l0.006,-0.018l0.006,-0.017l0.007,-0.017l0.008,-0.017l0.007,-0.016l0.008,-0.017l0.009,-0.016l0.009,-0.016l0.009,-0.015l0.01,-0.016l0.01,-0.015l0.01,-0.015l0.011,-0.014l0.011,-0.015l0.011,-0.014l0.012,-0.014l0.012,-0.013l0.012,-0.013l0.013,-0.013l0.013,-0.013l0.013,-0.012l0.013,-0.012l0.014,-0.012l0.014,-0.011l0.015,-0.011l0.014,-0.011l0.015,-0.01l0.015,-0.01l0.016,-0.01l0.015,-0.009l0.016,-0.009l0.016,-0.009l0.017,-0.008l0.016,-0.007l0.017,-0.008l0.017,-0.007l0.017,-0.006l0.018,-0.006l0.017,-0.006l0.018,-0.005l0.018,-0.005l0.018,-0.005l0.018,-0.004l0.019,-0.003l0.018,-0.003l0.019,-0.003l0.019,-0.002l0.019,-0.002l0.019,-0.001l0.02,-0.001l0.019,0l6.494,0l0.019,0Zm-6.51,0.5l-0.009,0l-0.007,0l-0.008,0.001l-0.006,0l-0.006,0.001l-0.005,0.001l-0.005,0.001l-0.01,0.002l-0.005,0.001l-0.004,0.001l-0.009,0.002l-0.004,0.001l-0.004,0.002l-0.009,0.003l-0.006,0.002l-0.003,0.001l-0.005,0.003l-0.008,0.003l-0.005,0.003l-0.005,0.002l-0.007,0.004l-0.004,0.003l-0.005,0.002l-0.004,0.003l-0.006,0.004l-0.006,0.005l-0.003,0.002l-0.004,0.003l-0.005,0.005l-0.007,0.006l-0.004,0.004l-0.003,0.003l-0.005,0.004l-0.004,0.005l-0.004,0.004l-0.005,0.006l-0.003,0.005l-0.004,0.004l-0.003,0.005l-0.004,0.005l-0.004,0.006l-0.002,0.003l-0.004,0.006l-0.003,0.006l-0.003,0.006l-0.003,0.005l-0.002,0.005l-0.002,0.006l-0.003,0.005l-0.002,0.006l-0.002,0.006l-0.002,0.006l-0.001,0.005l-0.002,0.007l-0.002,0.006l-0.001,0.006l-0.001,0.006l-0.001,0.006l-0.001,0.006l-0.001,0.007l0,0.006l-0.001,0.006l0,0.007l0,0.01l0,3.488l0,0.01l0,0.007l0.001,0.006l0,0.006l0.001,0.007l0.001,0.006l0.001,0.006l0.001,0.006l0.001,0.006l0.002,0.006l0.002,0.007l0.001,0.005l0.002,0.006l0.002,0.006l0.002,0.006l0.003,0.005l0.002,0.006l0.002,0.005l0.003,0.005l0.003,0.006l0.003,0.006l0.004,0.006l0.002,0.003l0.004,0.006l0.004,0.005l0.003,0.005l0.004,0.004l0.003,0.005l0.005,0.006l0.004,0.004l0.004,0.005l0.005,0.004l0.003,0.003l0.004,0.004l0.007,0.006l0.005,0.005l0.004,0.003l0.003,0.002l0.006,0.005l0.006,0.004l0.004,0.003l0.005,0.002l0.004,0.003l0.007,0.004l0.005,0.002l0.005,0.003l0.008,0.003l0.005,0.003l0.003,0.001l0.006,0.002l0.009,0.003l0.004,0.002l0.004,0.001l0.009,0.002l0.004,0.001l0.005,0.001l0.01,0.002l0.005,0.001l0.005,0.001l0.006,0.001l0.006,0l0.008,0.001l0.007,0l0.009,0l6.488,0l0.009,0l0.007,0l0.008,-0.001l0.006,0l0.006,-0.001l0.005,-0.001l0.005,-0.001l0.01,-0.002l0.005,-0.001l0.004,-0.001l0.009,-0.002l0.004,-0.001l0.004,-0.002l0.009,-0.003l0.006,-0.002l0.003,-0.001l0.005,-0.003l0.008,-0.003l0.005,-0.003l0.005,-0.002l0.007,-0.004l0.004,-0.003l0.005,-0.002l0.004,-0.003l0.006,-0.004l0.006,-0.005l0.003,-0.002l0.004,-0.003l0.005,-0.005l0.007,-0.006l0.004,-0.004l0.003,-0.003l0.005,-0.004l0.004,-0.005l0.004,-0.004l0.005,-0.006l0.003,-0.005l0.004,-0.004l0.003,-0.005l0.004,-0.005l0.004,-0.006l0.002,-0.003l0.004,-0.006l0.003,-0.006l0.003,-0.006l0.003,-0.005l0.002,-0.005l0.002,-0.006l0.003,-0.005l0.002,-0.006l0.002,-0.006l0.002,-0.006l0.001,-0.005l0.002,-0.007l0.002,-0.006l0.001,-0.006l0.001,-0.006l0.001,-0.006l0.001,-0.006l0.001,-0.007l0,-0.006l0.001,-0.006l0,-0.007l0,-0.01l0,-3.488l0,-0.01l0,-0.007l-0.001,-0.006l0,-0.006l-0.001,-0.007l-0.001,-0.006l-0.001,-0.006l-0.001,-0.006l-0.001,-0.006l-0.002,-0.006l-0.002,-0.007l-0.001,-0.005l-0.002,-0.006l-0.002,-0.006l-0.002,-0.006l-0.003,-0.005l-0.002,-0.006l-0.002,-0.005l-0.003,-0.005l-0.003,-0.006l-0.003,-0.006l-0.004,-0.006l-0.002,-0.003l-0.004,-0.006l-0.004,-0.005l-0.003,-0.005l-0.004,-0.004l-0.003,-0.005l-0.005,-0.006l-0.004,-0.004l-0.004,-0.005l-0.005,-0.004l-0.003,-0.003l-0.004,-0.004l-0.007,-0.006l-0.005,-0.005l-0.004,-0.003l-0.003,-0.002l-0.006,-0.005l-0.006,-0.004l-0.004,-0.003l-0.005,-0.002l-0.004,-0.003l-0.007,-0.004l-0.005,-0.002l-0.005,-0.003l-0.008,-0.003l-0.005,-0.003l-0.003,-0.001l-0.006,-0.002l-0.009,-0.003l-0.004,-0.002l-0.004,-0.001l-0.009,-0.002l-0.004,-0.001l-0.005,-0.001l-0.01,-0.002l-0.005,-0.001l-0.005,-0.001l-0.006,-0.001l-0.006,0l-0.008,-0.001l-0.007,0l-0.009,0l-6.488,0Z"/><path d="M6.25,9.25l6.5,0" style="fill:none;stroke:#000;stroke-width:0.5px;"/></g><g id="fil"><path d="M8,4.25l3,0" style="fill:none;stroke:#000;stroke-width:0.5px;"/><path d="M8.5,3.25l2,0" style="fill:none;stroke:#000;stroke-width:0.5px;"/><path d="M9,2.25l1,0" style="fill:none;stroke:#000;stroke-width:0.5px;"/><path d="M9.5,0l0,1.5" style="fill:none;stroke:#000;stroke-width:1px;"/></g></g><g id="move"><g id="move1" serif:id="move"><path d="M21.5,21.75c0.525,0 1.529,0 2,0" style="fill:none;stroke:#000;stroke-width:0.5px;"/><path d="M19.5,21.75c0.631,0 0.935,0 1.5,0" style="fill:none;stroke:#000;stroke-width:0.5px;"/><path d="M17,21.75c0.841,0 1.247,0 2,0" style="fill:none;stroke:#000;stroke-width:0.5px;"/></g><g id="move2" serif:id="move"><path d="M21.5,20.25c0.315,0 0.717,0 1,0" style="fill:none;stroke:#000;stroke-width:0.52px;"/><path d="M19.5,20.25c0.525,0 0.779,0 1.25,0" style="fill:none;stroke:#000;stroke-width:0.5px;"/><path d="M17,20.25c0.736,0 1.091,0 1.75,0" style="fill:none;stroke:#000;stroke-width:0.5px;"/></g><g id="move3" serif:id="move"><path d="M21,18.25c0.21,0 0.562,0 0.75,0" style="fill:none;stroke:#000;stroke-width:0.5px;"/><path d="M19.5,18.25c0.42,0 0.623,0 1,0" style="fill:none;stroke:#000;stroke-width:0.5px;"/><path d="M17,18.25c0.736,0 1.091,0 1.75,0" style="fill:none;stroke:#000;stroke-width:0.5px;"/></g><g id="move4" serif:id="move"><path d="M21,16.25c0.21,0 0.312,0 0.5,0" style="fill:none;stroke:#000;stroke-width:0.5px;"/><path d="M19.25,16.25c0.315,0 0.467,0 0.75,0" style="fill:none;stroke:#000;stroke-width:0.5px;stroke-linecap:square;"/><path d="M17,16.25c0.631,0 0.935,0 1.5,0" style="fill:none;stroke:#000;stroke-width:0.5px;"/></g><g id="move5" serif:id="move"><path d="M19,14.25c0.368,0 0.545,0 0.875,0" style="fill:none;stroke:#000;stroke-width:0.5px;"/><path d="M17,14.25c0.525,0 0.779,0 1.25,0" style="fill:none;stroke:#000;stroke-width:0.5px;"/></g><g id="move6" serif:id="move"><path d="M19,12.25c0.21,0 0.312,0 0.5,0" style="fill:none;stroke:#000;stroke-width:0.5px;"/><path d="M17,12.25c0.525,0 0.779,0 1.25,0" style="fill:none;stroke:#000;stroke-width:0.5px;"/></g><g id="move7" serif:id="move"><path d="M18.5,10.25c0.21,0 0.312,0 0.5,0" style="fill:none;stroke:#000;stroke-width:0.5px;"/><path d="M17,10.25c0.315,0 0.467,0 0.75,0" style="fill:none;stroke:#000;stroke-width:0.5px;"/></g></g></g></g></svg>