<svg xmlns="http://www.w3.org/2000/svg" xmlns:xlink="http://www.w3.org/1999/xlink" width="512" height="512" viewBox="0 0 512 512">
  <defs>
    <linearGradient id="icon-chapter-splitter-c" x1="19.726%" x2="64.874%" y1="0%" y2="100%">
      <stop offset="0%" stop-color="#444"/>
      <stop offset="100%" stop-color="#222"/>
    </linearGradient>
    <path id="icon-chapter-splitter-b" d="M5.47222222,438 L0,438 L0,4.26325641e-14 L5.47222222,4.26325641e-14 L5.47222222,5.95 C5.47222222,8.71142375 7.71079847,10.95 10.4722222,10.95 L22.3611111,10.95 C25.1225349,10.95 27.3611111,8.71142375 27.3611111,5.95 L27.3611111,4.26325641e-14 L366.638889,4.26325641e-14 L366.638889,5.95 C366.638889,8.71142375 368.877465,10.95 371.638889,10.95 L383.527778,10.95 C386.289202,10.95 388.527778,8.71142375 388.527778,5.95 L388.527778,4.26325641e-14 L394,4.26325641e-14 L394,438 L388.527778,438 L388.527778,432.05 C388.527778,429.288576 386.289202,427.05 383.527778,427.05 L371.638889,427.05 C368.877465,427.05 366.638889,429.288576 366.638889,432.05 L366.638889,438 L27.3611111,438 L27.3611111,432.05 C27.3611111,429.288576 25.1225349,427.05 22.3611111,427.05 L10.4722222,427.05 C7.71079847,427.05 5.47222222,429.288576 5.47222222,432.05 L5.47222222,438 Z M371.638889,25.55 C368.877465,25.55 366.638889,27.7885763 366.638889,30.55 L366.638889,42.45 C366.638889,45.2114237 368.877465,47.45 371.638889,47.45 L383.527778,47.45 C386.289202,47.45 388.527778,45.2114237 388.527778,42.45 L388.527778,30.55 C388.527778,27.7885763 386.289202,25.55 383.527778,25.55 L371.638889,25.55 Z M371.638889,62.05 C368.877465,62.05 366.638889,64.2885763 366.638889,67.05 L366.638889,78.95 C366.638889,81.7114237 368.877465,83.95 371.638889,83.95 L383.527778,83.95 C386.289202,83.95 388.527778,81.7114237 388.527778,78.95 L388.527778,67.05 C388.527778,64.2885763 386.289202,62.05 383.527778,62.05 L371.638889,62.05 Z M371.638889,98.55 C368.877465,98.55 366.638889,100.788576 366.638889,103.55 L366.638889,115.45 C366.638889,118.211424 368.877465,120.45 371.638889,120.45 L383.527778,120.45 C386.289202,120.45 388.527778,118.211424 388.527778,115.45 L388.527778,103.55 C388.527778,100.788576 386.289202,98.55 383.527778,98.55 L371.638889,98.55 Z M371.638889,135.05 C368.877465,135.05 366.638889,137.288576 366.638889,140.05 L366.638889,151.95 C366.638889,154.711424 368.877465,156.95 371.638889,156.95 L383.527778,156.95 C386.289202,156.95 388.527778,154.711424 388.527778,151.95 L388.527778,140.05 C388.527778,137.288576 386.289202,135.05 383.527778,135.05 L371.638889,135.05 Z M371.638889,208.05 C368.877465,208.05 366.638889,210.288576 366.638889,213.05 L366.638889,224.95 C366.638889,227.711424 368.877465,229.95 371.638889,229.95 L383.527778,229.95 C386.289202,229.95 388.527778,227.711424 388.527778,224.95 L388.527778,213.05 C388.527778,210.288576 386.289202,208.05 383.527778,208.05 L371.638889,208.05 Z M371.638889,171.55 C368.877465,171.55 366.638889,173.788576 366.638889,176.55 L366.638889,188.45 C366.638889,191.211424 368.877465,193.45 371.638889,193.45 L383.527778,193.45 C386.289202,193.45 388.527778,191.211424 388.527778,188.45 L388.527778,176.55 C388.527778,173.788576 386.289202,171.55 383.527778,171.55 L371.638889,171.55 Z M371.638889,244.55 C368.877465,244.55 366.638889,246.788576 366.638889,249.55 L366.638889,261.45 C366.638889,264.211424 368.877465,266.45 371.638889,266.45 L383.527778,266.45 C386.289202,266.45 388.527778,264.211424 388.527778,261.45 L388.527778,249.55 C388.527778,246.788576 386.289202,244.55 383.527778,244.55 L371.638889,244.55 Z M371.638889,281.05 C368.877465,281.05 366.638889,283.288576 366.638889,286.05 L366.638889,297.95 C366.638889,300.711424 368.877465,302.95 371.638889,302.95 L383.527778,302.95 C386.289202,302.95 388.527778,300.711424 388.527778,297.95 L388.527778,286.05 C388.527778,283.288576 386.289202,281.05 383.527778,281.05 L371.638889,281.05 Z M371.638889,317.55 C368.877465,317.55 366.638889,319.788576 366.638889,322.55 L366.638889,334.45 C366.638889,337.211424 368.877465,339.45 371.638889,339.45 L383.527778,339.45 C386.289202,339.45 388.527778,337.211424 388.527778,334.45 L388.527778,322.55 C388.527778,319.788576 386.289202,317.55 383.527778,317.55 L371.638889,317.55 Z M371.638889,354.05 C368.877465,354.05 366.638889,356.288576 366.638889,359.05 L366.638889,370.95 C366.638889,373.711424 368.877465,375.95 371.638889,375.95 L383.527778,375.95 C386.289202,375.95 388.527778,373.711424 388.527778,370.95 L388.527778,359.05 C388.527778,356.288576 386.289202,354.05 383.527778,354.05 L371.638889,354.05 Z M371.638889,390.55 C368.877465,390.55 366.638889,392.788576 366.638889,395.55 L366.638889,407.45 C366.638889,410.211424 368.877465,412.45 371.638889,412.45 L383.527778,412.45 C386.289202,412.45 388.527778,410.211424 388.527778,407.45 L388.527778,395.55 C388.527778,392.788576 386.289202,390.55 383.527778,390.55 L371.638889,390.55 Z M10.4722222,25.55 C7.71079847,25.55 5.47222222,27.7885763 5.47222222,30.55 L5.47222222,42.45 C5.47222222,45.2114237 7.71079847,47.45 10.4722222,47.45 L22.3611111,47.45 C25.1225349,47.45 27.3611111,45.2114237 27.3611111,42.45 L27.3611111,30.55 C27.3611111,27.7885763 25.1225349,25.55 22.3611111,25.55 L10.4722222,25.55 Z M10.4722222,62.05 C7.71079847,62.05 5.47222222,64.2885763 5.47222222,67.05 L5.47222222,78.95 C5.47222222,81.7114237 7.71079847,83.95 10.4722222,83.95 L22.3611111,83.95 C25.1225349,83.95 27.3611111,81.7114237 27.3611111,78.95 L27.3611111,67.05 C27.3611111,64.2885763 25.1225349,62.05 22.3611111,62.05 L10.4722222,62.05 Z M10.4722222,98.55 C7.71079847,98.55 5.47222222,100.788576 5.47222222,103.55 L5.47222222,115.45 C5.47222222,118.211424 7.71079847,120.45 10.4722222,120.45 L22.3611111,120.45 C25.1225349,120.45 27.3611111,118.211424 27.3611111,115.45 L27.3611111,103.55 C27.3611111,100.788576 25.1225349,98.55 22.3611111,98.55 L10.4722222,98.55 Z M10.4722222,135.05 C7.71079847,135.05 5.47222222,137.288576 5.47222222,140.05 L5.47222222,151.95 C5.47222222,154.711424 7.71079847,156.95 10.4722222,156.95 L22.3611111,156.95 C25.1225349,156.95 27.3611111,154.711424 27.3611111,151.95 L27.3611111,140.05 C27.3611111,137.288576 25.1225349,135.05 22.3611111,135.05 L10.4722222,135.05 Z M10.4722222,208.05 C7.71079847,208.05 5.47222222,210.288576 5.47222222,213.05 L5.47222222,224.95 C5.47222222,227.711424 7.71079847,229.95 10.4722222,229.95 L22.3611111,229.95 C25.1225349,229.95 27.3611111,227.711424 27.3611111,224.95 L27.3611111,213.05 C27.3611111,210.288576 25.1225349,208.05 22.3611111,208.05 L10.4722222,208.05 Z M10.4722222,171.55 C7.71079847,171.55 5.47222222,173.788576 5.47222222,176.55 L5.47222222,188.45 C5.47222222,191.211424 7.71079847,193.45 10.4722222,193.45 L22.3611111,193.45 C25.1225349,193.45 27.3611111,191.211424 27.3611111,188.45 L27.3611111,176.55 C27.3611111,173.788576 25.1225349,171.55 22.3611111,171.55 L10.4722222,171.55 Z M10.4722222,244.55 C7.71079847,244.55 5.47222222,246.788576 5.47222222,249.55 L5.47222222,261.45 C5.47222222,264.211424 7.71079847,266.45 10.4722222,266.45 L22.3611111,266.45 C25.1225349,266.45 27.3611111,264.211424 27.3611111,261.45 L27.3611111,249.55 C27.3611111,246.788576 25.1225349,244.55 22.3611111,244.55 L10.4722222,244.55 Z M10.4722222,281.05 C7.71079847,281.05 5.47222222,283.288576 5.47222222,286.05 L5.47222222,297.95 C5.47222222,300.711424 7.71079847,302.95 10.4722222,302.95 L22.3611111,302.95 C25.1225349,302.95 27.3611111,300.711424 27.3611111,297.95 L27.3611111,286.05 C27.3611111,283.288576 25.1225349,281.05 22.3611111,281.05 L10.4722222,281.05 Z M10.4722222,317.55 C7.71079847,317.55 5.47222222,319.788576 5.47222222,322.55 L5.47222222,334.45 C5.47222222,337.211424 7.71079847,339.45 10.4722222,339.45 L22.3611111,339.45 C25.1225349,339.45 27.3611111,337.211424 27.3611111,334.45 L27.3611111,322.55 C27.3611111,319.788576 25.1225349,317.55 22.3611111,317.55 L10.4722222,317.55 Z M10.4722222,354.05 C7.71079847,354.05 5.47222222,356.288576 5.47222222,359.05 L5.47222222,370.95 C5.47222222,373.711424 7.71079847,375.95 10.4722222,375.95 L22.3611111,375.95 C25.1225349,375.95 27.3611111,373.711424 27.3611111,370.95 L27.3611111,359.05 C27.3611111,356.288576 25.1225349,354.05 22.3611111,354.05 L10.4722222,354.05 Z M10.4722222,390.55 C7.71079847,390.55 5.47222222,392.788576 5.47222222,395.55 L5.47222222,407.45 C5.47222222,410.211424 7.71079847,412.45 10.4722222,412.45 L22.3611111,412.45 C25.1225349,412.45 27.3611111,410.211424 27.3611111,407.45 L27.3611111,395.55 C27.3611111,392.788576 25.1225349,390.55 22.3611111,390.55 L10.4722222,390.55 Z"/>
    <filter id="icon-chapter-splitter-a" width="106.1%" height="105.5%" x="-3%" y="-2.7%" filterUnits="objectBoundingBox">
      <feOffset in="SourceAlpha" result="shadowOffsetOuter1"/>
      <feGaussianBlur in="shadowOffsetOuter1" result="shadowBlurOuter1" stdDeviation="4"/>
      <feColorMatrix in="shadowBlurOuter1" values="0 0 0 0 0   0 0 0 0 0   0 0 0 0 0  0 0 0 0.5 0"/>
    </filter>
    <linearGradient id="icon-chapter-splitter-d" x1="11.224%" x2="76.756%" y1="50%" y2="-630.392%">
      <stop offset="0%" stop-color="#C7CCDC"/>
      <stop offset="32.359%" stop-color="#C7CCDC"/>
      <stop offset="100%" stop-color="#4A90E2"/>
    </linearGradient>
    <linearGradient id="icon-chapter-splitter-e" x1="9.465%" x2="81.639%" y1="315.689%" y2="0%">
      <stop offset="0%" stop-color="#C7CCDC"/>
      <stop offset="100%" stop-color="#4A90E2"/>
    </linearGradient>
    <linearGradient id="icon-chapter-splitter-f" x1="8.011%" x2="88.709%" y1="93.137%" y2="13.651%">
      <stop offset="0%" stop-color="#C7CCDC"/>
      <stop offset="100%" stop-color="#4A90E2"/>
    </linearGradient>
    <polygon id="icon-chapter-splitter-h" points="97.673 199 142.828 111.352 92 111.352 92 81 182.211 81 182.211 108.247 137.106 199"/>
    <filter id="icon-chapter-splitter-g" width="117.7%" height="113.6%" x="-8.9%" y="-3.4%" filterUnits="objectBoundingBox">
      <feOffset dy="4" in="SourceAlpha" result="shadowOffsetOuter1"/>
      <feGaussianBlur in="shadowOffsetOuter1" result="shadowBlurOuter1" stdDeviation="2"/>
      <feColorMatrix in="shadowBlurOuter1" values="0 0 0 0 0   0 0 0 0 0   0 0 0 0 0  0 0 0 0.5 0"/>
    </filter>
    <ellipse id="icon-chapter-splitter-j" cx="134.069" cy="134.137" rx="113.275" ry="113.332"/>
    <filter id="icon-chapter-splitter-i" width="109.7%" height="109.7%" x="-6.2%" y="-3.1%" filterUnits="objectBoundingBox">
      <feMorphology in="SourceAlpha" operator="dilate" radius="3" result="shadowSpreadOuter1"/>
      <feOffset dx="-3" dy="4" in="shadowSpreadOuter1" result="shadowOffsetOuter1"/>
      <feMorphology in="SourceAlpha" radius="3" result="shadowInner"/>
      <feOffset dx="-3" dy="4" in="shadowInner" result="shadowInner"/>
      <feComposite in="shadowOffsetOuter1" in2="shadowInner" operator="out" result="shadowOffsetOuter1"/>
      <feGaussianBlur in="shadowOffsetOuter1" result="shadowBlurOuter1" stdDeviation="2"/>
      <feColorMatrix in="shadowBlurOuter1" values="0 0 0 0 1   0 0 0 0 1   0 0 0 0 1  0 0 0 1 0"/>
    </filter>
    <ellipse id="icon-chapter-splitter-l" cx="134.617" cy="134.685" rx="134.617" ry="134.685"/>
    <filter id="icon-chapter-splitter-k" width="108.2%" height="108.2%" x="-5.2%" y="-2.6%" filterUnits="objectBoundingBox">
      <feMorphology in="SourceAlpha" operator="dilate" radius="3" result="shadowSpreadOuter1"/>
      <feOffset dx="-3" dy="4" in="shadowSpreadOuter1" result="shadowOffsetOuter1"/>
      <feMorphology in="SourceAlpha" radius="3" result="shadowInner"/>
      <feOffset dx="-3" dy="4" in="shadowInner" result="shadowInner"/>
      <feComposite in="shadowOffsetOuter1" in2="shadowInner" operator="out" result="shadowOffsetOuter1"/>
      <feGaussianBlur in="shadowOffsetOuter1" result="shadowBlurOuter1" stdDeviation="2"/>
      <feColorMatrix in="shadowBlurOuter1" values="0 0 0 0 1   0 0 0 0 1   0 0 0 0 1  0 0 0 1 0"/>
    </filter>
    <radialGradient id="icon-chapter-splitter-o" cx="31.146%" cy="29.35%" r="77.794%" fx="31.146%" fy="29.35%">
      <stop offset="0%" stop-color="#F0F0F0"/>
      <stop offset="100%" stop-color="#D0D0D0"/>
    </radialGradient>
    <circle id="icon-chapter-splitter-n" cx="114.453" cy="114.453" r="113.794"/>
    <filter id="icon-chapter-splitter-m" width="112.3%" height="112.3%" x="-6.2%" y="-4.4%" filterUnits="objectBoundingBox">
      <feOffset dy="4" in="SourceAlpha" result="shadowOffsetOuter1"/>
      <feGaussianBlur in="shadowOffsetOuter1" result="shadowBlurOuter1" stdDeviation="4"/>
      <feColorMatrix in="shadowBlurOuter1" values="0 0 0 0 0   0 0 0 0 0   0 0 0 0 0  0 0 0 0.7 0"/>
    </filter>
  </defs>
  <g fill="none" fill-rule="evenodd">
    <g transform="rotate(-9 457.065 -80.155)">
      <use fill="#000" filter="url(#icon-chapter-splitter-a)" xlink:href="#icon-chapter-splitter-b"/>
      <use fill="url(#icon-chapter-splitter-c)" xlink:href="#icon-chapter-splitter-b"/>
      <path fill="url(#icon-chapter-splitter-d)" d="M350.222222,2.27373675e-13 L350.222222,27.85 C350.222222,30.6114237 347.983646,32.85 345.222222,32.85 L48.7777778,32.85 C46.016354,32.85 43.7777778,30.6114237 43.7777778,27.85 L43.7777778,2.27373675e-13 L350.222222,2.27373675e-13 Z"/>
      <path fill="url(#icon-chapter-splitter-e)" d="M350.222222,438 L43.7777778,438 L43.7777778,410.15 C43.7777778,407.388576 46.016354,405.15 48.7777778,405.15 L345.222222,405.15 C347.983646,405.15 350.222222,407.388576 350.222222,410.15 L350.222222,438 Z"/>
      <rect width="306.444" height="350.4" x="43.778" y="43.8" fill="url(#icon-chapter-splitter-f)" rx="5"/>
    </g>
    <g transform="translate(110 114)">
      <use fill="#000" filter="url(#icon-chapter-splitter-g)" xlink:href="#icon-chapter-splitter-h"/>
      <use fill="#E0E0E0" xlink:href="#icon-chapter-splitter-h"/>
      <polygon fill="#000" points="104.97 195 149.588 108.006 149.588 106.558 97 106.558 97 85 177 85 177 106.634 133.574 195"/>
      <use fill="#000" filter="url(#icon-chapter-splitter-i)" xlink:href="#icon-chapter-splitter-j"/>
      <use stroke="#000" stroke-width="6" xlink:href="#icon-chapter-splitter-j"/>
      <g>
        <use fill="#000" filter="url(#icon-chapter-splitter-k)" xlink:href="#icon-chapter-splitter-l"/>
        <use stroke="#000" stroke-width="6" xlink:href="#icon-chapter-splitter-l"/>
      </g>
    </g>
    <g transform="translate(265 265)">
      <use fill="#000" filter="url(#icon-chapter-splitter-m)" xlink:href="#icon-chapter-splitter-n"/>
      <use fill="url(#icon-chapter-splitter-o)" xlink:href="#icon-chapter-splitter-n"/>
      <path fill="#4A90E2" stroke="#4A90E2" stroke-width="2" d="M102.356856,114.716856 L58.356856,93.276856 C46.516856,87.516856 41.076856,80.636856 41.076856,71.516856 C41.076856,59.836856 49.716856,51.996856 62.356856,51.996856 C76.596856,51.996856 86.996856,61.276856 86.996856,73.756856 C86.996856,82.076856 82.996856,88.156856 75.636856,90.716856 L114.196856,107.516856 L167.316856,87.996856 C176.116856,84.796856 182.196856,83.356856 187.156856,83.356856 C190.036856,83.356856 191.956856,84.156856 193.076856,85.596856 L130.356856,114.716856 L193.076856,143.836856 C191.956856,145.276856 190.036856,146.076856 187.156856,146.076856 C182.196856,146.076856 176.276856,144.636856 167.316856,141.436856 L114.196856,121.916856 L75.636856,138.716856 C82.996856,141.276856 86.996856,147.356856 86.996856,155.676856 C86.996856,168.156856 76.596856,177.436856 62.676856,177.436856 C49.716856,177.436856 41.076856,169.596856 41.076856,157.916856 C41.076856,148.796856 46.676856,141.916856 58.356856,136.156856 L102.356856,114.716856 Z M49.236856,71.196856 C49.236856,78.556856 57.236856,84.636856 66.996856,84.636856 C73.556856,84.636856 78.356856,80.156856 78.356856,74.076856 C78.356856,65.916856 71.476856,59.996856 61.876856,59.996856 C54.036856,59.996856 49.236856,64.156856 49.236856,71.196856 Z M49.236856,158.236856 C49.236856,165.276856 54.036856,169.436856 61.716856,169.436856 C71.316856,169.436856 78.356856,163.516856 78.356856,155.356856 C78.356856,149.596856 73.556856,144.796856 67.636856,144.796856 C57.236856,144.796856 49.236856,150.556856 49.236856,158.236856 Z" transform="rotate(-124 117.077 114.717)"/>
    </g>
  </g>
</svg>
