<?xml version="1.0" encoding="UTF-8"?>
<svg width="300px" height="300px" viewBox="0 0 300 300" version="1.1" xmlns="http://www.w3.org/2000/svg" xmlns:xlink="http://www.w3.org/1999/xlink">
    <!-- Generator: Sketch 40.3 (33839) - http://www.bohemiancoding.com/sketch -->
    <title>section-training</title>
    <desc>Created with Sketch.</desc>
    <defs>
        <rect id="path-1" x="0" y="0" width="238" height="150" rx="8"></rect>
        <mask id="mask-2" maskContentUnits="userSpaceOnUse" maskUnits="objectBoundingBox" x="0" y="0" width="238" height="150" fill="white">
            <use xlink:href="#path-1"></use>
        </mask>
    </defs>
    <g id="Cartes" stroke="none" stroke-width="1" fill="none" fill-rule="evenodd">
        <g id="section-training">
            <circle id="Oval-2" fill-opacity="0.3" fill="#F8E71C" cx="150" cy="150" r="140"></circle>
            <g id="training" transform="translate(30.000000, 75.000000)">
                <use id="Rectangle" stroke="#4A4A4A" mask="url(#mask-2)" stroke-width="10" fill="#FFFFFF" xlink:href="#path-1"></use>
                <path d="M101.218798,101 L156.996491,101 L157.996491,101 L157.996491,99 L156.996491,99 L101.218798,99 L100.218798,99 L100.218798,101 L101.218798,101 Z M101.218798,113.5 L156.996491,113.5 L157.996491,113.5 L157.996491,111.5 L156.996491,111.5 L101.218798,111.5 L100.218798,111.5 L100.218798,113.5 L101.218798,113.5 Z" id="Combined-Shape" stroke="#9B9B9B" stroke-width="2" stroke-linecap="square"></path>
                <path d="M25.0526316,44.3333333 L212.947368,44.3333333 L213.947368,44.3333333 L213.947368,42.3333333 L212.947368,42.3333333 L25.0526316,42.3333333 L24.0526316,42.3333333 L24.0526316,44.3333333 L25.0526316,44.3333333 Z M25.0526316,54.3333333 L212.947368,54.3333333 L213.947368,54.3333333 L213.947368,52.3333333 L212.947368,52.3333333 L25.0526316,52.3333333 L24.0526316,52.3333333 L24.0526316,54.3333333 L25.0526316,54.3333333 Z M25.0526316,65.1666667 L212.947368,65.1666667 L213.947368,65.1666667 L213.947368,63.1666667 L212.947368,63.1666667 L25.0526316,63.1666667 L24.0526316,63.1666667 L24.0526316,65.1666667 L25.0526316,65.1666667 Z M25.0526316,75.1666667 L212.947368,75.1666667 L213.947368,75.1666667 L213.947368,73.1666667 L212.947368,73.1666667 L25.0526316,73.1666667 L24.0526316,73.1666667 L24.0526316,75.1666667 L25.0526316,75.1666667 Z" id="Combined-Shape" stroke="#9B9B9B" stroke-width="2" stroke-linecap="square"></path>
                <path d="M181.214035,79.1666667 L202.091228,79.1666667 L202.091228,142.5 C202.091228,142.5 195.248322,131.4913 191.652632,131.4913 C188.289257,131.4913 181.214035,142.5 181.214035,142.5 L181.214035,79.1666667 Z" id="Rectangle-2" stroke="#4A4A4A" stroke-width="3" fill="#FFFFFF"></path>
                <polygon id="Star" stroke="#4A4A4A" stroke-width="3" fill="#FFFFFF" points="191.652632 114.770832 185.492738 117.524072 181.537632 112.06622 174.82349 111.377119 174.132938 104.677083 168.663597 100.730286 171.422632 94.5833333 168.663597 88.436381 174.132938 84.4895838 174.82349 77.7895473 181.537632 77.1004462 185.492738 71.642595 191.652632 74.3958342 197.812525 71.642595 201.767631 77.1004462 208.481773 77.7895473 209.172325 84.4895838 214.641666 88.436381 211.882631 94.5833333 214.641666 100.730286 209.172325 104.677083 208.481773 111.377119 201.767631 112.06622 197.812525 117.524072"></polygon>
                <path d="M82.2408363,20.8333333 L156.62115,20.8333333" id="Line" stroke="#9B9B9B" stroke-width="2" stroke-linecap="square"></path>
            </g>
        </g>
    </g>
</svg>