<?xml version="1.0" encoding="UTF-8"?>
<svg width="300px" height="300px" viewBox="0 0 300 300" version="1.1" xmlns="http://www.w3.org/2000/svg" xmlns:xlink="http://www.w3.org/1999/xlink">
    <!-- Generator: Sketch 40.3 (33839) - http://www.bohemiancoding.com/sketch -->
    <title>section-mail</title>
    <desc>Created with Sketch.</desc>
    <defs>
        <rect id="path-1" x="0" y="0" width="238" height="150" rx="8"></rect>
        <mask id="mask-2" maskContentUnits="userSpaceOnUse" maskUnits="objectBoundingBox" x="0" y="0" width="238" height="150" fill="white">
            <use xlink:href="#path-1"></use>
        </mask>
        <path d="M222.610526,48.9285714 L222.610526,45.0952381 C221.019365,45.0952381 219.729474,43.8080568 219.729474,42.2202381 C219.729474,40.6324194 221.019365,39.3452381 222.610526,39.3452381 L222.610526,35.5119048 C221.019365,35.5119048 219.729474,34.2247234 219.729474,32.6369048 C219.729474,31.0490861 221.019365,29.7619048 222.610526,29.7619048 L222.610526,25.9285714 C221.019365,25.9285714 219.729474,24.6413901 219.729474,23.0535714 C219.729474,21.4657528 221.019365,20.1785714 222.610526,20.1785714 L222.610526,16.3452381 C221.019365,16.3452381 219.729474,15.0580568 219.729474,13.4702381 C219.729474,13.4243441 219.730551,13.3787012 219.732683,13.3333333 L214.787317,13.3333333 C214.789449,13.3787012 214.790526,13.4243441 214.790526,13.4702381 C214.790526,15.0580568 213.500635,16.3452381 211.909474,16.3452381 C210.318312,16.3452381 209.028421,15.0580568 209.028421,13.4702381 C209.028421,13.4243441 209.029499,13.3787012 209.03163,13.3333333 L203.537493,13.3333333 C203.539624,13.3787012 203.540702,13.4243441 203.540702,13.4702381 C203.540702,15.0580568 202.250811,16.3452381 200.659649,16.3452381 C199.068488,16.3452381 197.778596,15.0580568 197.778596,13.4702381 C197.778596,13.4243441 197.779674,13.3787012 197.781805,13.3333333 L192.562054,13.3333333 C192.564186,13.3787012 192.565263,13.4243441 192.565263,13.4702381 C192.565263,15.0580568 191.275372,16.3452381 189.684211,16.3452381 C188.093049,16.3452381 186.803158,15.0580568 186.803158,13.4702381 C186.803158,13.4243441 186.804236,13.3787012 186.806367,13.3333333 L181.586616,13.3333333 C181.588747,13.3787012 181.589825,13.4243441 181.589825,13.4702381 C181.589825,15.0580568 180.299933,16.3452381 178.708772,16.3452381 L178.708772,20.1914405 C178.799085,20.1829258 178.890612,20.1785714 178.983158,20.1785714 C180.574319,20.1785714 181.864211,21.4657528 181.864211,23.0535714 C181.864211,24.6413901 180.574319,25.9285714 178.983158,25.9285714 C178.890612,25.9285714 178.799085,25.924217 178.708772,25.9157024 L178.708772,29.7747738 C178.799085,29.7662591 178.890612,29.7619048 178.983158,29.7619048 C180.574319,29.7619048 181.864211,31.0490861 181.864211,32.6369048 C181.864211,34.2247234 180.574319,35.5119048 178.983158,35.5119048 C178.890612,35.5119048 178.799085,35.5075504 178.708772,35.4990357 L178.708772,39.3581071 C178.799085,39.3495925 178.890612,39.3452381 178.983158,39.3452381 C180.574319,39.3452381 181.864211,40.6324194 181.864211,42.2202381 C181.864211,43.8080568 180.574319,45.0952381 178.983158,45.0952381 C178.890612,45.0952381 178.799085,45.0908837 178.708772,45.0823691 L178.708772,48.9285714 C180.253943,48.9285714 181.515007,50.1424192 181.586616,51.6666667 L186.806367,51.6666667 C186.877975,50.1424192 188.13904,48.9285714 189.684211,48.9285714 C191.229381,48.9285714 192.490446,50.1424192 192.562054,51.6666667 L197.781805,51.6666667 C197.853414,50.1424192 199.114478,48.9285714 200.659649,48.9285714 C202.20482,48.9285714 203.465885,50.1424192 203.537493,51.6666667 L208.757244,51.6666667 C208.828852,50.1424192 210.089917,48.9285714 211.635088,48.9285714 C213.180259,48.9285714 214.441323,50.1424192 214.512931,51.6666667 L219.732683,51.6666667 C219.804291,50.1424192 221.065356,48.9285714 222.610526,48.9285714 L222.610526,48.9285714 Z" id="path-3"></path>
        <mask id="mask-4" maskContentUnits="userSpaceOnUse" maskUnits="objectBoundingBox" x="0" y="0" width="43.9017544" height="38.3333333" fill="white">
            <use xlink:href="#path-3"></use>
        </mask>
    </defs>
    <g id="Cartes" stroke="none" stroke-width="1" fill="none" fill-rule="evenodd">
        <g id="section-mail">
            <circle id="Oval-2" fill-opacity="0.3" fill="#DBA6D7" cx="150" cy="150" r="140"></circle>
            <g id="enveloppe" transform="translate(30.000000, 74.000000)">
                <use id="Rectangle" stroke="#4A4A4A" mask="url(#mask-2)" stroke-width="10" fill="#FFFFFF" xlink:href="#path-1"></use>
                <path d="M86.8491228,91.8333333 L207.101754,91.8333333 L208.101754,91.8333333 L208.101754,89.8333333 L207.101754,89.8333333 L86.8491228,89.8333333 L85.8491228,89.8333333 L85.8491228,91.8333333 L86.8491228,91.8333333 Z M86.8491228,101.833333 L207.101754,101.833333 L208.101754,101.833333 L208.101754,99.8333333 L207.101754,99.8333333 L86.8491228,99.8333333 L85.8491228,99.8333333 L85.8491228,101.833333 L86.8491228,101.833333 Z M86.8491228,112.666667 L207.101754,112.666667 L208.101754,112.666667 L208.101754,110.666667 L207.101754,110.666667 L86.8491228,110.666667 L85.8491228,110.666667 L85.8491228,112.666667 L86.8491228,112.666667 Z M86.8491228,122.666667 L207.101754,122.666667 L208.101754,122.666667 L208.101754,120.666667 L207.101754,120.666667 L86.8491228,120.666667 L85.8491228,120.666667 L85.8491228,122.666667 L86.8491228,122.666667 Z" id="Combined-Shape" stroke="#9B9B9B" stroke-width="2" stroke-linecap="square"></path>
                <use id="Combined-Shape" stroke="#4A4A4A" mask="url(#mask-4)" stroke-width="6" fill="#FFFFFF" xlink:href="#path-3"></use>
                <g id="Group-4" transform="translate(107.726316, 20.000000)" stroke="#4A4A4A" stroke-width="4" stroke-linecap="square">
                    <path d="M0.337236251,7.17213115 C0.337236251,7.17213115 8.52044094,0.294761212 14.3270949,0.294761212 C21.1010399,0.294761212 27.3167257,7.17213115 34.0111769,7.17213115 C40.705628,7.17213115 45.5362849,0.294761212 53.0449058,0.294761212 C61.7253252,0.294761212 64.0921837,7.17213115 71.1917898,7.17213115 C78.2913959,7.17213115 84.9887718,0.294761212 84.9887718,0.294761212" id="Line"></path>
                    <path d="M0.340715789,13.707971 C0.340715789,13.707971 8.52392048,6.83060109 14.3305744,6.83060109 C21.1045194,6.83060109 27.3202053,13.707971 34.0146564,13.707971 C40.7091075,13.707971 45.5397644,6.83060109 53.0483854,6.83060109 C61.7288048,6.83060109 64.0956632,13.707971 71.1952693,13.707971 C78.2948754,13.707971 84.9922513,6.83060109 84.9922513,6.83060109" id="Line"></path>
                    <path d="M0.340715789,20.5385721 C0.340715789,20.5385721 8.52392048,13.6612022 14.3305744,13.6612022 C21.1045194,13.6612022 27.3202053,20.5385721 34.0146564,20.5385721 C40.7091075,20.5385721 45.5397644,13.6612022 53.0483854,13.6612022 C61.7288048,13.6612022 64.0956632,20.5385721 71.1952693,20.5385721 C78.2948754,20.5385721 84.9922513,13.6612022 84.9922513,13.6612022" id="Line"></path>
                </g>
                <path d="M16.8749383,16 L72.6526316,16 L73.6526316,16 L73.6526316,14 L72.6526316,14 L16.8749383,14 L15.8749383,14 L15.8749383,16 L16.8749383,16 Z M16.8749383,28.5 L72.6526316,28.5 L73.6526316,28.5 L73.6526316,26.5 L72.6526316,26.5 L16.8749383,26.5 L15.8749383,26.5 L15.8749383,28.5 L16.8749383,28.5 Z M16.8749383,41 L72.6526316,41 L73.6526316,41 L73.6526316,39 L72.6526316,39 L16.8749383,39 L15.8749383,39 L15.8749383,41 L16.8749383,41 Z" id="Combined-Shape" stroke="#9B9B9B" stroke-width="2" stroke-linecap="square"></path>
            </g>
        </g>
    </g>
</svg>