<?xml version="1.0" encoding="UTF-8"?>
<svg width="358px" height="150px" viewBox="0 0 358 150" version="1.1" xmlns="http://www.w3.org/2000/svg" xmlns:xlink="http://www.w3.org/1999/xlink">
    <!-- Generator: Sketch 40.3 (33839) - http://www.bohemiancoding.com/sketch -->
    <title>social-youtube</title>
    <desc>Created with Sketch.</desc>
    <defs>
        <polygon id="path-1" points="0.295713114 149.956548 213.587011 149.956548 213.587011 0.659283101 106.941362 0.659283101 0.295713114 0.659283101 0.295713114 149.956548"></polygon>
        <polygon id="path-3" points="0.042856973 0.0849996631 0.042856973 97.7538983 85.713946 97.7538983 85.713946 0.0849996631 0.042856973 0.0849996631"></polygon>
    </defs>
    <g id="Symbols" stroke="none" stroke-width="1" fill="none" fill-rule="evenodd">
        <g id="social-youtube" transform="translate(-20.000000, -20.000000)">
            <g transform="translate(20.000000, 20.000000)">
                <g id="Group-3" transform="translate(144.285142, 0.000000)">
                    <mask id="mask-2" fill="white">
                        <use xlink:href="#path-1"></use>
                    </mask>
                    <g id="Clip-2"></g>
                    <path d="M211.457019,32.8762983 C211.457019,32.8762983 209.372742,18.2442134 202.977767,11.8006675 C194.867799,3.34427246 185.774978,3.30141549 181.606423,2.80713173 C151.760113,0.659283101 106.988862,0.659283101 106.988862,0.659283101 L106.895291,0.659283101 C106.895291,0.659283101 62.1233252,0.659283101 32.2770149,2.80713173 C28.1070315,3.30141549 19.0177818,3.34427246 10.9056711,11.8006675 C4.50998212,18.2442134 2.4285618,32.8762983 2.4285618,32.8762983 C2.4285618,32.8762983 0.295713114,50.058373 0.295713114,67.2418763 L0.295713114,83.3510982 C0.295713114,100.532459 2.4285618,117.714533 2.4285618,117.714533 C2.4285618,117.714533 4.50998212,132.345904 10.9056711,138.790164 C19.0177818,147.248702 29.6777395,146.979417 34.423435,147.865128 C51.4869388,149.495836 106.941719,149.999405 106.941719,149.999405 C106.941719,149.999405 151.760113,149.932263 181.606423,147.785843 C185.774978,147.29013 194.867799,147.248702 202.977767,138.790164 C209.372742,132.345904 211.457019,117.714533 211.457019,117.714533 C211.457019,117.714533 213.587011,100.532459 213.587011,83.3510982 L213.587011,67.2418763 C213.587011,50.058373 211.457019,32.8762983 211.457019,32.8762983" id="Fill-1" fill="#0A0A08" mask="url(#mask-2)"></path>
                </g>
                <path d="M133.570899,121.51309 L119.999524,121.51309 L119.999524,113.655978 C114.854545,119.553098 110.493133,122.531657 105.738867,122.531657 C101.567455,122.531657 98.6710375,120.563808 97.2203289,117.008822 C96.3389039,114.846688 95.7139063,111.471701 95.7139063,106.513149 L95.7139063,49.3705186 L109.285281,49.3705186 L109.285281,102.941735 L109.285281,107.941715 C109.601708,109.946707 110.453134,110.678847 112.178841,110.678847 C114.776688,110.678847 117.127393,108.421713 119.999524,104.370301 L119.999524,49.3705186 L133.570899,49.3705186 L133.570899,121.51309" id="Fill-4" fill="#0A0A08"></path>
                <g id="Group-8" transform="translate(0.000000, 24.999901)">
                    <mask id="mask-4" fill="white">
                        <use xlink:href="#path-3"></use>
                    </mask>
                    <g id="Clip-6"></g>
                    <path d="M72.1425712,75.0847024 C72.8568541,82.2275312 70.6411486,85.7718029 66.4268796,85.7718029 C62.2133248,85.7718029 59.9997622,82.2275312 60.7140451,75.0847024 L60.7140451,46.5133871 C59.9997622,39.3705582 62.2140391,36.0227144 66.4283081,36.0227144 C70.6425771,36.0227144 72.8639969,39.3705582 72.149714,46.5133871 L72.1425712,75.0847024 L72.1425712,75.0847024 Z M85.713946,47.9419528 C85.713946,40.2326977 84.1653807,34.4434349 81.4282487,30.7991636 C77.8125487,25.8648975 72.1425712,23.8449055 66.4283081,23.8449055 C59.9604766,23.8449055 55.0383533,25.8648975 51.4283676,30.7991636 C48.6476643,34.4434349 47.1562417,40.2955546 47.1562417,48.0048097 L47.1426703,73.6561366 C47.1426703,81.3225348 48.4690936,86.6196567 51.2505111,90.2282138 C54.8604968,95.14748 60.7140451,97.7538983 66.4283081,97.7538983 C72.1425712,97.7538983 78.0989762,95.14748 81.7139618,90.2282138 C84.4510938,86.6196567 85.713946,81.3225348 85.713946,73.6561366 L85.713946,47.9419528 L85.713946,47.9419528 Z" id="Fill-5" fill="#0A0A08" mask="url(#mask-4)"></path>
                    <path d="M32.1427297,57.2276303 L32.1427297,96.5131889 L17.8570721,96.5131889 L17.8570721,57.2276303 C17.8570721,57.2276303 3.05355933,9.06282122 0,0.0849996631 L14.9999405,0.0849996631 L25.0249008,37.7105648 L34.9998613,0.0849996631 L49.9998018,0.0849996631 L32.1427297,57.2276303" id="Fill-7" fill="#0A0A08" mask="url(#mask-4)"></path>
                </g>
                <path d="M314.284469,69.3411537 C314.284469,62.6654659 316.115176,60.8447588 320.43373,60.8447588 C324.720856,60.8447588 326.427278,62.8283224 326.427278,69.4304391 L326.427278,77.227551 L314.284469,77.2411224 L314.284469,69.3411537 L314.284469,69.3411537 Z M340.023652,87.9417943 L340.020795,73.3397093 C340.020795,65.7111681 338.518658,60.1304759 335.815098,56.5204903 C332.190112,51.6362239 327.040847,49.0512341 320.553729,49.0512341 C313.952327,49.0512341 308.803062,51.6362239 305.063077,56.5204903 C302.315945,60.1304759 300.713094,66.0275954 300.713094,73.6561366 L300.713094,98.6560375 C300.713094,106.241007 302.47523,111.550986 305.222362,115.122401 C308.960918,119.999524 314.110184,122.4338 320.875157,122.4338 C327.631559,122.4338 332.937966,119.879525 336.515095,114.696688 C338.087231,112.40884 339.102942,109.815279 339.539368,106.948862 C339.655797,105.653867 339.998652,102.704593 339.998652,98.5374666 L339.998652,96.5131889 L326.427992,96.5131889 C326.427992,101.70174 326.450849,104.786013 326.330849,105.49101 C325.592995,108.947425 323.737288,110.678847 320.553729,110.678847 C316.115176,110.678847 314.240183,107.360289 314.284469,100.768886 L314.284469,87.9417943 L340.023652,87.9417943 L340.023652,87.9417943 Z" id="Fill-9" fill="#FFFFFF"></path>
                <path d="M278.570324,100.798886 C278.570324,107.941715 276.88676,110.678847 273.157489,110.678847 C271.028211,110.678847 268.575364,109.583137 266.412515,107.421003 L266.427515,64.1026031 C268.58965,61.9683258 271.028211,60.8447588 273.157489,60.8447588 C276.88676,60.8447588 278.570324,62.9418934 278.570324,70.0847222 L278.570324,100.798886 L278.570324,100.798886 Z M280.075318,48.9390917 C275.318194,48.9390917 270.589642,51.8647944 266.412515,57.0047741 L266.427515,25.7991835 L253.570424,25.7991835 L253.570424,121.51309 L266.427515,121.51309 L266.445372,114.32169 C270.76607,119.667383 275.47748,122.4338 280.075318,122.4338 C285.224584,122.4338 288.987426,119.677383 290.713133,114.370261 C291.576701,111.344559 292.141699,106.686006 292.141699,100.084603 L292.141699,71.513288 C292.141699,64.7526005 291.275274,60.1304759 290.411706,57.259773 C288.685999,51.9133657 285.224584,48.9390917 280.075318,48.9390917 L280.075318,48.9390917 Z" id="Fill-10" fill="#FFFFFF"></path>
                <path d="M242.85618,121.51309 L229.284805,121.51309 L229.284805,113.655978 C224.139826,119.553098 219.778415,122.531657 215.024148,122.531657 C210.852736,122.531657 207.956319,120.563808 206.50561,117.008822 C205.624185,114.846688 204.999187,111.471701 204.999187,106.513149 L204.999187,50.0848015 L218.570562,50.0848015 L218.570562,102.941735 L218.570562,107.941715 C218.88699,109.946707 219.738415,110.678847 221.464122,110.678847 C224.061969,110.678847 226.412674,108.421713 229.284805,104.370301 L229.284805,50.0848015 L242.85618,50.0848015 L242.85618,121.51309" id="Fill-11" fill="#FFFFFF"></path>
                <polyline id="Fill-12" fill="#FFFFFF" points="191.427813 121.51309 177.142155 121.51309 177.142155 39.3705582 162.142214 39.3705582 162.142214 25.8141834 207.142036 25.7991835 207.142036 39.3705582 191.427813 39.3705582 191.427813 121.51309"></polyline>
            </g>
        </g>
    </g>
</svg>