<?xml version="1.0" encoding="UTF-8"?>
<svg width="117px" height="150px" viewBox="0 0 117 150" version="1.1" xmlns="http://www.w3.org/2000/svg" xmlns:xlink="http://www.w3.org/1999/xlink">
    <!-- Generator: Sketch 41.1 (35376) - http://www.bohemiancoding.com/sketch -->
    <title>social-500px</title>
    <desc>Created with Sketch.</desc>
    <defs></defs>
    <g id="Symbols" stroke="none" stroke-width="1" fill="none" fill-rule="evenodd">
        <g id="social-500px" transform="translate(-20.000000, -20.000000)" fill="#0A0A08">
            <path d="M134.669861,144.676997 L134.670161,144.676997 C133.611761,143.621597 132.712961,142.998497 131.922161,142.771697 C131.120261,142.541297 130.404161,142.712897 129.850961,143.267597 L129.330461,143.787197 C123.879161,149.238797 117.531461,153.518897 110.463461,156.508396 C103.149162,159.601996 95.3770618,161.170696 87.363162,161.170696 C79.3489622,161.170696 71.5771624,159.601996 64.2631626,156.508396 C57.1957628,153.519197 50.8483629,149.239397 45.3970631,143.787497 C39.7174632,138.108197 35.4376634,131.761097 32.6767634,124.922297 C29.9845635,118.254197 29.1052635,113.238798 28.8163635,111.590898 C28.7893635,111.436398 28.7680635,111.314298 28.7512635,111.226098 C28.3807635,109.285398 26.5945636,109.149798 24.0274637,109.542498 C22.9600637,109.705698 19.7113638,110.202798 20.0206638,112.540098 L20.0281638,112.593498 C20.8882637,118.003997 22.4074637,123.309197 24.5443636,128.361197 C27.9787635,136.480997 32.8939634,143.771597 39.1537633,150.030797 C45.4135631,156.290896 52.7044629,161.206096 60.8239627,164.639896 C69.2299625,168.196696 78.1591622,169.999996 87.363162,169.999996 C96.5623618,169.999996 105.491862,168.195796 113.902661,164.637196 C122.019461,161.204596 129.310361,156.288496 135.573161,150.025397 C135.587561,150.010997 135.929561,149.671697 136.116761,149.467697 C136.805861,148.717397 137.405561,147.404597 134.669861,144.676997 Z M87.278262,36.0712996 C78.4834622,36.0712996 69.1279625,37.8466995 62.2543627,40.8199995 C61.5196627,41.1076994 61.0804627,41.6977994 60.9838627,42.5269994 C60.8935627,43.3090994 61.1047627,44.3410994 61.6303627,45.6838993 C62.0566627,46.7731993 63.1888626,49.6666992 65.3809626,48.8305992 C72.4156624,46.1470993 80.1922622,44.6692994 87.278262,44.6692994 C95.3077618,44.6692994 103.094862,46.2409993 110.423861,49.3405992 C116.247161,51.8041992 121.741961,55.3627991 127.715861,60.5392989 C128.151461,60.9169989 128.613761,61.1083989 129.089861,61.1083989 C130.254461,61.1083989 131.371661,59.964199 132.327161,58.891999 C133.922261,57.102499 135.017861,55.6150991 133.446161,54.1264991 C127.741361,48.7222992 121.489961,44.6851994 113.772761,41.4217994 C105.379962,37.8715995 96.4657618,36.0712996 87.278262,36.0712996 Z M75.2884623,110.433798 C75.2989623,111.427698 76.2085623,112.299198 76.7518623,112.819998 L76.9225623,112.984698 C77.8543622,113.901198 78.7420622,114.365898 79.5604622,114.365898 C80.2381622,114.365898 80.6557622,114.045498 80.8036622,113.907798 C81.2140622,113.526498 85.857162,108.821898 86.300262,108.373098 L91.4782619,113.534298 C91.9576619,114.074298 92.4787619,114.344898 93.0859618,114.361698 C93.9127618,114.361698 94.8139618,113.869998 95.7640618,112.900398 C97.9984617,110.618898 96.8803617,109.388598 96.3397618,108.793998 L91.0933619,103.545798 L96.5647618,98.035698 C97.7644617,96.737298 96.7051617,95.357598 95.6482618,94.3006981 C94.1137618,92.7658981 92.6332619,92.3698981 91.6840619,93.2443981 L86.243862,98.6941979 L80.7421622,93.1909981 C80.4505622,92.9116981 80.0827622,92.7640981 79.6786622,92.7640981 C78.9454622,92.7640981 78.0781622,93.2596981 77.1001623,94.2376981 C75.4081623,95.929398 75.0454623,97.098798 75.9259623,98.031798 L81.4291621,103.518198 L75.9583623,108.998598 C75.5083623,109.447998 75.2830623,109.930698 75.2884623,110.433798 Z M40.4008632,118.558997 C40.4338632,118.649897 41.2108632,120.798797 41.6611632,121.863797 C44.1328631,127.708097 47.672563,132.957797 52.1818629,137.467397 C56.6881628,141.973097 61.9384627,145.512497 67.7875625,147.986297 C73.8424623,150.547697 80.2729622,151.846397 86.900562,151.846397 C93.5269618,151.846397 99.9574617,150.547397 106.013562,147.985697 C111.860261,145.512797 117.110861,141.973097 121.618961,137.464997 C126.126761,132.957797 129.666161,127.707197 132.139661,121.859897 C134.701061,115.804097 135.999761,109.373298 135.999761,102.746598 C135.999761,96.119598 134.701061,89.6887982 132.139661,83.6335983 C129.666761,77.7865985 126.127061,72.5359986 121.618961,68.0278987 C117.112361,63.5209989 111.861761,59.981299 106.013562,57.507199 C99.9580617,54.9457991 93.5275618,53.6470991 86.900562,53.6470991 C80.1949622,53.6470991 73.4947624,54.9817991 67.5238625,57.507199 C62.7511626,59.526199 54.6727628,64.7239988 49.944163,69.6007987 L49.916263,69.6292987 L49.916263,29.2210998 L117.794261,29.2204998 C120.264461,29.1934998 120.264461,25.7440998 120.264461,24.6103999 C120.264461,23.4772999 120.264461,20.0288 117.786761,20.0006 L44.3926631,20 C42.3946632,20 41.1577632,21.662 41.1577632,23.2018999 L41.1577632,80.0785984 C41.1577632,81.9133984 43.4434631,83.2384983 45.5671631,83.6926983 C49.714663,84.5785983 50.672863,83.2528983 51.6886629,81.8500984 L51.8233629,81.6640984 C53.3740629,79.3603984 58.2199628,74.4832986 58.2685628,74.4346986 C65.8309626,66.8722988 75.9427623,62.7076989 86.740662,62.7076989 C97.4869617,62.7076989 107.569961,66.8722988 115.132361,74.4346986 C122.720261,82.0231984 126.899261,92.0776981 126.899261,102.746598 C126.899261,113.454198 122.741861,123.508397 115.192361,131.057897 C107.739461,138.510797 97.3276617,142.785197 86.627262,142.785197 C79.3795622,142.785197 72.3835624,140.854097 66.3907625,137.199497 L66.4162625,102.616098 C66.4162625,98.004798 68.4175625,92.9920981 71.7691624,89.2066982 C75.6013623,84.8791983 80.8825622,82.4959984 86.640462,82.4959984 C92.2165619,82.4959984 97.4242617,84.6127983 101.304762,88.4566982 C105.157362,92.2732981 107.278961,97.357998 107.278961,102.774498 C107.278961,114.331398 98.1913617,123.384197 86.590362,123.384197 C84.3538621,123.384197 80.2882622,122.395997 80.1211622,122.355197 C77.7787622,121.657697 76.7821623,124.909697 76.4542623,125.981597 C75.1933623,130.103897 77.0881623,130.921097 77.4808623,131.043197 C81.2140622,132.201797 83.6620621,132.421397 86.873262,132.421397 C103.250562,132.421397 116.574161,119.090897 116.574161,102.706098 C116.574161,86.4526983 103.258662,73.2292986 86.891562,73.2292986 C78.8764622,73.2292986 71.3467624,76.2931985 65.6899626,81.8563984 C60.3028627,87.1546982 57.2128628,94.2190981 57.2128628,101.236698 L57.2098628,101.410998 C57.1837628,102.286098 57.1666628,123.018197 57.1615628,129.821897 L57.1309628,129.787997 C54.0526629,126.379397 51.0100629,121.161797 48.992863,115.831097 C48.202063,113.741898 46.4158631,114.111798 43.9783631,114.862398 C42.9139632,115.190298 39.6745632,116.188097 40.3909632,118.529897 L40.4008632,118.558997 L40.4008632,118.558997 Z"></path>
        </g>
    </g>
</svg>