<?xml version="1.0" encoding="UTF-8"?>
<svg width="150px" height="150px" viewBox="0 0 150 150" version="1.1" xmlns="http://www.w3.org/2000/svg" xmlns:xlink="http://www.w3.org/1999/xlink">
    <!-- Generator: Sketch 40.3 (33839) - http://www.bohemiancoding.com/sketch -->
    <title>social-facebook</title>
    <desc>Created with Sketch.</desc>
    <defs></defs>
    <g id="Symbols" stroke="none" stroke-width="1" fill="none" fill-rule="evenodd">
        <g id="social-facebook" transform="translate(-20.000000, -20.000000)">
            <g transform="translate(20.000000, 20.000000)">
                <path d="M141.445522,149.690485 C145.998694,149.690485 149.689925,145.999254 149.689925,141.446082 L149.689925,8.55391791 C149.689925,3.99962687 145.998694,0.309514925 141.445522,0.309514925 L8.55447761,0.309514925 C3.99962687,0.309514925 0.309514925,3.99962687 0.309514925,8.55391791 L0.309514925,141.446082 C0.309514925,145.999254 3.99962687,149.690485 8.55447761,149.690485 L141.445522,149.690485" id="Fill-15" fill="#395185"></path>
                <path d="M103.379664,149.690485 L103.379664,91.8425373 L122.796828,91.8425373 L125.703918,69.2977612 L103.379664,69.2977612 L103.379664,54.9039179 C103.379664,48.3766791 105.191978,43.9287313 114.552425,43.9287313 L126.490858,43.9231343 L126.490858,23.7593284 C124.425,23.4850746 117.339179,22.8710821 109.094776,22.8710821 C91.8822761,22.8710821 80.0983209,33.3772388 80.0983209,52.6718284 L80.0983209,69.2977612 L60.6313433,69.2977612 L60.6313433,91.8425373 L80.0983209,91.8425373 L80.0983209,149.690485 L103.379664,149.690485" id="Fill-16" fill="#FFFFFF"></path>
            </g>
        </g>
    </g>
</svg>