<?xml version="1.0" encoding="UTF-8"?>
<svg width="150px" height="150px" viewBox="0 0 150 150" version="1.1" xmlns="http://www.w3.org/2000/svg" xmlns:xlink="http://www.w3.org/1999/xlink">
    <!-- Generator: Sketch 40.3 (33839) - http://www.bohemiancoding.com/sketch -->
    <title>social-twitter</title>
    <desc>Created with Sketch.</desc>
    <defs></defs>
    <g id="Symbols" stroke="none" stroke-width="1" fill="none" fill-rule="evenodd">
        <g id="social-twitter" transform="translate(-20.000000, -20.000000)">
            <g transform="translate(20.000000, 20.000000)">
                <g id="Dark_Blue" fill="#1DA1F2">
                    <circle id="Oval" cx="75" cy="75" r="75"></circle>
                </g>
                <g id="Logo__x2014__FIXED" transform="translate(33.375000, 42.750000)" fill="#FFFFFF">
                    <path d="M27.9,71.8125 C61.1625,71.8125 79.35,44.25 79.35,20.3625 C79.35,19.575 79.35,18.7875 79.3125,18.0375 C82.8375,15.4875 85.9125,12.3 88.35,8.6625 C85.125,10.0875 81.6375,11.0625 77.9625,11.5125 C81.7125,9.2625 84.5625,5.7375 85.9125,1.5 C82.425,3.5625 78.5625,5.0625 74.4375,5.8875 C71.1375,2.3625 66.45,0.1875 61.2375,0.1875 C51.2625,0.1875 43.1625,8.2875 43.1625,18.2625 C43.1625,19.6875 43.3125,21.075 43.65,22.3875 C28.6125,21.6375 15.3,14.4375 6.375,3.4875 C4.8375,6.15 3.9375,9.2625 3.9375,12.5625 C3.9375,18.825 7.125,24.375 12,27.6 C9.0375,27.525 6.2625,26.7 3.825,25.35 L3.825,25.575 C3.825,34.35 10.05,41.625 18.3375,43.3125 C16.8375,43.725 15.225,43.95 13.575,43.95 C12.4125,43.95 11.2875,43.8375 10.1625,43.6125 C12.45,50.8125 19.125,56.025 27.0375,56.175 C20.85,61.0125 13.05,63.9 4.575,63.9 C3.1125,63.9 1.6875,63.825 0.2625,63.6375 C8.175,68.8125 17.7,71.8125 27.9,71.8125" id="Shape"></path>
                </g>
            </g>
        </g>
    </g>
</svg>