<?xml version="1.0" encoding="UTF-8"?>
<svg width="150px" height="150px" viewBox="0 0 150 150" version="1.1" xmlns="http://www.w3.org/2000/svg" xmlns:xlink="http://www.w3.org/1999/xlink">
    <!-- Generator: Sketch 41.2 (35397) - http://www.bohemiancoding.com/sketch -->
    <title>social-pinterest</title>
    <desc>Created with Sketch.</desc>
    <defs>
        <polygon id="path-1" points="0 149.75 150 149.75 150 0 0 0"></polygon>
    </defs>
    <g id="Symbols" stroke="none" stroke-width="1" fill="none" fill-rule="evenodd">
        <g id="social-pinterest" transform="translate(-20.000000, -20.000000)">
            <g transform="translate(20.000000, 20.000000)">
                <g id="Group-3">
                    <mask id="mask-2" fill="white">
                        <use xlink:href="#path-1"></use>
                    </mask>
                    <g id="Clip-2"></g>
                    <path d="M150,75 C150,116.420833 116.420833,150 75,150 C33.5791667,150 0,116.420833 0,75 C0,33.5791667 33.5791667,0 75,0 C116.420833,0 150,33.5791667 150,75" id="Fill-1" fill="#FFFFFF" mask="url(#mask-2)"></path>
                </g>
                <path d="M74.9125,7.04166667 C37.3791667,7.04166667 6.95,37.4666667 6.95,75 C6.95,103.791667 24.8625,128.383333 50.1458333,138.283333 C49.55,132.908333 49.0125,124.658333 50.3791667,118.791667 C51.6166667,113.4875 58.35,85.0083333 58.35,85.0083333 C58.35,85.0083333 56.3166667,80.9375 56.3166667,74.9208333 C56.3166667,65.4708333 61.7916667,58.4166667 68.6125,58.4166667 C74.4125,58.4166667 77.2125,62.7666667 77.2125,67.9875 C77.2125,73.8208333 73.5,82.5375 71.5833333,90.6166667 C69.9833333,97.3791667 74.975,102.895833 81.6458333,102.895833 C93.725,102.895833 103.0125,90.1583333 103.0125,71.775 C103.0125,55.5041667 91.3208333,44.125 74.625,44.125 C55.2875,44.125 43.9375,58.6291667 43.9375,73.6208333 C43.9375,79.4583333 46.1875,85.725 48.9958333,89.1291667 C49.55,89.8 49.6333333,90.3916667 49.4666667,91.0791667 C48.95,93.225 47.8041667,97.8416667 47.5791667,98.7833333 C47.2833333,100.029167 46.5916667,100.291667 45.3041667,99.6958333 C36.8166667,95.7416667 31.5125,83.3333333 31.5125,73.3666667 C31.5125,51.9291667 47.0875,32.2416667 76.4166667,32.2416667 C99.9875,32.2416667 118.3125,49.0416667 118.3125,71.4916667 C118.3125,94.9125 103.541667,113.7625 83.0458333,113.7625 C76.1583333,113.7625 69.6875,110.183333 67.4708333,105.958333 C67.4708333,105.958333 64.0625,118.933333 63.2375,122.1125 C61.7,128.016667 57.5583333,135.416667 54.7875,139.929167 C61.1458333,141.895833 67.9041667,142.958333 74.9125,142.958333 C112.441667,142.958333 142.870833,112.533333 142.870833,75 C142.870833,37.4666667 112.441667,7.04166667 74.9125,7.04166667" id="Fill-4" fill="#AA252A"></path>
            </g>
        </g>
    </g>
</svg>