<?xml version="1.0" encoding="UTF-8"?>
<svg width="361px" height="150px" viewBox="0 0 361 150" version="1.1" xmlns="http://www.w3.org/2000/svg" xmlns:xlink="http://www.w3.org/1999/xlink">
    <!-- Generator: Sketch 41.2 (35397) - http://www.bohemiancoding.com/sketch -->
    <title>social-deviantart</title>
    <desc>Created with Sketch.</desc>
    <defs></defs>
    <g id="Symbols" stroke="none" stroke-width="1" fill="none" fill-rule="evenodd">
        <g id="social-deviantart" transform="translate(-20.000000, -20.000000)">
            <g transform="translate(20.000000, 20.000000)">
                <polygon id="Fill-1" fill="#FFFFFF" points="0 149.992188 360 149.992188 360 0 0 0"></polygon>
                <g id="Group" transform="translate(1.000000, 29.000000)">
                    <polyline id="Fill-3" fill="#45AD47" points="56.3444335 16.6402463 56.3444335 0.170689655 39.8744335 0.170689655 38.230936 1.82837438 30.4594581 16.6384729 28.0157143 18.2872906 0.278866995 18.2872906 0.278866995 40.9047783 15.5274384 40.9047783 16.8854187 42.5473892 0.278866995 74.2805911 0.278866995 90.7505911 16.7484236 90.7505911 18.3923645 89.0933498 26.1642857 74.2828079 28.6075862 72.6344335 56.3444335 72.6344335 56.3444335 50.0165025 41.0958621 50.0165025 39.7392118 48.3628079 56.3444335 16.6402463"></polyline>
                    <path d="M88.523202,75.0351724 L93.2023153,66.104335 L95.3609852,75.0351724 L88.523202,75.0351724 Z M88.9789655,50.0191626 L67.6644828,90.7505911 L80.3128079,90.7505911 L83.4056158,84.8234483 L97.6872414,84.8225616 L99.100197,90.7505911 L111.747635,90.7505911 L101.999704,50.0191626 L88.9789655,50.0191626 L88.9789655,50.0191626 Z" id="Fill-4" fill="#1F211F"></path>
                    <path d="M131.638966,69.0610345 L126.234975,69.0610345 L126.234975,60.8253695 L131.638966,60.8253695 C134.931724,60.8253695 136.182414,62.4728571 136.182414,64.9760099 C136.182414,67.4148768 134.931724,69.0610345 131.638966,69.0610345 Z M148.570493,64.7751724 C148.570493,55.4218227 142.244335,50.0191626 133.350739,50.0191626 L114.050394,50.0191626 L114.050394,90.7545813 L126.234975,90.7545813 L126.234975,78.8736946 L129.199655,78.8736946 L131.619901,78.8670443 L137.519113,90.7545813 L150.167882,90.7545813 L142.64601,76.3811823 C146.335123,74.0309852 148.570493,70.0474877 148.570493,64.7751724 L148.570493,64.7751724 Z" id="Fill-5" fill="#1F211F"></path>
                    <polyline id="Fill-6" fill="#1F211F" points="150.372709 50.0191626 150.372709 60.8173892 161.885616 60.8173892 161.885616 90.7545813 168.823153 90.7545813 174.060887 80.7344335 174.060887 60.8173892 184.503103 60.8173892 190.149163 50.0191626 150.372709 50.0191626"></polyline>
                    <polygon id="Fill-7" fill="#1F211F" points="218.633941 40.9003448 230.806995 40.9003448 230.806995 0.170689655 218.633941 0.170689655"></polygon>
                    <path d="M115.091379,0.191083744 L109.62133,10.6337438 L112.980148,10.6337438 C118.976897,10.6337438 122.773744,14.4665025 122.773744,20.530197 C122.773744,26.523399 118.976897,30.3574877 112.980148,30.3574877 L109.184187,30.3574877 L109.184187,11.4681281 L97.4083744,33.949064 L97.4083744,40.8941379 L113.792365,40.8941379 C126.994433,40.8941379 134.754384,32.9337931 134.754384,20.5297537 C134.754384,8.53625616 127.500739,0.700492611 115.091379,0.191083744" id="Fill-8" fill="#1F211F"></path>
                    <polyline id="Fill-9" fill="#1F211F" points="137.97399 40.9003448 169.063892 40.9003448 169.063892 30.1038916 150.146601 30.1038916 150.146601 25.7023153 167.539212 25.7023153 167.539212 15.3678325 150.146601 15.3678325 150.146601 10.9675862 169.063892 10.9675862 169.063892 0.170689655 137.97399 0.170689655 137.97399 40.9003448"></polyline>
                    <polyline id="Fill-10" fill="#1F211F" points="190.708227 24.8182759 184.807685 0.170689655 172.172217 0.170689655 181.925911 40.8990148 194.924039 40.8990148 216.25803 0.170689655 203.608374 0.170689655 190.708227 24.8182759"></polyline>
                    <polyline id="Fill-11" fill="#1F211F" points="319.965961 0.167586207 319.965961 10.9658128 331.478867 10.9658128 331.478867 40.9030049 338.416404 40.9030049 343.654581 30.8828571 343.654581 10.9658128 354.096798 10.9658128 359.742414 0.167586207 319.965961 0.167586207"></polyline>
                    <path d="M254.034975,25.1871429 L258.706552,16.2642857 L260.864778,25.1871429 L254.034975,25.1871429 Z M254.508916,0.170689655 L233.18867,40.8990148 L245.815714,40.8990148 L248.919606,34.9647783 L263.187488,34.964335 L264.60399,40.8990148 L277.234581,40.9003448 L267.486207,0.170689655 L254.508916,0.170689655 L254.508916,0.170689655 Z" id="Fill-12" fill="#1F211F"></path>
                    <polyline id="Fill-13" fill="#1F211F" points="305.18601 19.4639409 291.552118 0.170689655 279.54665 0.170689655 279.54665 40.9003448 291.716158 40.9003448 291.716158 20.2154187 306.81 40.9003448 317.356404 40.9003448 317.356404 0.170689655 305.18601 0.170689655 305.18601 19.4639409"></polyline>
                </g>
            </g>
        </g>
    </g>
</svg>