<?xml version="1.0" encoding="UTF-8"?>
<svg width="150px" height="150px" viewBox="0 0 150 150" version="1.1" xmlns="http://www.w3.org/2000/svg" xmlns:xlink="http://www.w3.org/1999/xlink">
    <!-- Generator: Sketch 41.1 (35376) - http://www.bohemiancoding.com/sketch -->
    <title>social-instagram</title>
    <desc>Created with Sketch.</desc>
    <defs></defs>
    <g id="Symbols" stroke="none" stroke-width="1" fill="none" fill-rule="evenodd">
        <g id="social-instagram" transform="translate(-20.000000, -20.000000)" fill="#0A0A08">
            <g transform="translate(20.000000, 20.000000)">
                <path d="M75,13.5330357 C95.0196429,13.5330357 97.3907738,13.6092262 105.296726,13.9699405 C112.606845,14.3035714 116.576786,15.525 119.219048,16.5514881 C122.718452,17.9116071 125.216369,19.5366071 127.839881,22.160119 C130.463393,24.783631 132.088393,27.2815476 133.448214,30.7809524 C134.475,33.4232143 135.696429,37.3931548 136.03006,44.7029762 C136.390774,52.6092262 136.466964,54.9803571 136.466964,75 C136.466964,95.0196429 136.390774,97.3907738 136.03006,105.296726 C135.696429,112.606845 134.475,116.576786 133.448214,119.219048 C132.088393,122.718452 130.463393,125.216369 127.839881,127.839881 C125.216369,130.463393 122.718452,132.088393 119.219048,133.448214 C116.576786,134.475 112.606845,135.696429 105.296726,136.03006 C97.3919643,136.390774 95.0208333,136.466964 75,136.466964 C54.9791667,136.466964 52.6080357,136.390774 44.7032738,136.03006 C37.3931548,135.696429 33.4232143,134.475 30.78125,133.448214 C27.2815476,132.088393 24.783631,130.463393 22.160119,127.839881 C19.5366071,125.216369 17.9116071,122.718452 16.5517857,119.219048 C15.525,116.576786 14.3035714,112.606845 13.9699405,105.297024 C13.6092262,97.3907738 13.5330357,95.0196429 13.5330357,75 C13.5330357,54.9803571 13.6092262,52.6092262 13.9699405,44.7032738 C14.3035714,37.3931548 15.525,33.4232143 16.5517857,30.7809524 C17.9116071,27.2815476 19.5366071,24.783631 22.160119,22.160119 C24.783631,19.5366071 27.2815476,17.9116071 30.78125,16.5514881 C33.4232143,15.525 37.3931548,14.3035714 44.7029762,13.9699405 C52.6092262,13.6092262 54.9803571,13.5330357 75,13.5330357 M75,0.0235119048 C54.6375,0.0235119048 52.0845238,0.109821429 44.0875,0.474702381 C36.1068452,0.838988095 30.6568452,2.10625 25.8875,3.95982143 C20.9571429,5.87589286 16.7758929,8.43958333 12.6077381,12.6077381 C8.43958333,16.7758929 5.87589286,20.9571429 3.95982143,25.8875 C2.10625,30.6568452 0.838988095,36.1068452 0.474702381,44.0875 C0.109821429,52.0842262 0.0238095238,54.6375 0.0238095238,75 C0.0238095238,95.3625 0.109821429,97.9157738 0.474702381,105.9125 C0.838988095,113.893155 2.10625,119.343155 3.95982143,124.1125 C5.87589286,129.04256 8.43958333,133.224107 12.6077381,137.392262 C16.7758929,141.560417 20.9571429,144.124107 25.8875,146.040179 C30.6568452,147.89375 36.1068452,149.161012 44.0875,149.525298 C52.0845238,149.890179 54.6375,149.97619 75,149.97619 C95.3625,149.97619 97.9157738,149.890179 105.9125,149.525298 C113.893155,149.161012 119.343155,147.89375 124.1125,146.040179 C129.042857,144.124107 133.224107,141.560417 137.392262,137.392262 C141.560417,133.224107 144.124107,129.042857 146.040179,124.1125 C147.89375,119.343155 149.161012,113.893155 149.525298,105.9125 C149.890179,97.9157738 149.976488,95.3625 149.976488,75 C149.976488,54.6375 149.890179,52.0842262 149.525298,44.0875 C149.161012,36.1068452 147.89375,30.6568452 146.040179,25.8875 C144.124107,20.9571429 141.560417,16.7758929 137.392262,12.6077381 C133.224107,8.43958333 129.042857,5.87589286 124.1125,3.95982143 C119.343155,2.10625 113.893155,0.838988095 105.9125,0.474702381 C97.9157738,0.109821429 95.3625,0.0235119048 75,0.0235119048" id="Fill-1"></path>
                <path d="M75,36.4985119 C53.7363095,36.4985119 36.4985119,53.7363095 36.4985119,75 C36.4985119,96.2636905 53.7363095,113.501488 75,113.501488 C96.2636905,113.501488 113.501488,96.2636905 113.501488,75 C113.501488,53.7363095 96.2636905,36.4985119 75,36.4985119 Z M75,99.9922619 C61.1973214,99.9922619 50.0077381,88.8026786 50.0077381,75 C50.0077381,61.1973214 61.1973214,50.0077381 75,50.0077381 C88.8026786,50.0077381 99.9922619,61.1973214 99.9922619,75 C99.9922619,88.8026786 88.8026786,99.9922619 75,99.9922619 L75,99.9922619 Z" id="Fill-2"></path>
                <path d="M124.019643,34.977381 C124.019643,39.9464286 119.991667,43.9747024 115.022619,43.9747024 C110.053571,43.9747024 106.025298,39.9464286 106.025298,34.977381 C106.025298,30.0083333 110.053571,25.9803571 115.022619,25.9803571 C119.991667,25.9803571 124.019643,30.0083333 124.019643,34.977381" id="Fill-3"></path>
            </g>
        </g>
    </g>
</svg>