<?xml version="1.0" encoding="UTF-8"?>
<svg width="154px" height="150px" viewBox="0 0 154 150" version="1.1" xmlns="http://www.w3.org/2000/svg" xmlns:xlink="http://www.w3.org/1999/xlink">
    <!-- Generator: Sketch 40.3 (33839) - http://www.bohemiancoding.com/sketch -->
    <title>social-github</title>
    <desc>Created with Sketch.</desc>
    <defs></defs>
    <g id="Symbols" stroke="none" stroke-width="1" fill="none" fill-rule="evenodd">
        <g id="social-github" transform="translate(-20.000000, -20.000000)" fill="#151513">
            <path d="M96.8929203,20 C54.4337525,20 20,54.427973 20,96.8999972 C20,130.874784 42.0321254,159.694581 72.5900744,169.862941 C76.4375529,170.571044 77.8396402,168.196539 77.8396402,166.157202 C77.8396402,164.335016 77.7735485,159.496312 77.7357819,153.080898 C56.3456897,157.726054 51.8325738,142.770916 51.8325738,142.770916 C48.3344369,133.886583 43.2925877,131.521518 43.2925877,131.521518 C36.3104764,126.753624 43.821321,126.848038 43.821321,126.848038 C51.5398821,127.390917 55.5997981,134.774072 55.5997981,134.774072 C62.4591678,146.523863 73.6003326,143.129689 77.9812652,141.161162 C78.6799484,136.194999 80.6674189,132.805545 82.862606,130.884226 C65.7873547,128.944023 47.8340286,122.344502 47.8340286,92.8779716 C47.8340286,84.4845894 50.8317573,77.6159893 55.7508648,72.2438471 C54.9577649,70.2989239 52.3188195,62.4767449 56.506198,51.8929638 C56.506198,51.8929638 62.959576,49.8253028 77.6508069,59.7765118 C83.7831683,58.0676229 90.3640089,57.2178992 96.9023619,57.1848544 C103.435994,57.2178992 110.012114,58.0676229 116.153917,59.7765118 C130.835706,49.8253028 137.279643,51.8929638 137.279643,51.8929638 C141.476463,62.4767449 138.837517,70.2989239 138.049138,72.2438471 C142.977687,77.6159893 145.951812,84.4845894 145.951812,92.8779716 C145.951812,122.420033 127.970161,128.92042 110.84298,130.822857 C113.599947,133.197362 116.0595,137.889726 116.0595,145.06517 C116.0595,155.342107 115.965084,163.636355 115.965084,166.157202 C115.965084,168.215421 117.353008,170.60881 121.252416,169.85822 C151.786761,159.666256 173.800003,130.865343 173.800003,96.8999972 C173.800003,54.427973 139.366251,20 96.8929203,20"></path>
        </g>
    </g>
</svg>