<?xml version="1.0" encoding="UTF-8"?>
<svg width="177px" height="150px" viewBox="0 0 177 150" version="1.1" xmlns="http://www.w3.org/2000/svg" xmlns:xlink="http://www.w3.org/1999/xlink">
    <!-- Generator: Sketch 41.1 (35376) - http://www.bohemiancoding.com/sketch -->
    <title>social-linkedin</title>
    <desc>Created with Sketch.</desc>
    <defs>
        <polygon id="path-1" points="0 149.75 176.120833 149.75 176.120833 0 0 0"></polygon>
    </defs>
    <g id="Symbols" stroke="none" stroke-width="1" fill="none" fill-rule="evenodd">
        <g id="social-linkedin" transform="translate(-20.000000, -20.000000)">
            <g transform="translate(20.000000, 20.000000)">
                <path d="M166.0625,119.995833 L164.320833,119.995833 L164.320833,116.466667 L166.529167,116.466667 C167.675,116.466667 168.975,116.654167 168.975,118.145833 C168.975,119.858333 167.6625,119.995833 166.0625,119.995833 Z M167.795833,121.045833 C169.558333,120.829167 170.483333,119.858333 170.483333,118.229167 C170.483333,116.241667 169.275,115.279167 166.8,115.279167 L162.829167,115.279167 L162.829167,125.725 L164.320833,125.725 L164.320833,121.175 L166.170833,121.175 L166.208333,121.233333 L169.079167,125.725 L170.675,125.725 L167.6,121.075 L167.795833,121.045833 L167.795833,121.045833 Z" id="Fill-1" fill="#1A1918"></path>
                <g id="Group-5">
                    <mask id="mask-2" fill="white">
                        <use xlink:href="#path-1"></use>
                    </mask>
                    <g id="Clip-3"></g>
                    <path d="M166.233333,129.1 C161.508333,129.1 157.795833,125.366667 157.795833,120.516667 C157.795833,115.670833 161.508333,111.929167 166.233333,111.929167 C170.966667,111.929167 174.670833,115.670833 174.670833,120.516667 C174.670833,125.366667 170.966667,129.1 166.233333,129.1 Z M166.233333,110.6375 C160.6875,110.6375 156.341667,114.975 156.341667,120.516667 C156.341667,126.0625 160.6875,130.395833 166.233333,130.395833 C171.775,130.395833 176.120833,126.0625 176.120833,120.516667 C176.120833,114.975 171.775,110.6375 166.233333,110.6375 L166.233333,110.6375 Z" id="Fill-2" fill="#1A1918" mask="url(#mask-2)"></path>
                    <path d="M138.9,0 L11.0625,0 C4.95833333,0 0,4.84166667 0,10.8166667 L0,139.175 C0,145.15 4.95833333,150 11.0625,150 L138.9,150 C145.016667,150 149.995833,145.15 149.995833,139.175 L149.995833,10.8166667 C149.995833,4.84166667 145.016667,0 138.9,0" id="Fill-4" fill="#0071A1" mask="url(#mask-2)"></path>
                </g>
                <path d="M33.3666667,20.65 C40.4833333,20.65 46.2583333,26.4291667 46.2583333,33.55 C46.2583333,40.675 40.4833333,46.4541667 33.3666667,46.4541667 C26.2208333,46.4541667 20.4583333,40.675 20.4583333,33.55 C20.4583333,26.4291667 26.2208333,20.65 33.3666667,20.65 L33.3666667,20.65 Z M22.225,127.816667 L44.4958333,127.816667 L44.4958333,56.2333333 L22.225,56.2333333 L22.225,127.816667 Z" id="Fill-6" fill="#FFFFFF"></path>
                <path d="M58.45,56.2333333 L79.775,56.2333333 L79.775,66.0208333 L80.0833333,66.0208333 C83.05,60.3916667 90.3083333,54.4583333 101.129167,54.4583333 C123.658333,54.4583333 127.820833,69.2791667 127.820833,88.5583333 L127.820833,127.816667 L105.575,127.816667 L105.575,93.0041667 C105.575,84.7041667 105.433333,74.025 94.0166667,74.025 C82.4375,74.025 80.6708333,83.0708333 80.6708333,92.4125 L80.6708333,127.816667 L58.45,127.816667 L58.45,56.2333333" id="Fill-7" fill="#FFFFFF"></path>
            </g>
        </g>
    </g>
</svg>