<?xml version="1.0" encoding="UTF-8"?>
<svg width="141px" height="141px" viewBox="0 0 141 141" version="1.1" xmlns="http://www.w3.org/2000/svg" xmlns:xlink="http://www.w3.org/1999/xlink">
    <!-- Generator: Sketch 41.2 (35397) - http://www.bohemiancoding.com/sketch -->
    <title>social-codepen</title>
    <desc>Created with Sketch.</desc>
    <defs></defs>
    <g id="Symbols" stroke="none" stroke-width="1" fill="none" fill-rule="evenodd">
        <g id="social-codepen" transform="translate(-21.000000, -29.000000)" fill="#1A1918">
            <g transform="translate(21.000000, 20.000000)">
                <path d="M70.36479,138.17286 C37.93749,138.17286 11.55669,111.79116 11.55669,79.36476 C11.55669,46.93866 37.93749,20.55666 70.36479,20.55666 C102.79089,20.55666 129.17169,46.93866 129.17169,79.36476 C129.17169,111.79116 102.79089,138.17286 70.36479,138.17286 M70.36479,9.00006 C31.50249,9.00006 9e-05,40.50276 9e-05,79.36476 C9e-05,118.22706 31.50249,149.72856 70.36479,149.72856 C109.22589,149.72856 140.72829,118.22706 140.72829,79.36476 C140.72829,40.50276 109.22589,9.00006 70.36479,9.00006" id="Fill-1"></path>
                <path d="M106.39335,85.62216 L97.03935,79.36476 L106.39335,73.10766 L106.39335,85.62216 Z M74.10345,112.14576 L74.10345,94.70586 L90.31395,83.86446 L103.39965,92.61606 L74.10345,112.14576 Z M70.36485,88.21056 L57.13965,79.36476 L70.36485,70.51896 L83.58885,79.36476 L70.36485,88.21056 Z M66.62505,112.14576 L37.32855,92.61606 L50.41545,83.86446 L66.62505,94.70586 L66.62505,112.14576 Z M34.33515,73.10766 L43.69005,79.36476 L34.33515,85.62216 L34.33515,73.10766 Z M66.62505,46.58376 L66.62505,64.02366 L50.41545,74.86746 L37.32855,66.11316 L66.62505,46.58376 Z M74.10345,46.58376 L103.39965,66.11316 L90.31395,74.86746 L74.10345,64.02366 L74.10345,46.58376 Z M113.83845,65.62116 C113.83065,65.56626 113.81685,65.51376 113.80785,65.45886 C113.78925,65.35326 113.77005,65.24796 113.74245,65.14506 C113.72625,65.08326 113.70345,65.02386 113.68425,64.96446 C113.65425,64.87266 113.62455,64.78116 113.58795,64.69206 C113.56245,64.63026 113.53305,64.56846 113.50455,64.50906 C113.46525,64.42416 113.42445,64.34166 113.37735,64.26186 C113.34315,64.20216 113.30655,64.14486 113.27115,64.08786 C113.22075,64.00986 113.16915,63.93426 113.11275,63.86106 C113.07195,63.80616 113.02845,63.75126 112.98495,63.69846 C112.92525,63.63006 112.86345,63.56136 112.79835,63.49716 C112.74945,63.44706 112.70085,63.39666 112.64955,63.35076 C112.58085,63.28896 112.51005,63.22926 112.43775,63.17226 C112.38195,63.12876 112.32675,63.08526 112.26855,63.04416 C112.24665,63.03036 112.22745,63.01206 112.20675,62.99826 L72.43815,36.48606 C71.18205,35.64846 69.54645,35.64846 68.29005,36.48606 L28.52175,62.99826 C28.50105,63.01206 28.48155,63.03036 28.45995,63.04416 C28.40145,63.08526 28.34655,63.12876 28.29165,63.17226 C28.21845,63.22926 28.14735,63.28896 28.08015,63.35076 C28.02735,63.39666 27.97935,63.44706 27.93015,63.49716 C27.86505,63.56136 27.80325,63.63006 27.74475,63.69846 C27.70005,63.75126 27.65655,63.80616 27.61545,63.86106 C27.56055,63.93426 27.50775,64.00986 27.45855,64.08786 C27.42075,64.14486 27.38535,64.20216 27.35115,64.26186 C27.30525,64.34166 27.26415,64.42416 27.22395,64.50906 C27.19545,64.56846 27.16575,64.63026 27.14055,64.69206 C27.10395,64.78116 27.07425,64.87266 27.04425,64.96446 C27.02475,65.02386 27.00315,65.08326 26.98605,65.14506 C26.95845,65.24796 26.94015,65.35326 26.92065,65.45886 C26.91165,65.51376 26.89785,65.56626 26.89095,65.62116 C26.86905,65.78136 26.85675,65.94396 26.85675,66.10866 L26.85675,92.62086 C26.85675,92.78556 26.86905,92.94816 26.89095,93.11076 C26.89785,93.16356 26.91165,93.21816 26.92065,93.27066 C26.94015,93.37626 26.95845,93.48126 26.98605,93.58446 C27.00315,93.64626 27.02475,93.70566 27.04425,93.76536 C27.07425,93.85656 27.10395,93.94836 27.14055,94.03986 C27.16575,94.10196 27.19545,94.16136 27.22395,94.22076 C27.26415,94.30506 27.30525,94.38756 27.35115,94.47006 C27.38535,94.52766 27.42075,94.58436 27.45855,94.64166 C27.50775,94.71966 27.56055,94.79526 27.61545,94.86846 C27.65655,94.92576 27.70005,94.97826 27.74475,95.03076 C27.80325,95.09946 27.86505,95.16816 27.93015,95.23236 C27.97935,95.28246 28.02735,95.33286 28.08015,95.37846 C28.14735,95.44086 28.21845,95.50026 28.29165,95.55726 C28.34655,95.60106 28.40145,95.64426 28.45995,95.68536 C28.48155,95.69916 28.50105,95.71746 28.52175,95.73096 L68.29005,122.24346 C68.91825,122.66226 69.64155,122.87286 70.36485,122.87286 C71.08695,122.87286 71.80995,122.66226 72.43815,122.24346 L112.20675,95.73096 C112.22745,95.71746 112.24665,95.69916 112.26855,95.68536 C112.32675,95.64426 112.38195,95.60106 112.43775,95.55726 C112.51005,95.50026 112.58085,95.44086 112.64955,95.37846 C112.70085,95.33286 112.74945,95.28246 112.79835,95.23236 C112.86345,95.16816 112.92525,95.09946 112.98495,95.03076 C113.02845,94.97826 113.07195,94.92576 113.11275,94.86846 C113.16915,94.79526 113.22075,94.71966 113.27115,94.64166 C113.30655,94.58436 113.34315,94.52766 113.37735,94.47006 C113.42445,94.38756 113.46525,94.30506 113.50455,94.22076 C113.53305,94.16136 113.56245,94.10196 113.58795,94.03986 C113.62455,93.94836 113.65425,93.85656 113.68425,93.76536 C113.70345,93.70566 113.72625,93.64626 113.74245,93.58446 C113.77005,93.48126 113.78925,93.37626 113.80785,93.27066 C113.81685,93.21816 113.83065,93.16356 113.83845,93.11076 C113.85915,92.94816 113.87205,92.78556 113.87205,92.62086 L113.87205,66.10866 C113.87205,65.94396 113.85915,65.78136 113.83845,65.62116 L113.83845,65.62116 Z" id="Fill-3"></path>
            </g>
        </g>
    </g>
</svg>