<?xml version="1.0" encoding="UTF-8" standalone="no"?><!DOCTYPE svg PUBLIC "-//W3C//DTD SVG 1.1//EN" "http://www.w3.org/Graphics/SVG/1.1/DTD/svg11.dtd"><svg width="100%" height="100%" viewBox="0 0 23 24" version="1.1" xmlns="http://www.w3.org/2000/svg" xmlns:xlink="http://www.w3.org/1999/xlink" xml:space="preserve" xmlns:serif="http://www.serif.com/" style="fill-rule:evenodd;clip-rule:evenodd;stroke-miterlimit:1.5;"><g id="address-book-flat-picker"><path d="M13.236,1l8.764,0.001l0,21.999l-20.625,0l-0.035,0l-0.035,-0.002l-0.035,-0.002l-0.035,-0.003l-0.034,-0.004l-0.034,-0.005l-0.034,-0.006l-0.034,-0.006l-0.033,-0.007l-0.033,-0.009l-0.033,-0.008l-0.032,-0.01l-0.032,-0.011l-0.032,-0.011l-0.032,-0.012l-0.031,-0.013l-0.03,-0.013l-0.03,-0.014l-0.03,-0.015l-0.03,-0.016l-0.029,-0.016l-0.028,-0.017l-0.028,-0.018l-0.028,-0.018l-0.027,-0.019l-0.027,-0.019l-0.026,-0.02l-0.026,-0.021l-0.025,-0.022l-0.025,-0.022l-0.024,-0.022l-0.024,-0.023l-0.023,-0.024l-0.022,-0.024l-0.022,-0.025l-0.022,-0.025l-0.021,-0.026l-0.02,-0.026l-0.019,-0.027l-0.019,-0.027l-0.018,-0.028l-0.018,-0.028l-0.017,-0.028l-0.016,-0.029l-0.016,-0.03l-0.015,-0.03l-0.014,-0.03l-0.013,-0.03l-0.013,-0.031l-0.012,-0.032l-0.011,-0.031l-0.011,-0.033l-0.01,-0.032l-0.008,-0.033l-0.009,-0.033l-0.007,-0.033l-0.006,-0.034l-0.006,-0.033l-0.005,-0.035l-0.004,-0.034l-0.003,-0.035l-0.002,-0.035l-0.002,-0.035l0,-0.035l0,-19.249l0,-0.033l0.002,-0.033l0.002,-0.034l0.004,-0.033l0.004,-0.033l0.005,-0.032l0.006,-0.033l0.007,-0.032l0.008,-0.033l0.008,-0.032l0.01,-0.031l0.01,-0.032l0.011,-0.031l0.012,-0.032l0.012,-0.03l0.014,-0.031l0.014,-0.03l0.015,-0.03l0.015,-0.03l0.017,-0.029l0.017,-0.029l0.017,-0.029l0.018,-0.028l0.019,-0.028l0.02,-0.027l0.02,-0.027l0.021,-0.026l0.021,-0.027l0.022,-0.025l0.023,-0.025l0.023,-0.025l0.024,-0.024l0.024,-0.024l0.024,-0.023l0.026,-0.022l0.025,-0.022l0.026,-0.022l0.027,-0.02l0.027,-0.021l0.027,-0.019l0.028,-0.019l0.028,-0.018l0.029,-0.018l0.029,-0.017l0.029,-0.016l0.03,-0.016l0.03,-0.015l0.03,-0.014l0.03,-0.013l0.031,-0.013l0.031,-0.012l0.032,-0.011l0.031,-0.01l0.032,-0.009l0.032,-0.009l0.033,-0.008l0.032,-0.007l0.033,-0.006l0.032,-0.005l0.033,-0.004l0.033,-0.003l0.033,-0.003l0.034,-0.001l0.033,-0.001l2.072,-0.001l2.893,0l6.896,0Zm-9.789,1l-2.064,0.001l-0.012,0l-0.005,0.001l-0.004,0l-0.006,0l-0.005,0.001l-0.006,0.001l-0.006,0.001l-0.006,0.002l-0.007,0.001l-0.007,0.002l-0.007,0.002l-0.008,0.003l-0.008,0.002l-0.008,0.003l-0.008,0.004l-0.009,0.004l-0.008,0.004l-0.009,0.004l-0.009,0.005l-0.009,0.005l-0.009,0.005l-0.009,0.006l-0.009,0.006l-0.01,0.006l-0.009,0.007l-0.009,0.006l-0.009,0.008l-0.009,0.007l-0.009,0.008l-0.009,0.008l-0.009,0.008l-0.008,0.008l-0.009,0.009l-0.008,0.009l-0.008,0.008l-0.007,0.009l-0.008,0.009l-0.007,0.009l-0.007,0.01l-0.007,0.009l-0.006,0.009l-0.006,0.009l-0.006,0.01l-0.005,0.009l-0.005,0.009l-0.005,0.009l-0.004,0.008l-0.004,0.009l-0.004,0.008l-0.003,0.008l-0.003,0.008l-0.003,0.008l-0.002,0.008l-0.002,0.007l-0.002,0.007l-0.002,0.006l-0.001,0.007l-0.001,0.006l-0.001,0.006l-0.001,0.005l0,0.005l-0.001,0.005l0,0.005l0,0.011l0,19.236l0,0.016l0.001,0.009l0,0.01l0.001,0.009l0.001,0.009l0.001,0.009l0.002,0.009l0.002,0.009l0.001,0.009l0.003,0.009l0.002,0.008l0.003,0.009l0.002,0.009l0.003,0.007l0.003,0.009l0.004,0.008l0.004,0.009l0.003,0.008l0.004,0.008l0.005,0.008l0.004,0.008l0.005,0.008l0.005,0.008l0.005,0.007l0.005,0.008l0.006,0.007l0.005,0.008l0.006,0.007l0.006,0.007l0.006,0.007l0.007,0.007l0.006,0.007l0.007,0.006l0.007,0.007l0.007,0.006l0.007,0.006l0.007,0.006l0.008,0.005l0.007,0.006l0.008,0.005l0.008,0.005l0.007,0.005l0.008,0.005l0.008,0.004l0.008,0.005l0.008,0.004l0.008,0.003l0.009,0.004l0.008,0.003l0.009,0.004l0.008,0.003l0.008,0.002l0.009,0.003l0.009,0.002l0.008,0.003l0.009,0.001l0.009,0.002l0.009,0.002l0.009,0.001l0.009,0.001l0.009,0.001l0.01,0l0.009,0.001l0.016,0l19.619,0l0,-19.999l-7.764,-0.001l-6.896,0l-2.893,0Z"/><path d="M19,22.55l0,-15.55l1.899,0c0.475,0 0.601,-0.169 0.601,-0.5l0,-5.5" style="fill:none;stroke:#000;stroke-width:1px;"/><path d="M19,22.579l0,-10.079l2,0.022c0,0 0.223,0.173 0.408,-0.013c0.185,-0.185 0.092,-0.509 0.092,-0.509l0,-4.125" style="fill:none;stroke:#000;stroke-width:1px;"/><path d="M19,23l0,-4l2,0c0,0 0.362,-0.21 0.445,-0.329c0.075,-0.106 0.055,-0.385 0.055,-0.385l0,-4.911" style="fill:none;stroke:#000;stroke-width:1px;"/><g><path d="M0.5,6.506c0.675,-0.675 1.676,-0.675 2.351,0" style="fill:none;stroke:#000;stroke-width:0.8px;stroke-linejoin:bevel;"/><path d="M0.5,11.006c0.675,-0.675 1.676,-0.675 2.351,0" style="fill:none;stroke:#000;stroke-width:0.8px;stroke-linejoin:bevel;"/><path d="M0.5,4.006c0.675,-0.675 1.676,-0.675 2.351,0" style="fill:none;stroke:#000;stroke-width:0.8px;stroke-linejoin:bevel;"/><path d="M0.5,8.506c0.675,-0.675 1.676,-0.675 2.351,0" style="fill:none;stroke:#000;stroke-width:0.8px;stroke-linejoin:bevel;"/><path d="M0.5,15.506c0.675,-0.675 1.676,-0.675 2.351,0" style="fill:none;stroke:#000;stroke-width:0.8px;stroke-linejoin:bevel;"/><path d="M0.5,20c0.675,-0.675 1.676,-0.675 2.351,0" style="fill:none;stroke:#000;stroke-width:0.8px;stroke-linejoin:bevel;"/><path d="M0.5,13.006c0.675,-0.675 1.676,-0.675 2.351,0" style="fill:none;stroke:#000;stroke-width:0.8px;stroke-linejoin:bevel;"/><path d="M0.5,17.506c0.675,-0.675 1.676,-0.675 2.351,0" style="fill:none;stroke:#000;stroke-width:0.8px;stroke-linejoin:bevel;"/></g><g><circle cx="9.75" cy="18.75" r="1.25"/><path d="M9.782,17.5l0.032,0.002l0.032,0.002l0.032,0.002l0.031,0.004l0.031,0.004l0.031,0.006l0.031,0.005l0.03,0.007l0.03,0.007l0.03,0.008l0.03,0.009l0.029,0.01l0.029,0.01l0.028,0.011l0.028,0.011l0.028,0.012l0.028,0.013l0.027,0.014l0.027,0.014l0.026,0.015l0.026,0.015l0.026,0.016l0.025,0.017l0.024,0.017l0.025,0.017l0.024,0.019l0.023,0.019l0.023,0.019l0.022,0.02l0.022,0.02l0.022,0.021l0.021,0.022l0.02,0.022l0.02,0.022l0.019,0.023l0.019,0.023l0.019,0.024l0.017,0.025l0.017,0.024l0.017,0.025l0.016,0.026l0.015,0.026l0.015,0.026l0.014,0.027l0.014,0.027l0.013,0.028l0.012,0.028l0.011,0.028l0.011,0.028l0.01,0.029l0.01,0.029l0.009,0.03l0.008,0.03l0.007,0.03l0.007,0.03l0.005,0.031l0.006,0.031l0.004,0.031l0.004,0.031l0.002,0.032l0.002,0.032l0.002,0.032l0,0.032l0,0.032l-0.002,0.032l-0.002,0.032l-0.002,0.032l-0.004,0.031l-0.004,0.031l-0.006,0.031l-0.005,0.031l-0.007,0.03l-0.007,0.03l-0.008,0.03l-0.009,0.03l-0.01,0.029l-0.01,0.029l-0.011,0.028l-0.011,0.028l-0.012,0.028l-0.013,0.028l-0.014,0.027l-0.014,0.027l-0.015,0.026l-0.015,0.026l-0.016,0.026l-0.017,0.025l-0.017,0.024l-0.017,0.025l-0.019,0.024l-0.019,0.023l-0.019,0.023l-0.02,0.022l-0.02,0.022l-0.021,0.022l-0.022,0.021l-0.022,0.02l-0.022,0.02l-0.023,0.019l-0.023,0.019l-0.024,0.019l-0.025,0.017l-0.024,0.017l-0.025,0.017l-0.026,0.016l-0.026,0.015l-0.026,0.015l-0.027,0.014l-0.027,0.014l-0.028,0.013l-0.028,0.012l-0.028,0.011l-0.028,0.011l-0.029,0.01l-0.029,0.01l-0.03,0.009l-0.03,0.008l-0.03,0.007l-0.03,0.007l-0.031,0.005l-0.031,0.006l-0.031,0.004l-0.031,0.004l-0.032,0.002l-0.032,0.002l-0.032,0.002l-0.032,0l-0.032,0l-0.032,-0.002l-0.032,-0.002l-0.032,-0.002l-0.031,-0.004l-0.031,-0.004l-0.031,-0.006l-0.031,-0.005l-0.03,-0.007l-0.03,-0.007l-0.03,-0.008l-0.03,-0.009l-0.029,-0.01l-0.029,-0.01l-0.028,-0.011l-0.028,-0.011l-0.028,-0.012l-0.028,-0.013l-0.027,-0.014l-0.027,-0.014l-0.026,-0.015l-0.026,-0.015l-0.026,-0.016l-0.025,-0.017l-0.024,-0.017l-0.025,-0.017l-0.024,-0.019l-0.023,-0.019l-0.023,-0.019l-0.022,-0.02l-0.022,-0.02l-0.022,-0.021l-0.021,-0.022l-0.02,-0.022l-0.02,-0.022l-0.019,-0.023l-0.019,-0.023l-0.019,-0.024l-0.017,-0.025l-0.017,-0.024l-0.017,-0.025l-0.016,-0.026l-0.015,-0.026l-0.015,-0.026l-0.014,-0.027l-0.014,-0.027l-0.013,-0.028l-0.012,-0.028l-0.011,-0.028l-0.011,-0.028l-0.01,-0.029l-0.01,-0.029l-0.009,-0.03l-0.008,-0.03l-0.007,-0.03l-0.007,-0.03l-0.005,-0.031l-0.006,-0.031l-0.004,-0.031l-0.004,-0.031l-0.002,-0.032l-0.002,-0.032l-0.002,-0.032l0,-0.032l0,-0.032l0.002,-0.032l0.002,-0.032l0.002,-0.032l0.004,-0.031l0.004,-0.031l0.006,-0.031l0.005,-0.031l0.007,-0.03l0.007,-0.03l0.008,-0.03l0.009,-0.03l0.01,-0.029l0.01,-0.029l0.011,-0.028l0.011,-0.028l0.012,-0.028l0.013,-0.028l0.014,-0.027l0.014,-0.027l0.015,-0.026l0.015,-0.026l0.016,-0.026l0.017,-0.025l0.017,-0.024l0.017,-0.025l0.019,-0.024l0.019,-0.023l0.019,-0.023l0.02,-0.022l0.02,-0.022l0.021,-0.022l0.022,-0.021l0.022,-0.02l0.022,-0.02l0.023,-0.019l0.023,-0.019l0.024,-0.019l0.025,-0.017l0.024,-0.017l0.025,-0.017l0.026,-0.016l0.026,-0.015l0.026,-0.015l0.027,-0.014l0.027,-0.014l0.028,-0.013l0.028,-0.012l0.028,-0.011l0.028,-0.011l0.029,-0.01l0.029,-0.01l0.03,-0.009l0.03,-0.008l0.03,-0.007l0.03,-0.007l0.031,-0.005l0.031,-0.006l0.031,-0.004l0.031,-0.004l0.032,-0.002l0.032,-0.002l0.032,-0.002l0.032,0l0.032,0Zm-0.039,1l-0.007,0l-0.006,0.001l-0.007,0l-0.006,0.001l-0.006,0.001l-0.006,0.001l-0.006,0.001l-0.006,0.001l-0.006,0.002l-0.006,0.001l-0.005,0.002l-0.006,0.002l-0.006,0.002l-0.005,0.002l-0.006,0.002l-0.005,0.003l-0.005,0.002l-0.006,0.003l-0.005,0.003l-0.005,0.003l-0.005,0.003l-0.006,0.003l-0.005,0.003l-0.005,0.004l-0.005,0.003l-0.005,0.004l-0.004,0.004l-0.005,0.004l-0.005,0.004l-0.004,0.004l-0.004,0.004l-0.005,0.005l-0.004,0.004l-0.004,0.005l-0.004,0.005l-0.004,0.005l-0.004,0.004l-0.003,0.005l-0.004,0.005l-0.003,0.005l-0.003,0.005l-0.003,0.005l-0.003,0.006l-0.003,0.005l-0.003,0.006l-0.002,0.005l-0.003,0.006l-0.002,0.005l-0.002,0.005l-0.002,0.006l-0.002,0.005l-0.002,0.007l-0.001,0.005l-0.002,0.006l-0.001,0.006l-0.001,0.006l-0.001,0.006l-0.001,0.006l-0.001,0.006l0,0.007l-0.001,0.007l0,0.006l0,0.007l0,0.007l0,0.006l0.001,0.007l0,0.007l0.001,0.006l0.001,0.006l0.001,0.006l0.001,0.006l0.001,0.006l0.002,0.006l0.001,0.005l0.002,0.007l0.002,0.005l0.002,0.006l0.002,0.005l0.002,0.005l0.003,0.006l0.002,0.005l0.003,0.006l0.003,0.005l0.003,0.006l0.003,0.005l0.003,0.005l0.003,0.005l0.004,0.005l0.003,0.005l0.004,0.004l0.004,0.005l0.004,0.005l0.004,0.005l0.004,0.004l0.005,0.005l0.004,0.004l0.004,0.004l0.005,0.004l0.005,0.004l0.004,0.004l0.005,0.004l0.005,0.003l0.005,0.004l0.005,0.003l0.006,0.003l0.005,0.003l0.005,0.003l0.005,0.003l0.006,0.003l0.005,0.002l0.005,0.003l0.006,0.002l0.005,0.002l0.006,0.002l0.006,0.002l0.005,0.002l0.006,0.001l0.006,0.002l0.006,0.001l0.006,0.001l0.006,0.001l0.006,0.001l0.006,0.001l0.007,0l0.006,0.001l0.007,0l0.007,0l0.007,0l0.007,0l0.006,-0.001l0.007,0l0.006,-0.001l0.006,-0.001l0.006,-0.001l0.006,-0.001l0.006,-0.001l0.006,-0.002l0.006,-0.001l0.005,-0.002l0.006,-0.002l0.006,-0.002l0.005,-0.002l0.006,-0.002l0.005,-0.003l0.005,-0.002l0.006,-0.003l0.005,-0.003l0.005,-0.003l0.005,-0.003l0.006,-0.003l0.005,-0.003l0.005,-0.004l0.005,-0.003l0.005,-0.004l0.004,-0.004l0.005,-0.004l0.005,-0.004l0.004,-0.004l0.004,-0.004l0.005,-0.005l0.004,-0.004l0.004,-0.005l0.004,-0.005l0.004,-0.005l0.004,-0.004l0.003,-0.005l0.004,-0.005l0.003,-0.005l0.003,-0.005l0.003,-0.005l0.003,-0.006l0.003,-0.005l0.003,-0.006l0.002,-0.005l0.003,-0.006l0.002,-0.005l0.002,-0.005l0.002,-0.006l0.002,-0.005l0.002,-0.007l0.001,-0.005l0.002,-0.006l0.001,-0.006l0.001,-0.006l0.001,-0.006l0.001,-0.006l0.001,-0.006l0,-0.007l0.001,-0.007l0,-0.006l0,-0.007l0,-0.007l0,-0.006l-0.001,-0.007l0,-0.007l-0.001,-0.006l-0.001,-0.006l-0.001,-0.006l-0.001,-0.006l-0.001,-0.006l-0.002,-0.006l-0.001,-0.005l-0.002,-0.007l-0.002,-0.005l-0.002,-0.006l-0.002,-0.005l-0.002,-0.005l-0.003,-0.006l-0.002,-0.005l-0.003,-0.006l-0.003,-0.005l-0.003,-0.006l-0.003,-0.005l-0.003,-0.005l-0.003,-0.005l-0.004,-0.005l-0.003,-0.005l-0.004,-0.004l-0.004,-0.005l-0.004,-0.005l-0.004,-0.005l-0.004,-0.004l-0.005,-0.005l-0.004,-0.004l-0.004,-0.004l-0.005,-0.004l-0.005,-0.004l-0.004,-0.004l-0.005,-0.004l-0.005,-0.003l-0.005,-0.004l-0.005,-0.003l-0.006,-0.003l-0.005,-0.003l-0.005,-0.003l-0.005,-0.003l-0.006,-0.003l-0.005,-0.002l-0.005,-0.003l-0.006,-0.002l-0.005,-0.002l-0.006,-0.002l-0.006,-0.002l-0.005,-0.002l-0.006,-0.001l-0.006,-0.002l-0.006,-0.001l-0.006,-0.001l-0.006,-0.001l-0.006,-0.001l-0.006,-0.001l-0.007,0l-0.006,-0.001l-0.007,0l-0.007,0l-0.007,0Z"/><circle cx="12.75" cy="18.75" r="1.25"/><path d="M12.782,17.5l0.032,0.002l0.032,0.002l0.032,0.002l0.031,0.004l0.031,0.004l0.031,0.006l0.031,0.005l0.03,0.007l0.03,0.007l0.03,0.008l0.03,0.009l0.029,0.01l0.029,0.01l0.028,0.011l0.028,0.011l0.028,0.012l0.028,0.013l0.027,0.014l0.027,0.014l0.026,0.015l0.026,0.015l0.026,0.016l0.025,0.017l0.024,0.017l0.025,0.017l0.024,0.019l0.023,0.019l0.023,0.019l0.022,0.02l0.022,0.02l0.022,0.021l0.021,0.022l0.02,0.022l0.02,0.022l0.019,0.023l0.019,0.023l0.019,0.024l0.017,0.025l0.017,0.024l0.017,0.025l0.016,0.026l0.015,0.026l0.015,0.026l0.014,0.027l0.014,0.027l0.013,0.028l0.012,0.028l0.011,0.028l0.011,0.028l0.01,0.029l0.01,0.029l0.009,0.03l0.008,0.03l0.007,0.03l0.007,0.03l0.005,0.031l0.006,0.031l0.004,0.031l0.004,0.031l0.002,0.032l0.002,0.032l0.002,0.032l0,0.032l0,0.032l-0.002,0.032l-0.002,0.032l-0.002,0.032l-0.004,0.031l-0.004,0.031l-0.006,0.031l-0.005,0.031l-0.007,0.03l-0.007,0.03l-0.008,0.03l-0.009,0.03l-0.01,0.029l-0.01,0.029l-0.011,0.028l-0.011,0.028l-0.012,0.028l-0.013,0.028l-0.014,0.027l-0.014,0.027l-0.015,0.026l-0.015,0.026l-0.016,0.026l-0.017,0.025l-0.017,0.024l-0.017,0.025l-0.019,0.024l-0.019,0.023l-0.019,0.023l-0.02,0.022l-0.02,0.022l-0.021,0.022l-0.022,0.021l-0.022,0.02l-0.022,0.02l-0.023,0.019l-0.023,0.019l-0.024,0.019l-0.025,0.017l-0.024,0.017l-0.025,0.017l-0.026,0.016l-0.026,0.015l-0.026,0.015l-0.027,0.014l-0.027,0.014l-0.028,0.013l-0.028,0.012l-0.028,0.011l-0.028,0.011l-0.029,0.01l-0.029,0.01l-0.03,0.009l-0.03,0.008l-0.03,0.007l-0.03,0.007l-0.031,0.005l-0.031,0.006l-0.031,0.004l-0.031,0.004l-0.032,0.002l-0.032,0.002l-0.032,0.002l-0.032,0l-0.032,0l-0.032,-0.002l-0.032,-0.002l-0.032,-0.002l-0.031,-0.004l-0.031,-0.004l-0.031,-0.006l-0.031,-0.005l-0.03,-0.007l-0.03,-0.007l-0.03,-0.008l-0.03,-0.009l-0.029,-0.01l-0.029,-0.01l-0.028,-0.011l-0.028,-0.011l-0.028,-0.012l-0.028,-0.013l-0.027,-0.014l-0.027,-0.014l-0.026,-0.015l-0.026,-0.015l-0.026,-0.016l-0.025,-0.017l-0.024,-0.017l-0.025,-0.017l-0.024,-0.019l-0.023,-0.019l-0.023,-0.019l-0.022,-0.02l-0.022,-0.02l-0.022,-0.021l-0.021,-0.022l-0.02,-0.022l-0.02,-0.022l-0.019,-0.023l-0.019,-0.023l-0.019,-0.024l-0.017,-0.025l-0.017,-0.024l-0.017,-0.025l-0.016,-0.026l-0.015,-0.026l-0.015,-0.026l-0.014,-0.027l-0.014,-0.027l-0.013,-0.028l-0.012,-0.028l-0.011,-0.028l-0.011,-0.028l-0.01,-0.029l-0.01,-0.029l-0.009,-0.03l-0.008,-0.03l-0.007,-0.03l-0.007,-0.03l-0.005,-0.031l-0.006,-0.031l-0.004,-0.031l-0.004,-0.031l-0.002,-0.032l-0.002,-0.032l-0.002,-0.032l0,-0.032l0,-0.032l0.002,-0.032l0.002,-0.032l0.002,-0.032l0.004,-0.031l0.004,-0.031l0.006,-0.031l0.005,-0.031l0.007,-0.03l0.007,-0.03l0.008,-0.03l0.009,-0.03l0.01,-0.029l0.01,-0.029l0.011,-0.028l0.011,-0.028l0.012,-0.028l0.013,-0.028l0.014,-0.027l0.014,-0.027l0.015,-0.026l0.015,-0.026l0.016,-0.026l0.017,-0.025l0.017,-0.024l0.017,-0.025l0.019,-0.024l0.019,-0.023l0.019,-0.023l0.02,-0.022l0.02,-0.022l0.021,-0.022l0.022,-0.021l0.022,-0.02l0.022,-0.02l0.023,-0.019l0.023,-0.019l0.024,-0.019l0.025,-0.017l0.024,-0.017l0.025,-0.017l0.026,-0.016l0.026,-0.015l0.026,-0.015l0.027,-0.014l0.027,-0.014l0.028,-0.013l0.028,-0.012l0.028,-0.011l0.028,-0.011l0.029,-0.01l0.029,-0.01l0.03,-0.009l0.03,-0.008l0.03,-0.007l0.03,-0.007l0.031,-0.005l0.031,-0.006l0.031,-0.004l0.031,-0.004l0.032,-0.002l0.032,-0.002l0.032,-0.002l0.032,0l0.032,0Zm-0.039,1l-0.007,0l-0.006,0.001l-0.007,0l-0.006,0.001l-0.006,0.001l-0.006,0.001l-0.006,0.001l-0.006,0.001l-0.006,0.002l-0.006,0.001l-0.005,0.002l-0.006,0.002l-0.006,0.002l-0.005,0.002l-0.006,0.002l-0.005,0.003l-0.005,0.002l-0.006,0.003l-0.005,0.003l-0.005,0.003l-0.005,0.003l-0.006,0.003l-0.005,0.003l-0.005,0.004l-0.005,0.003l-0.005,0.004l-0.004,0.004l-0.005,0.004l-0.005,0.004l-0.004,0.004l-0.004,0.004l-0.005,0.005l-0.004,0.004l-0.004,0.005l-0.004,0.005l-0.004,0.005l-0.004,0.004l-0.003,0.005l-0.004,0.005l-0.003,0.005l-0.003,0.005l-0.003,0.005l-0.003,0.006l-0.003,0.005l-0.003,0.006l-0.002,0.005l-0.003,0.006l-0.002,0.005l-0.002,0.005l-0.002,0.006l-0.002,0.005l-0.002,0.007l-0.001,0.005l-0.002,0.006l-0.001,0.006l-0.001,0.006l-0.001,0.006l-0.001,0.006l-0.001,0.006l0,0.007l-0.001,0.007l0,0.006l0,0.007l0,0.007l0,0.006l0.001,0.007l0,0.007l0.001,0.006l0.001,0.006l0.001,0.006l0.001,0.006l0.001,0.006l0.002,0.006l0.001,0.005l0.002,0.007l0.002,0.005l0.002,0.006l0.002,0.005l0.002,0.005l0.003,0.006l0.002,0.005l0.003,0.006l0.003,0.005l0.003,0.006l0.003,0.005l0.003,0.005l0.003,0.005l0.004,0.005l0.003,0.005l0.004,0.004l0.004,0.005l0.004,0.005l0.004,0.005l0.004,0.004l0.005,0.005l0.004,0.004l0.004,0.004l0.005,0.004l0.005,0.004l0.004,0.004l0.005,0.004l0.005,0.003l0.005,0.004l0.005,0.003l0.006,0.003l0.005,0.003l0.005,0.003l0.005,0.003l0.006,0.003l0.005,0.002l0.005,0.003l0.006,0.002l0.005,0.002l0.006,0.002l0.006,0.002l0.005,0.002l0.006,0.001l0.006,0.002l0.006,0.001l0.006,0.001l0.006,0.001l0.006,0.001l0.006,0.001l0.007,0l0.006,0.001l0.007,0l0.007,0l0.007,0l0.007,0l0.006,-0.001l0.007,0l0.006,-0.001l0.006,-0.001l0.006,-0.001l0.006,-0.001l0.006,-0.001l0.006,-0.002l0.006,-0.001l0.005,-0.002l0.006,-0.002l0.006,-0.002l0.005,-0.002l0.006,-0.002l0.005,-0.003l0.005,-0.002l0.006,-0.003l0.005,-0.003l0.005,-0.003l0.005,-0.003l0.006,-0.003l0.005,-0.003l0.005,-0.004l0.005,-0.003l0.005,-0.004l0.004,-0.004l0.005,-0.004l0.005,-0.004l0.004,-0.004l0.004,-0.004l0.005,-0.005l0.004,-0.004l0.004,-0.005l0.004,-0.005l0.004,-0.005l0.004,-0.004l0.003,-0.005l0.004,-0.005l0.003,-0.005l0.003,-0.005l0.003,-0.005l0.003,-0.006l0.003,-0.005l0.003,-0.006l0.002,-0.005l0.003,-0.006l0.002,-0.005l0.002,-0.005l0.002,-0.006l0.002,-0.005l0.002,-0.007l0.001,-0.005l0.002,-0.006l0.001,-0.006l0.001,-0.006l0.001,-0.006l0.001,-0.006l0.001,-0.006l0,-0.007l0.001,-0.007l0,-0.006l0,-0.007l0,-0.007l0,-0.006l-0.001,-0.007l0,-0.007l-0.001,-0.006l-0.001,-0.006l-0.001,-0.006l-0.001,-0.006l-0.001,-0.006l-0.002,-0.006l-0.001,-0.005l-0.002,-0.007l-0.002,-0.005l-0.002,-0.006l-0.002,-0.005l-0.002,-0.005l-0.003,-0.006l-0.002,-0.005l-0.003,-0.006l-0.003,-0.005l-0.003,-0.006l-0.003,-0.005l-0.003,-0.005l-0.003,-0.005l-0.004,-0.005l-0.003,-0.005l-0.004,-0.004l-0.004,-0.005l-0.004,-0.005l-0.004,-0.005l-0.004,-0.004l-0.005,-0.005l-0.004,-0.004l-0.004,-0.004l-0.005,-0.004l-0.005,-0.004l-0.004,-0.004l-0.005,-0.004l-0.005,-0.003l-0.005,-0.004l-0.005,-0.003l-0.006,-0.003l-0.005,-0.003l-0.005,-0.003l-0.005,-0.003l-0.006,-0.003l-0.005,-0.002l-0.005,-0.003l-0.006,-0.002l-0.005,-0.002l-0.006,-0.002l-0.006,-0.002l-0.005,-0.002l-0.006,-0.001l-0.006,-0.002l-0.006,-0.001l-0.006,-0.001l-0.006,-0.001l-0.006,-0.001l-0.006,-0.001l-0.007,0l-0.006,-0.001l-0.007,0l-0.007,0l-0.007,0Z"/><circle cx="15.75" cy="18.75" r="1.25"/><path d="M15.782,17.5l0.032,0.002l0.032,0.002l0.032,0.002l0.031,0.004l0.031,0.004l0.031,0.006l0.031,0.005l0.03,0.007l0.03,0.007l0.03,0.008l0.03,0.009l0.029,0.01l0.029,0.01l0.028,0.011l0.028,0.011l0.028,0.012l0.028,0.013l0.027,0.014l0.027,0.014l0.026,0.015l0.026,0.015l0.026,0.016l0.025,0.017l0.024,0.017l0.025,0.017l0.024,0.019l0.023,0.019l0.023,0.019l0.022,0.02l0.022,0.02l0.022,0.021l0.021,0.022l0.02,0.022l0.02,0.022l0.019,0.023l0.019,0.023l0.019,0.024l0.017,0.025l0.017,0.024l0.017,0.025l0.016,0.026l0.015,0.026l0.015,0.026l0.014,0.027l0.014,0.027l0.013,0.028l0.012,0.028l0.011,0.028l0.011,0.028l0.01,0.029l0.01,0.029l0.009,0.03l0.008,0.03l0.007,0.03l0.007,0.03l0.005,0.031l0.006,0.031l0.004,0.031l0.004,0.031l0.002,0.032l0.002,0.032l0.002,0.032l0,0.032l0,0.032l-0.002,0.032l-0.002,0.032l-0.002,0.032l-0.004,0.031l-0.004,0.031l-0.006,0.031l-0.005,0.031l-0.007,0.03l-0.007,0.03l-0.008,0.03l-0.009,0.03l-0.01,0.029l-0.01,0.029l-0.011,0.028l-0.011,0.028l-0.012,0.028l-0.013,0.028l-0.014,0.027l-0.014,0.027l-0.015,0.026l-0.015,0.026l-0.016,0.026l-0.017,0.025l-0.017,0.024l-0.017,0.025l-0.019,0.024l-0.019,0.023l-0.019,0.023l-0.02,0.022l-0.02,0.022l-0.021,0.022l-0.022,0.021l-0.022,0.02l-0.022,0.02l-0.023,0.019l-0.023,0.019l-0.024,0.019l-0.025,0.017l-0.024,0.017l-0.025,0.017l-0.026,0.016l-0.026,0.015l-0.026,0.015l-0.027,0.014l-0.027,0.014l-0.028,0.013l-0.028,0.012l-0.028,0.011l-0.028,0.011l-0.029,0.01l-0.029,0.01l-0.03,0.009l-0.03,0.008l-0.03,0.007l-0.03,0.007l-0.031,0.005l-0.031,0.006l-0.031,0.004l-0.031,0.004l-0.032,0.002l-0.032,0.002l-0.032,0.002l-0.032,0l-0.032,0l-0.032,-0.002l-0.032,-0.002l-0.032,-0.002l-0.031,-0.004l-0.031,-0.004l-0.031,-0.006l-0.031,-0.005l-0.03,-0.007l-0.03,-0.007l-0.03,-0.008l-0.03,-0.009l-0.029,-0.01l-0.029,-0.01l-0.028,-0.011l-0.028,-0.011l-0.028,-0.012l-0.028,-0.013l-0.027,-0.014l-0.027,-0.014l-0.026,-0.015l-0.026,-0.015l-0.026,-0.016l-0.025,-0.017l-0.024,-0.017l-0.025,-0.017l-0.024,-0.019l-0.023,-0.019l-0.023,-0.019l-0.022,-0.02l-0.022,-0.02l-0.022,-0.021l-0.021,-0.022l-0.02,-0.022l-0.02,-0.022l-0.019,-0.023l-0.019,-0.023l-0.019,-0.024l-0.017,-0.025l-0.017,-0.024l-0.017,-0.025l-0.016,-0.026l-0.015,-0.026l-0.015,-0.026l-0.014,-0.027l-0.014,-0.027l-0.013,-0.028l-0.012,-0.028l-0.011,-0.028l-0.011,-0.028l-0.01,-0.029l-0.01,-0.029l-0.009,-0.03l-0.008,-0.03l-0.007,-0.03l-0.007,-0.03l-0.005,-0.031l-0.006,-0.031l-0.004,-0.031l-0.004,-0.031l-0.002,-0.032l-0.002,-0.032l-0.002,-0.032l0,-0.032l0,-0.032l0.002,-0.032l0.002,-0.032l0.002,-0.032l0.004,-0.031l0.004,-0.031l0.006,-0.031l0.005,-0.031l0.007,-0.03l0.007,-0.03l0.008,-0.03l0.009,-0.03l0.01,-0.029l0.01,-0.029l0.011,-0.028l0.011,-0.028l0.012,-0.028l0.013,-0.028l0.014,-0.027l0.014,-0.027l0.015,-0.026l0.015,-0.026l0.016,-0.026l0.017,-0.025l0.017,-0.024l0.017,-0.025l0.019,-0.024l0.019,-0.023l0.019,-0.023l0.02,-0.022l0.02,-0.022l0.021,-0.022l0.022,-0.021l0.022,-0.02l0.022,-0.02l0.023,-0.019l0.023,-0.019l0.024,-0.019l0.025,-0.017l0.024,-0.017l0.025,-0.017l0.026,-0.016l0.026,-0.015l0.026,-0.015l0.027,-0.014l0.027,-0.014l0.028,-0.013l0.028,-0.012l0.028,-0.011l0.028,-0.011l0.029,-0.01l0.029,-0.01l0.03,-0.009l0.03,-0.008l0.03,-0.007l0.03,-0.007l0.031,-0.005l0.031,-0.006l0.031,-0.004l0.031,-0.004l0.032,-0.002l0.032,-0.002l0.032,-0.002l0.032,0l0.032,0Zm-0.039,1l-0.007,0l-0.006,0.001l-0.007,0l-0.006,0.001l-0.006,0.001l-0.006,0.001l-0.006,0.001l-0.006,0.001l-0.006,0.002l-0.006,0.001l-0.005,0.002l-0.006,0.002l-0.006,0.002l-0.005,0.002l-0.006,0.002l-0.005,0.003l-0.005,0.002l-0.006,0.003l-0.005,0.003l-0.005,0.003l-0.005,0.003l-0.006,0.003l-0.005,0.003l-0.005,0.004l-0.005,0.003l-0.005,0.004l-0.004,0.004l-0.005,0.004l-0.005,0.004l-0.004,0.004l-0.004,0.004l-0.005,0.005l-0.004,0.004l-0.004,0.005l-0.004,0.005l-0.004,0.005l-0.004,0.004l-0.003,0.005l-0.004,0.005l-0.003,0.005l-0.003,0.005l-0.003,0.005l-0.003,0.006l-0.003,0.005l-0.003,0.006l-0.002,0.005l-0.003,0.006l-0.002,0.005l-0.002,0.005l-0.002,0.006l-0.002,0.005l-0.002,0.007l-0.001,0.005l-0.002,0.006l-0.001,0.006l-0.001,0.006l-0.001,0.006l-0.001,0.006l-0.001,0.006l0,0.007l-0.001,0.007l0,0.006l0,0.007l0,0.007l0,0.006l0.001,0.007l0,0.007l0.001,0.006l0.001,0.006l0.001,0.006l0.001,0.006l0.001,0.006l0.002,0.006l0.001,0.005l0.002,0.007l0.002,0.005l0.002,0.006l0.002,0.005l0.002,0.005l0.003,0.006l0.002,0.005l0.003,0.006l0.003,0.005l0.003,0.006l0.003,0.005l0.003,0.005l0.003,0.005l0.004,0.005l0.003,0.005l0.004,0.004l0.004,0.005l0.004,0.005l0.004,0.005l0.004,0.004l0.005,0.005l0.004,0.004l0.004,0.004l0.005,0.004l0.005,0.004l0.004,0.004l0.005,0.004l0.005,0.003l0.005,0.004l0.005,0.003l0.006,0.003l0.005,0.003l0.005,0.003l0.005,0.003l0.006,0.003l0.005,0.002l0.005,0.003l0.006,0.002l0.005,0.002l0.006,0.002l0.006,0.002l0.005,0.002l0.006,0.001l0.006,0.002l0.006,0.001l0.006,0.001l0.006,0.001l0.006,0.001l0.006,0.001l0.007,0l0.006,0.001l0.007,0l0.007,0l0.007,0l0.007,0l0.006,-0.001l0.007,0l0.006,-0.001l0.006,-0.001l0.006,-0.001l0.006,-0.001l0.006,-0.001l0.006,-0.002l0.006,-0.001l0.005,-0.002l0.006,-0.002l0.006,-0.002l0.005,-0.002l0.006,-0.002l0.005,-0.003l0.005,-0.002l0.006,-0.003l0.005,-0.003l0.005,-0.003l0.005,-0.003l0.006,-0.003l0.005,-0.003l0.005,-0.004l0.005,-0.003l0.005,-0.004l0.004,-0.004l0.005,-0.004l0.005,-0.004l0.004,-0.004l0.004,-0.004l0.005,-0.005l0.004,-0.004l0.004,-0.005l0.004,-0.005l0.004,-0.005l0.004,-0.004l0.003,-0.005l0.004,-0.005l0.003,-0.005l0.003,-0.005l0.003,-0.005l0.003,-0.006l0.003,-0.005l0.003,-0.006l0.002,-0.005l0.003,-0.006l0.002,-0.005l0.002,-0.005l0.002,-0.006l0.002,-0.005l0.002,-0.007l0.001,-0.005l0.002,-0.006l0.001,-0.006l0.001,-0.006l0.001,-0.006l0.001,-0.006l0.001,-0.006l0,-0.007l0.001,-0.007l0,-0.006l0,-0.007l0,-0.007l0,-0.006l-0.001,-0.007l0,-0.007l-0.001,-0.006l-0.001,-0.006l-0.001,-0.006l-0.001,-0.006l-0.001,-0.006l-0.002,-0.006l-0.001,-0.005l-0.002,-0.007l-0.002,-0.005l-0.002,-0.006l-0.002,-0.005l-0.002,-0.005l-0.003,-0.006l-0.002,-0.005l-0.003,-0.006l-0.003,-0.005l-0.003,-0.006l-0.003,-0.005l-0.003,-0.005l-0.003,-0.005l-0.004,-0.005l-0.003,-0.005l-0.004,-0.004l-0.004,-0.005l-0.004,-0.005l-0.004,-0.005l-0.004,-0.004l-0.005,-0.005l-0.004,-0.004l-0.004,-0.004l-0.005,-0.004l-0.005,-0.004l-0.004,-0.004l-0.005,-0.004l-0.005,-0.003l-0.005,-0.004l-0.005,-0.003l-0.006,-0.003l-0.005,-0.003l-0.005,-0.003l-0.005,-0.003l-0.006,-0.003l-0.005,-0.002l-0.005,-0.003l-0.006,-0.002l-0.005,-0.002l-0.006,-0.002l-0.006,-0.002l-0.005,-0.002l-0.006,-0.001l-0.006,-0.002l-0.006,-0.001l-0.006,-0.001l-0.006,-0.001l-0.006,-0.001l-0.006,-0.001l-0.007,0l-0.006,-0.001l-0.007,0l-0.007,0l-0.007,0Z"/></g></g></svg>