<?xml version="1.0" encoding="UTF-8" standalone="no"?><!DOCTYPE svg PUBLIC "-//W3C//DTD SVG 1.1//EN" "http://www.w3.org/Graphics/SVG/1.1/DTD/svg11.dtd"><svg width="100%" height="100%" viewBox="0 0 16 24" version="1.1" xmlns="http://www.w3.org/2000/svg" xmlns:xlink="http://www.w3.org/1999/xlink" xml:space="preserve" xmlns:serif="http://www.serif.com/" style="fill-rule:evenodd;clip-rule:evenodd;stroke-linecap:round;stroke-linejoin:round;stroke-miterlimit:1.5;"><rect id="free-trial-lock-watch-hands" x="0" y="0" width="16" height="24" style="fill:none;"/><g id="free-trial-tic"><path d="M2.68,12.386c-0.178,-0.701 -0.449,-1.691 -0.894,-3.365c-0.846,-3.185 1.03,-6.463 4.187,-7.316c3.156,-0.854 6.406,1.039 7.251,4.224l-1.429,0.386c-0.635,-2.388 -3.072,-3.808 -5.439,-3.168c-2.368,0.64 -3.775,3.099 -3.14,5.487c0.634,2.389 0.734,2.712 0.896,3.365" style="fill:#323232;stroke:#323232;stroke-width:2px;"/><path d="M11.75,8.367c0.995,0 1.948,0.399 2.652,1.108c0.703,0.71 1.098,1.672 1.098,2.675l0,7.567c0,1.003 -0.395,1.965 -1.098,2.675c-0.704,0.709 -1.657,1.108 -2.652,1.108l-7.5,0c-0.995,0 -1.948,-0.399 -2.652,-1.108c-0.703,-0.71 -1.098,-1.672 -1.098,-2.675l0,-7.567c0,-1.003 0.395,-1.965 1.098,-2.675c0.704,-0.709 1.657,-1.108 2.652,-1.108l7.5,0Zm-4.346,8.059l0,-5.875l0.667,-0.597l0.667,0.597l0,6.405l-3.559,3.619c-0.353,0 -0.902,0.01 -0.902,0.01c0,0 -0.042,-0.703 -0.042,-0.962l3.169,-3.197Z" style="fill:#323232;"/><path d="M11.797,8.367l0.046,0.001l0.047,0.002l0.046,0.002l0.046,0.002l0.046,0.004l0.047,0.003l0.046,0.005l0.046,0.005l0.045,0.005l0.046,0.006l0.046,0.007l0.045,0.007l0.046,0.008l0.045,0.008l0.045,0.009l0.045,0.009l0.045,0.01l0.045,0.01l0.044,0.011l0.044,0.012l0.045,0.012l0.044,0.013l0.044,0.013l0.043,0.013l0.044,0.015l0.043,0.014l0.043,0.016l0.043,0.016l0.043,0.016l0.043,0.017l0.042,0.017l0.042,0.018l0.042,0.019l0.042,0.018l0.041,0.02l0.042,0.02l0.041,0.02l0.04,0.021l0.041,0.022l0.04,0.022l0.04,0.022l0.04,0.023l0.039,0.024l0.04,0.024l0.038,0.024l0.039,0.025l0.039,0.026l0.038,0.026l0.037,0.026l0.038,0.027l0.037,0.028l0.037,0.027l0.036,0.029l0.037,0.029l0.036,0.029l0.035,0.03l0.035,0.03l0.035,0.031l0.035,0.031l0.034,0.032l0.034,0.032l0.034,0.032l0.033,0.033l0.032,0.034l0.033,0.034l0.032,0.034l0.031,0.034l0.031,0.035l0.03,0.035l0.03,0.036l0.03,0.036l0.029,0.036l0.028,0.037l0.029,0.036l0.027,0.038l0.027,0.037l0.027,0.038l0.026,0.038l0.026,0.038l0.025,0.039l0.025,0.039l0.024,0.039l0.024,0.04l0.023,0.04l0.023,0.04l0.022,0.04l0.022,0.041l0.022,0.041l0.02,0.041l0.021,0.041l0.019,0.042l0.02,0.042l0.019,0.042l0.018,0.042l0.018,0.043l0.017,0.042l0.017,0.043l0.016,0.043l0.015,0.044l0.016,0.043l0.014,0.044l0.014,0.044l0.014,0.044l0.013,0.044l0.012,0.045l0.012,0.044l0.012,0.045l0.011,0.045l0.01,0.045l0.01,0.046l0.009,0.045l0.009,0.045l0.008,0.046l0.008,0.046l0.007,0.046l0.006,0.046l0.006,0.046l0.006,0.046l0.005,0.046l0.004,0.047l0.004,0.046l0.003,0.047l0.002,0.047l0.002,0.047l0.002,0.046l0.001,0.047l0,0.047l0,7.567l0,0.047l-0.001,0.047l-0.002,0.047l-0.002,0.046l-0.002,0.047l-0.003,0.047l-0.004,0.046l-0.004,0.047l-0.005,0.046l-0.006,0.046l-0.006,0.046l-0.006,0.046l-0.007,0.046l-0.008,0.046l-0.008,0.046l-0.009,0.045l-0.009,0.046l-0.01,0.045l-0.01,0.045l-0.011,0.045l-0.012,0.045l-0.012,0.044l-0.012,0.045l-0.013,0.044l-0.014,0.044l-0.014,0.044l-0.014,0.044l-0.016,0.043l-0.015,0.044l-0.016,0.043l-0.017,0.043l-0.017,0.043l-0.018,0.042l-0.018,0.042l-0.019,0.042l-0.02,0.042l-0.019,0.042l-0.021,0.041l-0.02,0.041l-0.022,0.041l-0.022,0.041l-0.022,0.04l-0.023,0.04l-0.023,0.04l-0.024,0.04l-0.024,0.039l-0.025,0.039l-0.025,0.039l-0.026,0.038l-0.026,0.038l-0.027,0.038l-0.027,0.038l-0.027,0.037l-0.029,0.037l-0.028,0.036l-0.029,0.036l-0.03,0.036l-0.03,0.036l-0.03,0.035l-0.031,0.035l-0.031,0.035l-0.032,0.034l-0.033,0.033l-0.032,0.034l-0.033,0.033l-0.034,0.033l-0.034,0.032l-0.034,0.031l-0.035,0.031l-0.035,0.031l-0.035,0.03l-0.035,0.03l-0.036,0.03l-0.037,0.028l-0.036,0.029l-0.037,0.028l-0.037,0.027l-0.038,0.027l-0.037,0.026l-0.038,0.026l-0.039,0.026l-0.039,0.025l-0.038,0.024l-0.04,0.024l-0.039,0.024l-0.04,0.023l-0.04,0.022l-0.04,0.022l-0.041,0.022l-0.04,0.021l-0.041,0.02l-0.042,0.02l-0.041,0.02l-0.042,0.019l-0.042,0.018l-0.042,0.018l-0.042,0.017l-0.043,0.017l-0.043,0.017l-0.043,0.015l-0.043,0.016l-0.043,0.015l-0.044,0.014l-0.043,0.013l-0.044,0.014l-0.044,0.012l-0.045,0.012l-0.044,0.012l-0.044,0.011l-0.045,0.01l-0.045,0.01l-0.045,0.01l-0.045,0.008l-0.045,0.009l-0.046,0.007l-0.045,0.008l-0.046,0.006l-0.046,0.006l-0.045,0.006l-0.046,0.004l-0.046,0.005l-0.047,0.004l-0.046,0.003l-0.046,0.002l-0.046,0.002l-0.047,0.002l-0.046,0.001l-0.047,0l-7.5,0l-0.047,0l-0.046,-0.001l-0.047,-0.002l-0.046,-0.002l-0.046,-0.002l-0.046,-0.003l-0.047,-0.004l-0.046,-0.005l-0.046,-0.004l-0.045,-0.006l-0.046,-0.006l-0.046,-0.006l-0.045,-0.008l-0.046,-0.007l-0.045,-0.009l-0.045,-0.008l-0.045,-0.01l-0.045,-0.01l-0.045,-0.01l-0.044,-0.011l-0.044,-0.012l-0.045,-0.012l-0.044,-0.012l-0.044,-0.014l-0.043,-0.013l-0.044,-0.014l-0.043,-0.015l-0.043,-0.016l-0.043,-0.015l-0.043,-0.017l-0.043,-0.017l-0.042,-0.017l-0.042,-0.018l-0.042,-0.018l-0.042,-0.019l-0.041,-0.02l-0.042,-0.02l-0.041,-0.02l-0.04,-0.021l-0.041,-0.022l-0.04,-0.022l-0.04,-0.022l-0.04,-0.023l-0.039,-0.024l-0.04,-0.024l-0.038,-0.024l-0.039,-0.025l-0.039,-0.026l-0.038,-0.026l-0.037,-0.026l-0.038,-0.027l-0.037,-0.027l-0.037,-0.028l-0.036,-0.029l-0.037,-0.028l-0.036,-0.03l-0.035,-0.03l-0.035,-0.03l-0.035,-0.031l-0.035,-0.031l-0.034,-0.031l-0.034,-0.032l-0.034,-0.033l-0.033,-0.033l-0.032,-0.034l-0.033,-0.033l-0.032,-0.034l-0.031,-0.035l-0.031,-0.035l-0.03,-0.035l-0.03,-0.036l-0.03,-0.036l-0.029,-0.036l-0.028,-0.036l-0.029,-0.037l-0.027,-0.037l-0.027,-0.038l-0.027,-0.038l-0.026,-0.038l-0.026,-0.038l-0.025,-0.039l-0.025,-0.039l-0.024,-0.039l-0.024,-0.04l-0.023,-0.04l-0.023,-0.04l-0.022,-0.04l-0.022,-0.041l-0.022,-0.041l-0.02,-0.041l-0.021,-0.041l-0.019,-0.042l-0.02,-0.042l-0.019,-0.042l-0.018,-0.042l-0.018,-0.042l-0.017,-0.043l-0.017,-0.043l-0.016,-0.043l-0.015,-0.044l-0.016,-0.043l-0.014,-0.044l-0.014,-0.044l-0.014,-0.044l-0.013,-0.044l-0.012,-0.045l-0.012,-0.044l-0.012,-0.045l-0.011,-0.045l-0.01,-0.045l-0.01,-0.045l-0.009,-0.046l-0.009,-0.045l-0.008,-0.046l-0.008,-0.046l-0.007,-0.046l-0.006,-0.046l-0.006,-0.046l-0.006,-0.046l-0.005,-0.046l-0.004,-0.047l-0.004,-0.046l-0.003,-0.047l-0.002,-0.047l-0.002,-0.046l-0.002,-0.047l-0.001,-0.047l0,-0.047l0,-7.567l0,-0.047l0.001,-0.047l0.002,-0.046l0.002,-0.047l0.002,-0.047l0.003,-0.047l0.004,-0.046l0.004,-0.047l0.005,-0.046l0.006,-0.046l0.006,-0.046l0.006,-0.046l0.007,-0.046l0.008,-0.046l0.008,-0.046l0.009,-0.045l0.009,-0.045l0.01,-0.046l0.01,-0.045l0.011,-0.045l0.012,-0.045l0.012,-0.044l0.012,-0.045l0.013,-0.044l0.014,-0.044l0.014,-0.044l0.014,-0.044l0.016,-0.043l0.015,-0.044l0.016,-0.043l0.017,-0.043l0.017,-0.042l0.018,-0.043l0.018,-0.042l0.019,-0.042l0.02,-0.042l0.019,-0.042l0.021,-0.041l0.02,-0.041l0.022,-0.041l0.022,-0.041l0.022,-0.04l0.023,-0.04l0.023,-0.04l0.024,-0.04l0.024,-0.039l0.025,-0.039l0.025,-0.039l0.026,-0.038l0.026,-0.038l0.027,-0.038l0.027,-0.037l0.027,-0.038l0.029,-0.036l0.028,-0.037l0.029,-0.036l0.03,-0.036l0.03,-0.036l0.03,-0.035l0.031,-0.035l0.031,-0.034l0.032,-0.034l0.033,-0.034l0.032,-0.034l0.033,-0.033l0.034,-0.032l0.034,-0.032l0.034,-0.032l0.035,-0.031l0.035,-0.031l0.035,-0.03l0.035,-0.03l0.036,-0.029l0.037,-0.029l0.036,-0.029l0.037,-0.027l0.037,-0.028l0.038,-0.027l0.037,-0.026l0.038,-0.026l0.039,-0.026l0.039,-0.025l0.038,-0.024l0.04,-0.024l0.039,-0.024l0.04,-0.023l0.04,-0.022l0.04,-0.022l0.041,-0.022l0.04,-0.021l0.041,-0.02l0.042,-0.02l0.041,-0.02l0.042,-0.018l0.042,-0.019l0.042,-0.018l0.042,-0.017l0.043,-0.017l0.043,-0.016l0.043,-0.016l0.043,-0.016l0.043,-0.014l0.044,-0.015l0.043,-0.013l0.044,-0.013l0.044,-0.013l0.045,-0.012l0.044,-0.012l0.044,-0.011l0.045,-0.01l0.045,-0.01l0.045,-0.009l0.045,-0.009l0.045,-0.008l0.046,-0.008l0.045,-0.007l0.046,-0.007l0.046,-0.006l0.045,-0.005l0.046,-0.005l0.046,-0.005l0.047,-0.003l0.046,-0.004l0.046,-0.002l0.046,-0.002l0.047,-0.002l0.046,-0.001l0.047,0l7.5,0l0.047,0Zm-4.393,2.184l0,5.875l-3.169,3.197l0.001,0.053l0.001,0.062l0.002,0.07l0.003,0.074l0.006,0.159l0.008,0.16l0.008,0.148l0.006,0.122l0.007,0.114l0.091,-0.001l0.227,-0.004l0.143,-0.002l0.151,-0.002l0.15,-0.001l0.14,0l3.559,-3.619l0,-6.405l-0.667,-0.597l-0.667,0.597Z" style="fill:#323232;"/></g></svg>