<?xml version="1.0" encoding="UTF-8" standalone="no"?><!DOCTYPE svg PUBLIC "-//W3C//DTD SVG 1.1//EN" "http://www.w3.org/Graphics/SVG/1.1/DTD/svg11.dtd"><svg width="100%" height="100%" viewBox="0 0 46 38" version="1.1" xmlns="http://www.w3.org/2000/svg" xmlns:xlink="http://www.w3.org/1999/xlink" xml:space="preserve" xmlns:serif="http://www.serif.com/" style="fill-rule:evenodd;clip-rule:evenodd;stroke-linecap:round;stroke-miterlimit:1.5;"><g id="message-locked"><g><g><path d="M19,6c0,-0.828 -0.672,-1.5 -1.5,-1.5l-15,0c-0.828,0 -1.5,0.672 -1.5,1.5l0,29c0,0.828 0.672,1.5 1.5,1.5l15,0c0.828,0 1.5,-0.672 1.5,-1.5l0,-29Z" style="fill:#f2f2f2;stroke:#2e2e2e;stroke-width:1px;"/><path d="M13.944,6.076l-0.017,0.026l-0.019,0.026l-0.019,0.026l-0.019,0.024l-0.021,0.024l-0.021,0.023l-0.022,0.023l-0.023,0.022l-0.023,0.021l-0.024,0.02l-0.024,0.019l-0.025,0.019l-0.025,0.018l-0.027,0.017l-0.026,0.016l-0.027,0.015l-0.027,0.015l-0.028,0.013l-0.029,0.013l-0.028,0.012l-0.03,0.011l-0.029,0.01l-0.03,0.01l-0.03,0.008l-0.03,0.007l-0.031,0.007l-0.031,0.005l-0.031,0.005l-0.032,0.003l-0.031,0.003l-0.032,0.001l-0.032,0.001l-6.202,0l-0.032,-0.001l-0.032,-0.001l-0.031,-0.003l-0.032,-0.003l-0.031,-0.005l-0.031,-0.005l-0.031,-0.007l-0.03,-0.007l-0.03,-0.008l-0.03,-0.01l-0.029,-0.01l-0.03,-0.011l-0.028,-0.012l-0.029,-0.013l-0.028,-0.013l-0.027,-0.015l-0.027,-0.015l-0.026,-0.016l-0.027,-0.017l-0.025,-0.018l-0.025,-0.019l-0.024,-0.019l-0.024,-0.02l-0.023,-0.021l-0.023,-0.022l-0.022,-0.023l-0.021,-0.023l-0.021,-0.024l-0.019,-0.024l-0.019,-0.026l-0.019,-0.026l-0.017,-0.026l-1.003,-1.576l9.894,0l-1.003,1.576Z" style="fill:#323232;"/></g><path d="M7.525,18.227c0,0 -0.02,1.707 -0.035,3.029c-0.005,0.4 0.151,0.786 0.433,1.072c0.281,0.285 0.666,0.445 1.066,0.445c0.638,0 1.377,0 2.012,0c0.825,0 1.495,-0.666 1.5,-1.491c0.005,-0.842 0.009,-1.727 0.009,-1.727" style="fill:none;stroke:#323232;stroke-width:1px;stroke-linecap:square;"/><g><path d="M4,10.447c1.726,-1.235 3.401,-1.29 5,0" style="fill:none;stroke:#323232;stroke-width:1px;stroke-linecap:square;"/><path d="M5.765,10.447c0,0.581 -0.114,1.649 0.238,2c0.351,0.352 1.25,0.226 1.25,-0.271c0,-0.498 -0.462,-0.862 -0.866,-0.457" style="fill:none;stroke:#323232;stroke-width:1px;stroke-linecap:square;"/></g><g><path d="M12.012,10.447c1.726,-1.235 3.402,-1.29 5,0" style="fill:none;stroke:#323232;stroke-width:1px;stroke-linecap:square;"/><path d="M13.777,10.447c0,0.581 -0.114,1.649 0.238,2c0.352,0.352 1.25,0.226 1.25,-0.271c0,-0.498 -0.461,-0.862 -0.866,-0.457" style="fill:none;stroke:#323232;stroke-width:1px;stroke-linecap:square;"/></g><path d="M6.5,29.391c0.178,-2.579 6.271,-2.786 7.34,-2.319c1.07,0.468 0.934,4.207 -0.923,5.123c-1.15,0.567 -6.478,-1.919 -6.417,-2.804Z" style="fill:#e6e6e6;"/><path d="M12.267,26.875l0.068,0l0.066,0.002l0.066,0.001l0.065,0.002l0.064,0.002l0.063,0.003l0.061,0.003l0.061,0.004l0.06,0.003l0.058,0.005l0.058,0.004l0.056,0.005l0.055,0.005l0.054,0.006l0.052,0.006l0.051,0.006l0.05,0.006l0.049,0.007l0.047,0.007l0.045,0.008l0.044,0.008l0.043,0.008l0.041,0.008l0.04,0.009l0.038,0.009l0.036,0.009l0.035,0.01l0.033,0.009l0.031,0.01l0.03,0.011l0.027,0.01l0.026,0.011l0.025,0.012l0.025,0.012l0.024,0.014l0.023,0.015l0.023,0.017l0.023,0.017l0.022,0.018l0.022,0.02l0.021,0.02l0.021,0.022l0.02,0.022l0.02,0.024l0.019,0.024l0.019,0.026l0.019,0.027l0.018,0.027l0.018,0.028l0.017,0.03l0.016,0.03l0.017,0.031l0.015,0.032l0.015,0.032l0.015,0.034l0.014,0.034l0.014,0.035l0.014,0.036l0.012,0.037l0.013,0.037l0.012,0.038l0.011,0.039l0.011,0.039l0.01,0.04l0.01,0.041l0.01,0.041l0.009,0.042l0.008,0.042l0.008,0.043l0.008,0.044l0.007,0.044l0.006,0.045l0.006,0.045l0.006,0.046l0.005,0.046l0.004,0.046l0.004,0.047l0.003,0.048l0.003,0.048l0.003,0.048l0.002,0.048l0.001,0.049l0.001,0.05l0,0.049l0,0.05l0,0.05l-0.002,0.05l-0.001,0.051l-0.003,0.051l-0.002,0.051l-0.004,0.051l-0.003,0.051l-0.005,0.052l-0.005,0.052l-0.005,0.051l-0.006,0.052l-0.006,0.052l-0.007,0.052l-0.008,0.052l-0.008,0.052l-0.009,0.053l-0.009,0.052l-0.01,0.052l-0.01,0.052l-0.011,0.052l-0.011,0.052l-0.012,0.052l-0.012,0.051l-0.014,0.052l-0.013,0.051l-0.014,0.052l-0.015,0.051l-0.015,0.051l-0.016,0.05l-0.016,0.051l-0.017,0.05l-0.018,0.05l-0.018,0.05l-0.018,0.049l-0.02,0.049l-0.019,0.049l-0.021,0.048l-0.021,0.048l-0.021,0.048l-0.022,0.047l-0.023,0.046l-0.023,0.047l-0.024,0.046l-0.024,0.045l-0.025,0.045l-0.026,0.044l-0.026,0.044l-0.027,0.043l-0.027,0.043l-0.028,0.042l-0.029,0.042l-0.029,0.041l-0.029,0.04l-0.031,0.04l-0.031,0.039l-0.031,0.038l-0.032,0.038l-0.033,0.037l-0.033,0.036l-0.034,0.035l-0.035,0.035l-0.035,0.034l-0.036,0.033l-0.036,0.032l-0.037,0.031l-0.038,0.031l-0.038,0.029l-0.039,0.029l-0.039,0.028l-0.04,0.027l-0.041,0.026l-0.041,0.025l-0.042,0.024l-0.043,0.023l-0.043,0.022l-0.013,0.006l-0.015,0.006l-0.014,0.006l-0.015,0.006l-0.015,0.005l-0.015,0.005l-0.033,0.01l-0.033,0.008l-0.035,0.008l-0.036,0.006l-0.038,0.005l-0.039,0.005l-0.04,0.003l-0.042,0.002l-0.043,0.001l-0.044,0.001l-0.045,-0.001l-0.046,-0.001l-0.047,-0.003l-0.049,-0.003l-0.049,-0.004l-0.051,-0.005l-0.052,-0.006l-0.052,-0.007l-0.054,-0.008l-0.054,-0.008l-0.056,-0.01l-0.056,-0.01l-0.057,-0.011l-0.058,-0.011l-0.058,-0.013l-0.06,-0.013l-0.06,-0.014l-0.061,-0.014l-0.061,-0.016l-0.063,-0.016l-0.063,-0.016l-0.063,-0.018l-0.064,-0.018l-0.065,-0.018l-0.065,-0.02l-0.065,-0.02l-0.066,-0.02l-0.067,-0.021l-0.067,-0.022l-0.067,-0.022l-0.068,-0.023l-0.067,-0.023l-0.069,-0.024l-0.068,-0.024l-0.069,-0.025l-0.138,-0.051l-0.139,-0.053l-0.139,-0.054l-0.139,-0.056l-0.14,-0.058l-0.139,-0.059l-0.139,-0.06l-0.138,-0.062l-0.137,-0.062l-0.136,-0.064l-0.135,-0.064l-0.133,-0.065l-0.131,-0.066l-0.13,-0.066l-0.127,-0.067l-0.125,-0.067l-0.122,-0.067l-0.06,-0.033l-0.059,-0.034l-0.059,-0.034l-0.058,-0.033l-0.056,-0.034l-0.056,-0.034l-0.056,-0.033l-0.054,-0.034l-0.053,-0.033l-0.053,-0.033l-0.051,-0.033l-0.05,-0.033l-0.05,-0.033l-0.048,-0.033l-0.047,-0.033l-0.046,-0.032l-0.045,-0.032l-0.044,-0.032l-0.042,-0.032l-0.041,-0.032l-0.04,-0.031l-0.039,-0.031l-0.037,-0.031l-0.036,-0.031l-0.035,-0.03l-0.033,-0.03l-0.032,-0.03l-0.031,-0.029l-0.029,-0.029l-0.027,-0.029l-0.026,-0.028l-0.024,-0.028l-0.023,-0.027l-0.021,-0.027l-0.019,-0.027l-0.018,-0.026l-0.016,-0.026l-0.015,-0.025l-0.012,-0.025l-0.011,-0.024l-0.005,-0.012l-0.004,-0.012l-0.004,-0.011l-0.003,-0.012l-0.003,-0.011l-0.003,-0.012l-0.001,-0.011l-0.002,-0.011l-0.001,-0.011l0,-0.01l0,-0.011l0,-0.01l0.002,-0.031l0.003,-0.029l0.004,-0.03l0.004,-0.03l0.004,-0.029l0.005,-0.029l0.006,-0.029l0.006,-0.028l0.006,-0.029l0.007,-0.028l0.008,-0.028l0.008,-0.028l0.008,-0.027l0.009,-0.028l0.01,-0.027l0.01,-0.027l0.01,-0.026l0.011,-0.027l0.012,-0.026l0.012,-0.026l0.012,-0.026l0.013,-0.026l0.013,-0.025l0.014,-0.026l0.014,-0.025l0.015,-0.025l0.015,-0.024l0.015,-0.025l0.016,-0.024l0.017,-0.024l0.016,-0.024l0.018,-0.024l0.017,-0.023l0.018,-0.023l0.019,-0.023l0.019,-0.023l0.019,-0.023l0.019,-0.023l0.02,-0.022l0.021,-0.022l0.021,-0.022l0.021,-0.022l0.021,-0.021l0.022,-0.021l0.023,-0.022l0.022,-0.021l0.023,-0.02l0.024,-0.021l0.048,-0.041l0.049,-0.039l0.05,-0.04l0.052,-0.038l0.054,-0.038l0.054,-0.037l0.056,-0.036l0.057,-0.035l0.058,-0.035l0.059,-0.034l0.06,-0.033l0.061,-0.033l0.063,-0.032l0.063,-0.031l0.065,-0.031l0.065,-0.03l0.066,-0.029l0.067,-0.029l0.068,-0.028l0.069,-0.027l0.07,-0.026l0.07,-0.026l0.071,-0.026l0.072,-0.024l0.072,-0.024l0.073,-0.024l0.074,-0.023l0.074,-0.022l0.075,-0.021l0.075,-0.021l0.076,-0.021l0.076,-0.019l0.077,-0.019l0.077,-0.019l0.077,-0.018l0.078,-0.017l0.078,-0.017l0.078,-0.016l0.078,-0.016l0.079,-0.015l0.079,-0.014l0.079,-0.014l0.079,-0.014l0.079,-0.013l0.079,-0.012l0.079,-0.012l0.079,-0.011l0.079,-0.011l0.079,-0.01l0.079,-0.01l0.079,-0.009l0.078,-0.009l0.078,-0.008l0.079,-0.008l0.077,-0.007l0.078,-0.007l0.077,-0.006l0.077,-0.006l0.076,-0.005l0.076,-0.005l0.076,-0.004l0.074,-0.004l0.075,-0.004l0.074,-0.003l0.073,-0.002l0.073,-0.002l0.072,-0.002l0.071,-0.001l0.071,-0.001l0.07,-0.001l0.069,0l0.068,0.001Zm-0.133,0.999l-0.064,0.001l-0.066,0.001l-0.065,0.001l-0.067,0.001l-0.066,0.002l-0.068,0.003l-0.068,0.003l-0.069,0.003l-0.069,0.003l-0.07,0.004l-0.07,0.005l-0.071,0.005l-0.071,0.005l-0.071,0.006l-0.072,0.006l-0.072,0.007l-0.072,0.007l-0.073,0.008l-0.072,0.008l-0.073,0.008l-0.072,0.009l-0.073,0.01l-0.073,0.009l-0.073,0.011l-0.072,0.011l-0.073,0.011l-0.072,0.012l-0.073,0.012l-0.071,0.013l-0.072,0.013l-0.072,0.014l-0.071,0.014l-0.071,0.015l-0.07,0.015l-0.07,0.015l-0.069,0.016l-0.069,0.017l-0.069,0.017l-0.067,0.018l-0.067,0.017l-0.067,0.019l-0.066,0.019l-0.065,0.019l-0.064,0.02l-0.063,0.02l-0.062,0.021l-0.062,0.021l-0.06,0.022l-0.06,0.022l-0.058,0.022l-0.057,0.023l-0.057,0.023l-0.055,0.023l-0.054,0.024l-0.053,0.024l-0.051,0.024l-0.05,0.025l-0.048,0.025l-0.047,0.025l-0.047,0.026l-0.044,0.025l-0.043,0.026l-0.041,0.026l-0.04,0.026l-0.038,0.025l-0.036,0.026l-0.035,0.026l-0.034,0.026l-0.031,0.025l-0.032,0.028l-0.013,0.011l-0.013,0.011l-0.014,0.013l-0.013,0.013l-0.013,0.012l-0.012,0.012l-0.012,0.012l-0.012,0.013l-0.01,0.012l-0.011,0.011l-0.01,0.012l-0.01,0.012l-0.009,0.011l-0.01,0.012l-0.008,0.011l-0.009,0.012l-0.008,0.011l-0.008,0.011l-0.007,0.01l-0.007,0.011l-0.007,0.01l-0.006,0.011l-0.007,0.012l-0.006,0.009l-0.004,0.009l-0.001,0.001l0.009,0.008l0.027,0.022l0.029,0.024l0.031,0.024l0.033,0.025l0.034,0.025l0.036,0.027l0.036,0.026l0.039,0.027l0.041,0.028l0.041,0.028l0.042,0.028l0.044,0.029l0.046,0.03l0.046,0.029l0.047,0.03l0.05,0.03l0.049,0.03l0.051,0.031l0.051,0.03l0.053,0.031l0.054,0.031l0.054,0.03l0.054,0.031l0.115,0.063l0.115,0.062l0.119,0.062l0.121,0.062l0.123,0.061l0.125,0.062l0.127,0.06l0.128,0.06l0.129,0.058l0.13,0.058l0.131,0.057l0.13,0.056l0.131,0.054l0.131,0.052l0.13,0.051l0.13,0.05l0.13,0.048l0.063,0.022l0.063,0.023l0.063,0.022l0.063,0.021l0.062,0.021l0.062,0.021l0.061,0.02l0.061,0.019l0.06,0.018l0.06,0.018l0.058,0.018l0.058,0.017l0.057,0.016l0.057,0.015l0.055,0.015l0.055,0.014l0.054,0.013l0.052,0.013l0.052,0.012l0.05,0.011l0.05,0.01l0.048,0.01l0.046,0.009l0.046,0.008l0.044,0.008l0.042,0.006l0.041,0.006l0.039,0.005l0.038,0.004l0.035,0.004l0.034,0.003l0.032,0.002l0.029,0.002l0.027,0l0.025,0.001l0.022,0l0.019,-0.001l0.017,-0.001l0.009,-0.001l0.021,-0.011l0.021,-0.013l0.02,-0.013l0.021,-0.014l0.021,-0.015l0.02,-0.015l0.021,-0.016l0.02,-0.016l0.021,-0.018l0.021,-0.018l0.02,-0.019l0.021,-0.02l0.02,-0.02l0.02,-0.021l0.02,-0.022l0.02,-0.023l0.02,-0.023l0.02,-0.025l0.02,-0.024l0.02,-0.027l0.019,-0.025l0.019,-0.027l0.02,-0.029l0.019,-0.029l0.019,-0.029l0.018,-0.03l0.018,-0.03l0.018,-0.031l0.018,-0.033l0.018,-0.033l0.017,-0.033l0.017,-0.034l0.017,-0.034l0.016,-0.035l0.016,-0.036l0.016,-0.036l0.015,-0.036l0.015,-0.037l0.015,-0.038l0.014,-0.038l0.014,-0.038l0.014,-0.039l0.013,-0.04l0.013,-0.04l0.013,-0.039l0.012,-0.04l0.011,-0.041l0.011,-0.04l0.011,-0.041l0.011,-0.042l0.01,-0.041l0.009,-0.041l0.009,-0.042l0.009,-0.042l0.008,-0.042l0.008,-0.041l0.007,-0.042l0.007,-0.043l0.007,-0.043l0.006,-0.042l0.006,-0.041l0.005,-0.042l0.005,-0.043l0.004,-0.041l0.004,-0.042l0.004,-0.042l0.003,-0.041l0.002,-0.041l0.003,-0.04l0.001,-0.041l0.002,-0.041l0.001,-0.041l0,-0.039l0,-0.04l0,-0.039l-0.001,-0.038l-0.001,-0.039l-0.001,-0.037l-0.002,-0.037l-0.002,-0.038l-0.003,-0.035l-0.003,-0.035l-0.003,-0.036l-0.004,-0.034l-0.004,-0.034l-0.004,-0.033l-0.005,-0.031l-0.005,-0.033l-0.005,-0.03l-0.006,-0.03l-0.006,-0.029l-0.006,-0.028l-0.006,-0.028l-0.006,-0.026l-0.007,-0.025l-0.006,-0.024l-0.007,-0.022l-0.007,-0.023l-0.007,-0.02l-0.007,-0.019l-0.007,-0.021l-0.007,-0.016l-0.006,-0.015l-0.007,-0.016l-0.005,-0.012l-0.002,-0.004l-0.002,0l-0.024,-0.005l-0.028,-0.006l-0.03,-0.006l-0.032,-0.005l-0.034,-0.006l-0.036,-0.005l-0.038,-0.006l-0.04,-0.005l-0.042,-0.005l-0.043,-0.005l-0.046,-0.005l-0.047,-0.004l-0.047,-0.004l-0.05,-0.004l-0.051,-0.004l-0.053,-0.003l-0.054,-0.003l-0.055,-0.003l-0.056,-0.002l-0.057,-0.002l-0.059,-0.002l-0.059,-0.002l-0.06,-0.001l-0.062,0l-0.063,-0.001l-0.062,0Z" style="fill:#323232;"/><path id="chin" d="M6.995,34.993l6.01,0" style="fill:none;stroke:#323232;stroke-width:1px;stroke-linecap:square;"/></g><path d="M26.223,0.849c7.356,-2.473 19.87,0.772 18.911,14.225c-0.958,13.452 -13.218,14.09 -16.78,13.851c-2.727,-0.183 -7.17,-1.812 -7.17,-1.812l-7.434,1.637c1,-1 2.517,-2.694 3.75,-4.25c1.134,-1.431 1,-3 1,-3c0,0 -1.939,-6.798 -1.939,-9.176c0,-5.054 2.306,-9.001 9.662,-11.475Z" style="fill:#f5f5f5;"/><clipPath id="_clip1"><path d="M26.223,0.849c7.356,-2.473 19.87,0.772 18.911,14.225c-0.958,13.452 -13.218,14.09 -16.78,13.851c-2.727,-0.183 -7.17,-1.812 -7.17,-1.812l-7.434,1.637c1,-1 2.517,-2.694 3.75,-4.25c1.134,-1.431 1,-3 1,-3c0,0 -1.939,-6.798 -1.939,-9.176c0,-5.054 2.306,-9.001 9.662,-11.475Z"/></clipPath><g clip-path="url(#_clip1)"><g><g><path d="M35.829,22.277l0,1.667c0,0.919 -2.129,1.666 -4.75,1.666c-2.622,0 -4.75,-0.747 -4.75,-1.666l0,-1.667" style="fill:#eded25;stroke:#815512;stroke-width:0.45px;stroke-linecap:square;stroke-linejoin:bevel;"/><ellipse cx="31.079" cy="22.277" rx="4.75" ry="1.667" style="fill:#eded25;stroke:#815512;stroke-width:0.45px;stroke-linecap:square;stroke-linejoin:bevel;"/></g><g><path d="M33.932,19.777l0,1.667c0,0.919 -2.129,1.666 -4.75,1.666c-2.622,0 -4.75,-0.747 -4.75,-1.666l0,-1.667" style="fill:#eded25;stroke:#815512;stroke-width:0.45px;stroke-linecap:square;stroke-linejoin:bevel;"/><ellipse cx="29.182" cy="19.777" rx="4.75" ry="1.667" style="fill:#eded25;stroke:#815512;stroke-width:0.45px;stroke-linecap:square;stroke-linejoin:bevel;"/></g><g><path d="M35.829,17.277l0,1.667c0,0.919 -2.129,1.666 -4.75,1.666c-2.622,0 -4.75,-0.747 -4.75,-1.666l0,-1.667" style="fill:#eded25;stroke:#815512;stroke-width:0.45px;stroke-linecap:square;stroke-linejoin:bevel;"/><ellipse cx="31.079" cy="17.277" rx="4.75" ry="1.667" style="fill:#eded25;stroke:#815512;stroke-width:0.45px;stroke-linecap:square;stroke-linejoin:bevel;"/></g><g><path d="M33.932,14.777l0,1.667c0,0.919 -2.129,1.666 -4.75,1.666c-2.622,0 -4.75,-0.747 -4.75,-1.666l0,-1.667" style="fill:#eded25;stroke:#815512;stroke-width:0.45px;stroke-linecap:square;stroke-linejoin:bevel;"/><ellipse cx="29.182" cy="14.777" rx="4.75" ry="1.667" style="fill:#eded25;stroke:#815512;stroke-width:0.45px;stroke-linecap:square;stroke-linejoin:bevel;"/></g><path d="M24.036,5.585l0.674,2.078l2.179,0l-1.763,1.285l0.674,2.078l-1.764,-1.284l-1.763,1.284l0.674,-2.078l-1.764,-1.285l2.18,0l0.673,-2.078Z" style="fill:#ebec11;stroke:#e09d27;stroke-width:0.48px;stroke-linecap:square;stroke-linejoin:bevel;"/><path d="M32.026,4.099l0.674,2.073l2.179,0l-1.763,1.281l0.673,2.073l-1.763,-1.281l-1.763,1.281l0.673,-2.073l-1.763,-1.281l2.18,0l0.673,-2.073Z" style="fill:#ebec11;stroke:#e09d27;stroke-width:0.48px;stroke-linecap:square;stroke-linejoin:bevel;"/><path d="M37.526,8.593l0.674,2.073l2.179,0l-1.763,1.281l0.673,2.073l-1.763,-1.281l-1.763,1.281l0.673,-2.073l-1.763,-1.281l2.18,0l0.673,-2.073Z" style="fill:#ebec11;stroke:#e09d27;stroke-width:0.48px;stroke-linecap:square;stroke-linejoin:bevel;"/></g></g><path d="M31.188,0.088l0.102,0l0.102,0.002l0.102,0.002l0.102,0.002l0.102,0.003l0.103,0.004l0.102,0.004l0.103,0.005l0.102,0.006l0.103,0.006l0.102,0.007l0.103,0.008l0.103,0.008l0.103,0.009l0.103,0.009l0.103,0.01l0.103,0.011l0.102,0.011l0.103,0.012l0.103,0.012l0.103,0.014l0.103,0.013l0.103,0.015l0.103,0.015l0.103,0.016l0.103,0.016l0.102,0.017l0.103,0.018l0.103,0.018l0.102,0.019l0.103,0.02l0.102,0.02l0.102,0.021l0.103,0.022l0.102,0.022l0.102,0.023l0.102,0.024l0.101,0.024l0.102,0.025l0.102,0.026l0.101,0.026l0.101,0.027l0.101,0.028l0.101,0.028l0.101,0.029l0.1,0.03l0.101,0.03l0.1,0.031l0.1,0.032l0.1,0.032l0.1,0.033l0.099,0.034l0.099,0.035l0.099,0.035l0.099,0.036l0.098,0.036l0.098,0.038l0.098,0.038l0.098,0.038l0.097,0.04l0.098,0.04l0.097,0.04l0.096,0.042l0.096,0.042l0.096,0.043l0.096,0.044l0.095,0.044l0.096,0.045l0.094,0.046l0.095,0.046l0.094,0.047l0.093,0.048l0.094,0.049l0.093,0.049l0.092,0.05l0.093,0.051l0.092,0.052l0.091,0.052l0.091,0.053l0.091,0.054l0.09,0.054l0.09,0.056l0.089,0.055l0.089,0.057l0.089,0.058l0.088,0.058l0.088,0.059l0.087,0.059l0.087,0.061l0.086,0.061l0.086,0.062l0.085,0.063l0.085,0.063l0.085,0.064l0.084,0.065l0.083,0.066l0.083,0.066l0.082,0.068l0.082,0.068l0.081,0.068l0.081,0.07l0.08,0.07l0.08,0.071l0.079,0.072l0.078,0.073l0.078,0.073l0.078,0.074l0.076,0.075l0.077,0.076l0.075,0.076l0.075,0.078l0.075,0.078l0.073,0.079l0.073,0.079l0.073,0.081l0.072,0.081l0.071,0.082l0.07,0.083l0.07,0.083l0.069,0.085l0.069,0.085l0.068,0.086l0.067,0.087l0.066,0.087l0.066,0.089l0.065,0.089l0.065,0.09l0.063,0.091l0.063,0.092l0.062,0.092l0.062,0.093l0.06,0.094l0.06,0.095l0.06,0.096l0.058,0.097l0.058,0.097l0.056,0.098l0.056,0.099l0.056,0.1l0.054,0.101l0.054,0.102l0.053,0.102l0.052,0.103l0.051,0.104l0.05,0.105l0.05,0.106l0.048,0.106l0.048,0.108l0.047,0.108l0.046,0.109l0.046,0.11l0.044,0.111l0.043,0.112l0.043,0.112l0.042,0.113l0.04,0.115l0.04,0.115l0.039,0.116l0.038,0.116l0.037,0.118l0.036,0.119l0.035,0.119l0.035,0.12l0.033,0.121l0.032,0.122l0.031,0.123l0.031,0.124l0.029,0.124l0.029,0.126l0.027,0.126l0.026,0.128l0.026,0.128l0.024,0.129l0.023,0.13l0.022,0.13l0.022,0.132l0.02,0.133l0.019,0.133l0.018,0.134l0.017,0.136l0.016,0.136l0.015,0.137l0.013,0.138l0.013,0.139l0.012,0.139l0.01,0.141l0.009,0.141l0.009,0.143l0.007,0.143l0.006,0.144l0.004,0.146l0.004,0.146l0.003,0.147l0.001,0.148l0,0.149l-0.001,0.149l-0.002,0.151l-0.003,0.152l-0.005,0.152l-0.006,0.154l-0.007,0.154l-0.008,0.155l-0.009,0.157l-0.011,0.157l-0.011,0.157l-0.013,0.156l-0.014,0.154l-0.015,0.154l-0.016,0.152l-0.016,0.152l-0.018,0.15l-0.019,0.149l-0.02,0.148l-0.021,0.146l-0.021,0.146l-0.023,0.144l-0.024,0.144l-0.024,0.142l-0.026,0.141l-0.026,0.14l-0.027,0.139l-0.029,0.137l-0.029,0.137l-0.03,0.136l-0.031,0.134l-0.032,0.134l-0.032,0.132l-0.034,0.131l-0.034,0.13l-0.036,0.13l-0.036,0.128l-0.037,0.127l-0.037,0.126l-0.039,0.124l-0.04,0.124l-0.04,0.123l-0.041,0.122l-0.042,0.121l-0.042,0.119l-0.044,0.119l-0.044,0.118l-0.045,0.116l-0.046,0.116l-0.046,0.115l-0.048,0.113l-0.048,0.113l-0.048,0.112l-0.05,0.11l-0.05,0.11l-0.051,0.109l-0.052,0.107l-0.052,0.107l-0.053,0.106l-0.054,0.105l-0.054,0.103l-0.055,0.103l-0.056,0.102l-0.056,0.101l-0.057,0.1l-0.058,0.099l-0.058,0.099l-0.059,0.097l-0.059,0.096l-0.061,0.095l-0.06,0.095l-0.062,0.094l-0.062,0.092l-0.062,0.092l-0.063,0.091l-0.064,0.09l-0.064,0.089l-0.065,0.088l-0.065,0.087l-0.066,0.087l-0.066,0.085l-0.067,0.085l-0.068,0.084l-0.068,0.083l-0.068,0.082l-0.069,0.081l-0.07,0.08l-0.07,0.08l-0.07,0.079l-0.071,0.078l-0.071,0.077l-0.072,0.076l-0.072,0.075l-0.073,0.075l-0.073,0.074l-0.074,0.072l-0.074,0.073l-0.074,0.071l-0.075,0.07l-0.075,0.07l-0.076,0.069l-0.076,0.068l-0.076,0.068l-0.077,0.066l-0.077,0.066l-0.077,0.065l-0.078,0.065l-0.078,0.063l-0.079,0.063l-0.078,0.062l-0.079,0.061l-0.08,0.061l-0.08,0.06l-0.08,0.059l-0.08,0.058l-0.08,0.058l-0.081,0.057l-0.081,0.056l-0.082,0.055l-0.081,0.055l-0.082,0.054l-0.082,0.054l-0.083,0.052l-0.082,0.052l-0.083,0.052l-0.083,0.05l-0.084,0.05l-0.083,0.049l-0.084,0.049l-0.083,0.048l-0.084,0.047l-0.085,0.047l-0.084,0.046l-0.084,0.045l-0.085,0.045l-0.085,0.044l-0.085,0.043l-0.085,0.043l-0.085,0.042l-0.085,0.042l-0.085,0.04l-0.086,0.041l-0.085,0.039l-0.086,0.039l-0.086,0.039l-0.085,0.038l-0.086,0.037l-0.086,0.037l-0.086,0.036l-0.086,0.035l-0.086,0.035l-0.086,0.035l-0.086,0.034l-0.086,0.033l-0.086,0.032l-0.086,0.033l-0.086,0.031l-0.087,0.031l-0.086,0.031l-0.086,0.03l-0.085,0.029l-0.086,0.029l-0.086,0.028l-0.086,0.028l-0.086,0.028l-0.085,0.026l-0.086,0.027l-0.085,0.026l-0.086,0.025l-0.085,0.025l-0.085,0.024l-0.085,0.024l-0.085,0.023l-0.085,0.023l-0.085,0.023l-0.084,0.022l-0.085,0.021l-0.084,0.021l-0.084,0.021l-0.084,0.02l-0.083,0.019l-0.084,0.02l-0.083,0.018l-0.083,0.019l-0.166,0.035l-0.165,0.034l-0.163,0.032l-0.163,0.03l-0.162,0.029l-0.16,0.028l-0.159,0.025l-0.159,0.025l-0.156,0.023l-0.156,0.021l-0.154,0.02l-0.152,0.019l-0.151,0.017l-0.15,0.016l-0.148,0.015l-0.146,0.014l-0.144,0.013l-0.143,0.011l-0.14,0.01l-0.139,0.009l-0.137,0.008l-0.134,0.008l-0.133,0.006l-0.131,0.005l-0.128,0.004l-0.126,0.004l-0.123,0.003l-0.122,0.001l-0.119,0.001l-0.116,0.001l-0.114,-0.001l-0.111,-0.001l-0.108,-0.001l-0.106,-0.002l-0.103,-0.003l-0.1,-0.004l-0.097,-0.003l-0.095,-0.005l-0.091,-0.004l-0.088,-0.005l-0.085,-0.006l-0.064,-0.004l-0.065,-0.006l-0.066,-0.005l-0.066,-0.006l-0.066,-0.007l-0.067,-0.007l-0.068,-0.007l-0.068,-0.008l-0.069,-0.009l-0.069,-0.009l-0.139,-0.019l-0.142,-0.021l-0.142,-0.022l-0.144,-0.024l-0.146,-0.026l-0.146,-0.027l-0.148,-0.028l-0.148,-0.03l-0.149,-0.03l-0.149,-0.032l-0.15,-0.033l-0.15,-0.034l-0.15,-0.035l-0.15,-0.036l-0.151,-0.036l-0.149,-0.038l-0.15,-0.037l-0.148,-0.039l-0.148,-0.039l-0.147,-0.039l-0.146,-0.04l-0.145,-0.04l-0.144,-0.04l-0.142,-0.04l-0.141,-0.041l-0.139,-0.04l-0.137,-0.04l-0.135,-0.041l-0.133,-0.04l-0.13,-0.039l-0.129,-0.04l-0.248,-0.077l-0.237,-0.076l-0.225,-0.072l-0.211,-0.069l-0.197,-0.066l-0.18,-0.06l-0.164,-0.056l-0.145,-0.05l-0.126,-0.044l-0.106,-0.037l-0.145,-0.052l-0.051,-0.019l-7.434,1.637l0.095,-0.096l0.098,-0.099l0.101,-0.104l0.104,-0.107l0.106,-0.11l0.108,-0.114l0.11,-0.117l0.112,-0.12l0.115,-0.123l0.115,-0.125l0.118,-0.128l0.119,-0.131l0.12,-0.132l0.121,-0.135l0.122,-0.137l0.123,-0.138l0.124,-0.14l0.125,-0.142l0.124,-0.143l0.125,-0.144l0.125,-0.145l0.125,-0.146l0.125,-0.147l0.124,-0.147l0.124,-0.148l0.124,-0.148l0.122,-0.148l0.122,-0.148l0.12,-0.147l0.12,-0.148l0.118,-0.147l0.116,-0.146l0.026,-0.034l0.026,-0.033l0.026,-0.034l0.025,-0.034l0.024,-0.033l0.024,-0.034l0.047,-0.067l0.045,-0.068l0.044,-0.068l0.041,-0.067l0.041,-0.068l0.038,-0.067l0.037,-0.067l0.035,-0.067l0.034,-0.067l0.033,-0.067l0.031,-0.066l0.029,-0.066l0.029,-0.065l0.027,-0.066l0.025,-0.064l0.024,-0.064l0.023,-0.064l0.022,-0.063l0.021,-0.062l0.019,-0.062l0.019,-0.061l0.017,-0.06l0.016,-0.06l0.015,-0.059l0.015,-0.057l0.013,-0.057l0.012,-0.056l0.012,-0.056l0.01,-0.054l0.01,-0.053l0.009,-0.052l0.008,-0.05l0.008,-0.05l0.006,-0.048l0.006,-0.048l0.006,-0.045l0.005,-0.045l0.004,-0.043l0.004,-0.042l0.003,-0.041l0.002,-0.038l0.005,-0.074l0.002,-0.066l0.002,-0.061l0,-0.053l-0.001,-0.046l0,-0.038l-0.002,-0.03l-0.001,-0.022l-0.001,-0.018l-0.022,-0.077l-0.061,-0.22l-0.044,-0.158l-0.052,-0.188l-0.059,-0.215l-0.065,-0.241l-0.071,-0.265l-0.076,-0.285l-0.08,-0.305l-0.084,-0.322l-0.086,-0.338l-0.089,-0.35l-0.09,-0.362l-0.045,-0.184l-0.046,-0.186l-0.045,-0.188l-0.046,-0.19l-0.045,-0.19l-0.045,-0.192l-0.044,-0.193l-0.044,-0.193l-0.044,-0.193l-0.043,-0.193l-0.042,-0.192l-0.041,-0.192l-0.041,-0.192l-0.04,-0.19l-0.038,-0.189l-0.037,-0.187l-0.037,-0.186l-0.034,-0.183l-0.034,-0.181l-0.032,-0.178l-0.03,-0.176l-0.028,-0.172l-0.027,-0.169l-0.025,-0.165l-0.023,-0.162l-0.011,-0.079l-0.01,-0.078l-0.01,-0.077l-0.009,-0.076l-0.008,-0.075l-0.008,-0.073l-0.008,-0.072l-0.007,-0.071l-0.006,-0.07l-0.006,-0.068l-0.005,-0.067l-0.004,-0.066l-0.004,-0.064l-0.003,-0.063l-0.002,-0.061l-0.002,-0.06l-0.001,-0.058l0,-0.056l0,-0.119l0.001,-0.117l0.002,-0.118l0.003,-0.117l0.004,-0.116l0.005,-0.117l0.006,-0.115l0.006,-0.116l0.008,-0.115l0.008,-0.114l0.009,-0.114l0.011,-0.114l0.011,-0.113l0.012,-0.113l0.013,-0.113l0.014,-0.112l0.015,-0.111l0.016,-0.112l0.017,-0.11l0.018,-0.111l0.019,-0.11l0.02,-0.109l0.021,-0.109l0.022,-0.109l0.023,-0.108l0.024,-0.108l0.025,-0.107l0.026,-0.107l0.028,-0.107l0.028,-0.106l0.029,-0.105l0.031,-0.105l0.032,-0.105l0.032,-0.104l0.034,-0.104l0.035,-0.104l0.036,-0.103l0.037,-0.102l0.039,-0.102l0.039,-0.102l0.041,-0.101l0.042,-0.101l0.042,-0.1l0.045,-0.1l0.045,-0.099l0.047,-0.099l0.047,-0.098l0.049,-0.099l0.051,-0.097l0.051,-0.097l0.053,-0.097l0.054,-0.096l0.055,-0.096l0.056,-0.095l0.058,-0.095l0.059,-0.094l0.06,-0.094l0.062,-0.093l0.062,-0.093l0.065,-0.093l0.065,-0.092l0.067,-0.091l0.068,-0.091l0.069,-0.091l0.071,-0.09l0.072,-0.09l0.074,-0.089l0.075,-0.089l0.076,-0.088l0.078,-0.088l0.079,-0.087l0.08,-0.087l0.082,-0.086l0.083,-0.086l0.085,-0.085l0.086,-0.085l0.088,-0.084l0.089,-0.084l0.09,-0.084l0.092,-0.083l0.094,-0.082l0.095,-0.082l0.096,-0.081l0.098,-0.081l0.099,-0.081l0.101,-0.08l0.103,-0.079l0.104,-0.079l0.105,-0.079l0.107,-0.078l0.109,-0.077l0.11,-0.077l0.112,-0.076l0.113,-0.076l0.115,-0.076l0.116,-0.075l0.118,-0.074l0.12,-0.074l0.121,-0.074l0.123,-0.073l0.125,-0.072l0.126,-0.072l0.127,-0.071l0.13,-0.071l0.131,-0.071l0.133,-0.069l0.134,-0.07l0.136,-0.069l0.138,-0.068l0.14,-0.068l0.141,-0.067l0.143,-0.067l0.145,-0.066l0.146,-0.065l0.148,-0.066l0.15,-0.064l0.152,-0.064l0.153,-0.064l0.156,-0.063l0.156,-0.063l0.159,-0.062l0.161,-0.061l0.162,-0.061l0.164,-0.06l0.166,-0.06l0.168,-0.059l0.17,-0.059l0.171,-0.059l0.087,-0.028l0.087,-0.028l0.087,-0.028l0.088,-0.027l0.088,-0.027l0.089,-0.026l0.089,-0.026l0.089,-0.025l0.09,-0.024l0.091,-0.024l0.091,-0.023l0.091,-0.023l0.091,-0.023l0.092,-0.021l0.093,-0.022l0.092,-0.02l0.094,-0.02l0.093,-0.02l0.094,-0.019l0.094,-0.018l0.094,-0.018l0.095,-0.018l0.095,-0.016l0.096,-0.017l0.096,-0.015l0.096,-0.016l0.096,-0.014l0.097,-0.014l0.097,-0.013l0.097,-0.013l0.097,-0.013l0.098,-0.011l0.098,-0.011l0.098,-0.011l0.099,-0.01l0.099,-0.009l0.099,-0.009l0.099,-0.008l0.099,-0.008l0.1,-0.007l0.1,-0.006l0.1,-0.006l0.1,-0.006l0.101,-0.004l0.1,-0.004l0.101,-0.004l0.101,-0.003l0.101,-0.002l0.101,-0.002l0.102,-0.001l0.101,0l0.102,0Zm-0.195,1l-0.096,0.001l-0.095,0.002l-0.095,0.002l-0.095,0.003l-0.095,0.003l-0.095,0.004l-0.094,0.004l-0.094,0.005l-0.095,0.006l-0.093,0.006l-0.094,0.006l-0.093,0.007l-0.094,0.008l-0.093,0.008l-0.092,0.009l-0.093,0.01l-0.092,0.01l-0.092,0.01l-0.092,0.011l-0.091,0.011l-0.091,0.013l-0.091,0.012l-0.091,0.013l-0.09,0.014l-0.09,0.014l-0.09,0.015l-0.089,0.015l-0.089,0.015l-0.088,0.017l-0.089,0.016l-0.088,0.018l-0.087,0.017l-0.087,0.019l-0.087,0.019l-0.086,0.019l-0.086,0.02l-0.086,0.02l-0.085,0.021l-0.085,0.021l-0.085,0.022l-0.083,0.022l-0.084,0.022l-0.083,0.024l-0.083,0.023l-0.081,0.024l-0.082,0.025l-0.081,0.025l-0.081,0.026l-0.08,0.026l-0.08,0.026l-0.166,0.057l-0.164,0.056l-0.161,0.058l-0.16,0.057l-0.159,0.058l-0.156,0.059l-0.154,0.059l-0.153,0.06l-0.15,0.06l-0.149,0.06l-0.147,0.061l-0.145,0.061l-0.143,0.062l-0.142,0.062l-0.14,0.063l-0.137,0.063l-0.136,0.064l-0.135,0.064l-0.132,0.064l-0.131,0.065l-0.129,0.065l-0.127,0.066l-0.126,0.066l-0.124,0.066l-0.121,0.067l-0.121,0.067l-0.118,0.068l-0.117,0.068l-0.116,0.068l-0.113,0.069l-0.112,0.069l-0.111,0.07l-0.108,0.069l-0.107,0.071l-0.106,0.07l-0.103,0.072l-0.103,0.071l-0.1,0.071l-0.099,0.073l-0.098,0.072l-0.095,0.073l-0.095,0.073l-0.093,0.074l-0.091,0.074l-0.09,0.074l-0.088,0.075l-0.087,0.074l-0.085,0.076l-0.084,0.075l-0.082,0.076l-0.082,0.077l-0.079,0.076l-0.078,0.077l-0.077,0.078l-0.075,0.077l-0.074,0.079l-0.073,0.078l-0.071,0.078l-0.07,0.08l-0.069,0.079l-0.067,0.08l-0.066,0.08l-0.065,0.081l-0.064,0.08l-0.062,0.081l-0.061,0.082l-0.06,0.082l-0.058,0.082l-0.058,0.083l-0.056,0.083l-0.055,0.083l-0.054,0.084l-0.052,0.084l-0.052,0.085l-0.05,0.085l-0.049,0.085l-0.048,0.086l-0.047,0.086l-0.046,0.087l-0.045,0.087l-0.044,0.087l-0.042,0.088l-0.042,0.089l-0.04,0.088l-0.04,0.089l-0.038,0.09l-0.038,0.09l-0.036,0.09l-0.035,0.092l-0.035,0.091l-0.033,0.092l-0.032,0.093l-0.032,0.093l-0.03,0.093l-0.03,0.094l-0.028,0.094l-0.028,0.095l-0.026,0.096l-0.026,0.095l-0.024,0.097l-0.024,0.097l-0.023,0.097l-0.022,0.098l-0.021,0.099l-0.02,0.099l-0.019,0.099l-0.018,0.1l-0.018,0.101l-0.016,0.101l-0.016,0.101l-0.014,0.102l-0.014,0.103l-0.013,0.103l-0.012,0.104l-0.011,0.104l-0.011,0.105l-0.009,0.105l-0.009,0.106l-0.008,0.106l-0.007,0.107l-0.006,0.108l-0.005,0.107l-0.004,0.109l-0.004,0.109l-0.003,0.109l-0.002,0.11l-0.001,0.111l0,0.11l0,0.045l0.001,0.046l0.001,0.05l0.002,0.051l0.003,0.053l0.003,0.056l0.004,0.058l0.004,0.058l0.005,0.061l0.006,0.063l0.006,0.064l0.007,0.067l0.007,0.067l0.008,0.069l0.009,0.071l0.009,0.072l0.009,0.073l0.01,0.074l0.022,0.153l0.024,0.158l0.026,0.162l0.027,0.166l0.029,0.169l0.031,0.172l0.033,0.176l0.033,0.178l0.036,0.181l0.036,0.183l0.038,0.185l0.039,0.187l0.039,0.187l0.041,0.189l0.042,0.19l0.042,0.19l0.043,0.19l0.043,0.19l0.044,0.19l0.045,0.189l0.044,0.189l0.045,0.187l0.045,0.186l0.045,0.184l0.045,0.182l0.089,0.358l0.088,0.348l0.086,0.334l0.083,0.319l0.079,0.302l0.075,0.283l0.07,0.262l0.065,0.239l0.058,0.214l0.052,0.186l0.043,0.156l0.061,0.217l0.05,0.177l0.008,0.13l0.002,0.035l0.002,0.045l0.001,0.052l0.001,0.062l-0.001,0.069l-0.001,0.076l-0.003,0.084l-0.005,0.089l-0.004,0.05l-0.004,0.049l-0.004,0.052l-0.006,0.052l-0.006,0.056l-0.006,0.055l-0.007,0.057l-0.009,0.06l-0.009,0.059l-0.01,0.062l-0.01,0.062l-0.012,0.065l-0.013,0.065l-0.014,0.066l-0.015,0.068l-0.016,0.069l-0.017,0.07l-0.018,0.071l-0.02,0.072l-0.021,0.073l-0.022,0.073l-0.023,0.075l-0.025,0.076l-0.027,0.076l-0.028,0.077l-0.029,0.078l-0.031,0.078l-0.033,0.079l-0.034,0.08l-0.036,0.08l-0.038,0.08l-0.039,0.082l-0.041,0.08l-0.044,0.082l-0.045,0.082l-0.046,0.082l-0.05,0.082l-0.051,0.083l-0.052,0.082l-0.055,0.082l-0.056,0.08l-0.03,0.043l-0.03,0.042l-0.031,0.041l-0.03,0.04l-0.032,0.041l-0.032,0.041l-0.119,0.15l-0.121,0.15l-0.121,0.15l-0.124,0.151l-0.123,0.151l-0.125,0.151l-0.126,0.15l-0.126,0.15l-0.126,0.15l-0.127,0.149l-0.127,0.149l-0.127,0.147l-0.127,0.146l-0.021,0.024l4.609,-1.015l0.321,0.117l0.14,0.05l0.103,0.036l0.123,0.043l0.142,0.049l0.16,0.055l0.176,0.059l0.193,0.064l0.207,0.068l0.22,0.071l0.233,0.074l0.244,0.076l0.125,0.038l0.128,0.039l0.13,0.039l0.132,0.04l0.134,0.039l0.136,0.04l0.137,0.039l0.139,0.04l0.141,0.039l0.141,0.039l0.142,0.038l0.143,0.039l0.144,0.038l0.144,0.037l0.145,0.037l0.145,0.036l0.145,0.035l0.145,0.034l0.145,0.034l0.145,0.033l0.144,0.031l0.143,0.031l0.142,0.029l0.142,0.028l0.139,0.027l0.139,0.026l0.137,0.024l0.136,0.022l0.134,0.022l0.131,0.019l0.13,0.018l0.063,0.008l0.063,0.008l0.062,0.007l0.061,0.007l0.061,0.006l0.061,0.006l0.059,0.006l0.058,0.005l0.058,0.004l0.057,0.004l0.078,0.005l0.083,0.005l0.085,0.004l0.088,0.004l0.091,0.004l0.094,0.003l0.097,0.003l0.1,0.002l0.102,0.001l0.106,0.001l0.107,0.001l0.111,-0.001l0.112,-0.001l0.115,-0.001l0.118,-0.003l0.12,-0.003l0.121,-0.004l0.124,-0.005l0.127,-0.006l0.128,-0.007l0.13,-0.008l0.132,-0.008l0.134,-0.01l0.136,-0.011l0.137,-0.012l0.14,-0.013l0.141,-0.014l0.142,-0.016l0.143,-0.016l0.146,-0.018l0.146,-0.019l0.148,-0.02l0.149,-0.022l0.151,-0.023l0.151,-0.025l0.153,-0.026l0.153,-0.027l0.155,-0.029l0.155,-0.031l0.156,-0.032l0.158,-0.034l0.078,-0.017l0.079,-0.017l0.079,-0.019l0.079,-0.018l0.08,-0.019l0.079,-0.02l0.08,-0.02l0.08,-0.02l0.08,-0.021l0.08,-0.021l0.08,-0.022l0.08,-0.022l0.08,-0.022l0.081,-0.023l0.08,-0.024l0.081,-0.023l0.081,-0.025l0.08,-0.025l0.081,-0.025l0.081,-0.026l0.08,-0.026l0.081,-0.027l0.081,-0.027l0.081,-0.027l0.081,-0.029l0.081,-0.028l0.081,-0.03l0.08,-0.029l0.081,-0.03l0.081,-0.031l0.081,-0.031l0.08,-0.032l0.081,-0.032l0.081,-0.033l0.08,-0.033l0.081,-0.034l0.08,-0.034l0.08,-0.035l0.081,-0.036l0.08,-0.036l0.08,-0.036l0.08,-0.037l0.079,-0.038l0.08,-0.038l0.079,-0.039l0.08,-0.039l0.079,-0.04l0.079,-0.04l0.079,-0.041l0.079,-0.042l0.078,-0.042l0.079,-0.043l0.078,-0.043l0.078,-0.044l0.078,-0.045l0.078,-0.044l0.077,-0.046l0.077,-0.047l0.077,-0.047l0.077,-0.047l0.076,-0.048l0.077,-0.049l0.076,-0.049l0.076,-0.05l0.075,-0.051l0.075,-0.051l0.075,-0.052l0.075,-0.053l0.074,-0.053l0.075,-0.054l0.073,-0.054l0.074,-0.056l0.073,-0.056l0.073,-0.056l0.073,-0.057l0.072,-0.058l0.072,-0.059l0.072,-0.059l0.071,-0.06l0.071,-0.06l0.07,-0.062l0.07,-0.062l0.07,-0.062l0.07,-0.064l0.069,-0.064l0.069,-0.065l0.068,-0.065l0.068,-0.067l0.068,-0.067l0.067,-0.068l0.067,-0.068l0.066,-0.069l0.066,-0.07l0.066,-0.071l0.065,-0.071l0.064,-0.073l0.065,-0.073l0.063,-0.073l0.064,-0.075l0.062,-0.075l0.063,-0.077l0.062,-0.077l0.061,-0.077l0.061,-0.079l0.061,-0.079l0.06,-0.081l0.059,-0.081l0.059,-0.082l0.059,-0.082l0.058,-0.084l0.058,-0.084l0.057,-0.086l0.056,-0.086l0.056,-0.087l0.055,-0.087l0.055,-0.089l0.054,-0.089l0.054,-0.091l0.053,-0.092l0.053,-0.092l0.052,-0.093l0.051,-0.094l0.051,-0.095l0.05,-0.096l0.05,-0.097l0.049,-0.098l0.048,-0.099l0.048,-0.1l0.048,-0.101l0.046,-0.101l0.046,-0.102l0.045,-0.104l0.045,-0.105l0.044,-0.106l0.043,-0.106l0.042,-0.108l0.042,-0.108l0.041,-0.11l0.041,-0.111l0.04,-0.111l0.039,-0.113l0.038,-0.113l0.038,-0.115l0.037,-0.116l0.036,-0.117l0.035,-0.118l0.035,-0.119l0.034,-0.12l0.033,-0.121l0.032,-0.122l0.032,-0.124l0.031,-0.124l0.03,-0.126l0.029,-0.127l0.028,-0.127l0.028,-0.129l0.026,-0.13l0.026,-0.131l0.025,-0.133l0.024,-0.133l0.023,-0.135l0.023,-0.136l0.021,-0.137l0.021,-0.138l0.019,-0.139l0.019,-0.14l0.018,-0.142l0.017,-0.143l0.016,-0.143l0.015,-0.146l0.014,-0.146l0.013,-0.147l0.013,-0.149l0.011,-0.15l0.01,-0.15l0.009,-0.149l0.008,-0.148l0.006,-0.147l0.006,-0.146l0.004,-0.144l0.003,-0.144l0.002,-0.143l0.001,-0.142l0,-0.141l-0.001,-0.14l-0.003,-0.139l-0.003,-0.138l-0.005,-0.137l-0.005,-0.136l-0.007,-0.136l-0.008,-0.134l-0.009,-0.133l-0.009,-0.132l-0.011,-0.132l-0.012,-0.131l-0.013,-0.129l-0.014,-0.128l-0.015,-0.128l-0.016,-0.127l-0.017,-0.125l-0.018,-0.125l-0.018,-0.124l-0.02,-0.123l-0.021,-0.123l-0.022,-0.12l-0.022,-0.12l-0.024,-0.12l-0.024,-0.118l-0.026,-0.118l-0.026,-0.117l-0.027,-0.115l-0.029,-0.115l-0.029,-0.114l-0.03,-0.113l-0.03,-0.113l-0.032,-0.111l-0.033,-0.11l-0.033,-0.11l-0.034,-0.109l-0.035,-0.108l-0.036,-0.107l-0.037,-0.106l-0.038,-0.105l-0.038,-0.105l-0.039,-0.103l-0.04,-0.103l-0.041,-0.102l-0.042,-0.101l-0.042,-0.1l-0.043,-0.1l-0.044,-0.099l-0.045,-0.097l-0.045,-0.097l-0.046,-0.097l-0.048,-0.095l-0.047,-0.095l-0.049,-0.093l-0.049,-0.093l-0.05,-0.093l-0.05,-0.091l-0.052,-0.091l-0.052,-0.09l-0.052,-0.089l-0.054,-0.088l-0.054,-0.088l-0.055,-0.087l-0.055,-0.086l-0.056,-0.085l-0.057,-0.085l-0.058,-0.084l-0.058,-0.083l-0.058,-0.081l-0.06,-0.082l-0.06,-0.081l-0.061,-0.08l-0.061,-0.08l-0.062,-0.078l-0.063,-0.078l-0.063,-0.077l-0.064,-0.077l-0.064,-0.075l-0.065,-0.075l-0.066,-0.074l-0.066,-0.074l-0.067,-0.073l-0.068,-0.072l-0.068,-0.071l-0.069,-0.071l-0.069,-0.07l-0.069,-0.07l-0.071,-0.068l-0.07,-0.068l-0.072,-0.067l-0.072,-0.067l-0.072,-0.066l-0.073,-0.065l-0.074,-0.064l-0.074,-0.064l-0.075,-0.063l-0.075,-0.063l-0.075,-0.062l-0.076,-0.06l-0.077,-0.061l-0.077,-0.059l-0.078,-0.059l-0.078,-0.059l-0.078,-0.057l-0.08,-0.058l-0.079,-0.056l-0.08,-0.055l-0.08,-0.056l-0.081,-0.054l-0.081,-0.054l-0.082,-0.052l-0.082,-0.053l-0.083,-0.052l-0.083,-0.05l-0.083,-0.051l-0.084,-0.05l-0.084,-0.049l-0.085,-0.048l-0.085,-0.048l-0.086,-0.047l-0.085,-0.046l-0.087,-0.046l-0.086,-0.045l-0.087,-0.044l-0.087,-0.044l-0.088,-0.043l-0.088,-0.043l-0.088,-0.042l-0.089,-0.041l-0.089,-0.04l-0.089,-0.04l-0.09,-0.04l-0.09,-0.038l-0.09,-0.038l-0.09,-0.038l-0.091,-0.036l-0.092,-0.036l-0.091,-0.036l-0.091,-0.034l-0.092,-0.035l-0.092,-0.033l-0.093,-0.033l-0.092,-0.032l-0.093,-0.032l-0.093,-0.031l-0.094,-0.03l-0.093,-0.03l-0.094,-0.029l-0.094,-0.028l-0.094,-0.028l-0.094,-0.027l-0.095,-0.027l-0.095,-0.026l-0.094,-0.025l-0.095,-0.025l-0.096,-0.024l-0.095,-0.023l-0.095,-0.023l-0.096,-0.022l-0.096,-0.022l-0.096,-0.02l-0.096,-0.021l-0.096,-0.019l-0.096,-0.02l-0.096,-0.018l-0.097,-0.018l-0.096,-0.017l-0.097,-0.017l-0.096,-0.016l-0.097,-0.015l-0.097,-0.015l-0.096,-0.014l-0.097,-0.014l-0.097,-0.013l-0.097,-0.012l-0.097,-0.012l-0.096,-0.011l-0.097,-0.011l-0.097,-0.01l-0.097,-0.009l-0.097,-0.009l-0.097,-0.009l-0.097,-0.007l-0.096,-0.007l-0.097,-0.007l-0.096,-0.006l-0.097,-0.005l-0.097,-0.005l-0.096,-0.004l-0.097,-0.003l-0.096,-0.003l-0.096,-0.003l-0.096,-0.001l-0.096,-0.002l-0.096,0l-0.096,0l-0.095,0Z" style="fill:#323232;"/></g></svg>