<svg xmlns="http://www.w3.org/2000/svg" xmlns:xlink="http://www.w3.org/1999/xlink" width="750" height="422" viewBox="0 0 750 422">
  <defs>
    <linearGradient id="illustration-a" x1="20.38%" x2="70.977%" y1="0%" y2="100%">
      <stop offset="0%" stop-color="#F9FF43"/>
      <stop offset="100%" stop-color="#94DF34"/>
    </linearGradient>
    <rect id="illustration-b" width="750" height="422"/>
    <path id="illustration-d" d="M93.1210125,154.069868 L33.9219834,128.604889 L33.9219834,126.819521 L93.1210125,101.354542 L93.1210125,68.9360264 L0,114.979716 L0,140.444695 L93.1210125,186.488384 L93.1210125,154.069868 Z M254.085992,183.105583 L254.085992,47.5116158 L219.694175,47.5116158 L219.694175,100.696775 L165.663315,100.696775 L165.663315,47.5116158 L131.177531,47.5116158 L131.177531,183.105583 L165.663315,183.105583 L165.663315,128.416956 L219.694175,128.416956 L219.694175,183.105583 L254.085992,183.105583 Z M352.093273,183.105583 L352.093273,75.2317961 L391.277393,75.2317961 L391.277393,47.5116158 L278.611304,47.5116158 L278.611304,75.2317961 L317.701456,75.2317961 L317.701456,183.105583 L352.093273,183.105583 Z M447.65742,183.105583 L447.65742,97.5019071 L449.348821,97.5019071 L479.606103,172.675277 L500.936546,172.675277 L531.099861,97.5019071 L532.791262,97.5019071 L532.791262,183.105583 L564.645978,183.105583 L564.645978,47.5116158 L523.958391,47.5116158 L491.164008,130.390257 L489.378641,130.390257 L456.490291,47.5116158 L415.802705,47.5116158 L415.802705,183.105583 L447.65742,183.105583 Z M688.682039,154.633669 L631.080444,154.633669 L631.080444,47.5116158 L596.59466,47.5116158 L596.59466,183.105583 L688.682039,183.105583 L688.682039,154.633669 Z M719.878988,154.069868 L719.878988,186.488384 L813,140.444695 L813,114.979716 L719.878988,68.9360264 L719.878988,101.354542 L779.078017,126.819521 L779.078017,128.604889 L719.878988,154.069868 Z"/>
    <filter id="illustration-c" width="101.5%" height="108.6%" x="-.4%" y="-2.2%" filterUnits="objectBoundingBox">
      <feOffset dx="4" dy="4" in="SourceAlpha" result="shadowOffsetOuter1"/>
      <feGaussianBlur in="shadowOffsetOuter1" result="shadowBlurOuter1" stdDeviation="1"/>
      <feColorMatrix in="shadowBlurOuter1" values="0 0 0 0 0   0 0 0 0 0.632185035   0 0 0 0 0.940688776  0 0 0 1 0"/>
    </filter>
    <path id="illustration-f" d="M81.8348624,296.284052 L15.7579092,284.847862 L16.4742859,282.702703 L97.7364572,234.128271 L108.647875,195.649018 L-21.3288815,279.193923 L-33,310.118084 L73.1881691,334.253084 L81.8348624,296.284052 Z M274.048176,279.880369 L279.609608,127.965633 L246.509737,136.568395 L239.452663,197.253629 L180.656609,212.299723 L192.548395,150.525273 L156.854547,159.715564 L123.254249,317.947198 L166.815271,306.984505 L175.378753,244.289351 L236.694666,228.675556 L233.102567,290.250703 L274.048176,279.880369 Z M385.40803,251.527186 L370.818227,134.952913 L406.023663,125.716145 L401.989245,95.8244867 L302.620763,121.964441 L301.400727,153.039879 L338.880292,143.293901 L347.228302,261.274392 L385.40803,251.527186 Z M486.402166,225.590689 L460.278794,136.359692 L461.755209,135.970725 L514.429395,206.622764 L535.015301,201.274386 L530.31648,117.801199 L531.677083,117.438323 L570.061654,203.906986 L599.835708,196.138016 L534.549703,60.1845552 L505.654242,68.0498276 L509.241481,160.422607 L507.645446,160.841653 L454.745924,81.7665106 L422.239431,90.4453153 L453.570114,234.048598 L486.402166,225.590689 Z M686.935029,140.747588 L641.109331,152.990529 L578.810189,48 L556.286849,54.2230969 L628.861244,188.534551 L707.836696,167.67448 L686.935029,140.747588 Z M710.180796,133.84484 L735.718764,164.112383 L763.423044,103.608525 L740.262664,80.5315795 L647.221916,53.4345874 L670.495159,84.2123517 L729.355131,97.2744605 L730.877028,98.915357 L710.180796,133.84484 Z"/>
    <filter id="illustration-e" width="101.5%" height="104.2%" x="-.4%" y="-1%" filterUnits="objectBoundingBox">
      <feOffset dx="4" dy="4" in="SourceAlpha" result="shadowOffsetOuter1"/>
      <feGaussianBlur in="shadowOffsetOuter1" result="shadowBlurOuter1" stdDeviation="1"/>
      <feColorMatrix in="shadowBlurOuter1" values="0 0 0 0 0   0 0 0 0 0.632185035   0 0 0 0 0.940688776  0 0 0 1 0"/>
    </filter>
    <path id="illustration-g" d="M368.126382,438.422962 C410.070167,438.422962 440.45107,412.009714 441.811409,374.600393 L401.908133,374.600393 C399.52754,392.171438 386.150874,403.734319 368.239744,403.734319 C345.340705,403.734319 331.397231,384.009404 331.397231,352.041439 C331.397231,320.186835 345.340705,300.688643 368.126382,300.688643 C386.037512,300.688643 399.52754,312.704971 401.68141,330.502739 L441.698047,330.502739 C440.45107,293.433502 409.276636,266 368.126382,266 C319.040819,266 289,298.761496 289,352.1548 C289,405.548104 319.15418,438.422962 368.126382,438.422962 Z M464.710448,387.410252 C465.390618,418.924771 491.463781,438.422962 532.840757,438.422962 C575.691434,438.422962 601.764598,417.791155 601.764598,383.669319 C601.764598,357.709518 587.254315,343.085874 554.946265,336.850987 L533.861011,332.76997 C516.630051,329.369123 509.37491,324.15449 509.37491,315.198925 C509.37491,304.316214 519.010645,297.401157 533.634288,297.401157 C548.257932,297.401157 559.254005,305.44983 560.160898,317.012711 L598.590473,317.012711 C597.910304,286.745169 571.383694,266 533.06748,266 C493.617651,266 467.997934,286.971892 467.997934,318.939858 C467.997934,344.672936 483.415109,360.997004 513.342566,366.665082 L534.881266,370.972823 C553.585926,374.713755 560.727706,379.588303 560.727706,388.657229 C560.727706,399.426579 550.071717,406.908443 534.541181,406.908443 C517.310221,406.908443 505.407255,399.313217 504.387001,387.410252 L464.710448,387.410252 Z M626.023976,387.410252 C626.704145,418.924771 652.777308,438.422962 694.154285,438.422962 C737.004962,438.422962 763.078125,417.791155 763.078125,383.669319 C763.078125,357.709518 748.567843,343.085874 716.259793,336.850987 L695.174539,332.76997 C677.943579,329.369123 670.688438,324.15449 670.688438,315.198925 C670.688438,304.316214 680.324172,297.401157 694.947816,297.401157 C709.57146,297.401157 720.567533,305.44983 721.474425,317.012711 L759.904001,317.012711 C759.223831,286.745169 732.697222,266 694.381008,266 C654.931178,266 629.311461,286.971892 629.311461,318.939858 C629.311461,344.672936 644.728636,360.997004 674.656093,366.665082 L696.194793,370.972823 C714.899454,374.713755 722.041233,379.588303 722.041233,388.657229 C722.041233,399.426579 711.385245,406.908443 695.854708,406.908443 C678.623748,406.908443 666.720783,399.313217 665.700528,387.410252 L626.023976,387.410252 Z"/>
    <filter id="illustration-h" width="101.3%" height="103.5%" x="-.6%" y="-1.7%" filterUnits="objectBoundingBox">
      <feGaussianBlur in="SourceAlpha" result="shadowBlurInner1" stdDeviation="1"/>
      <feOffset dx="4" dy="4" in="shadowBlurInner1" result="shadowOffsetInner1"/>
      <feComposite in="shadowOffsetInner1" in2="SourceAlpha" k2="-1" k3="1" operator="arithmetic" result="shadowInnerInner1"/>
      <feColorMatrix in="shadowInnerInner1" values="0 0 0 0 0.0341961306   0 0 0 0 0.427552058   0 0 0 0 0.852598852  0 0 0 1 0"/>
    </filter>
    <path id="illustration-i" d="M350.139295,438.062847 C396.860698,438.062847 430.702146,408.640991 432.217435,366.970551 L387.768965,366.970551 C385.11721,386.54303 370.216871,399.422985 350.265569,399.422985 C324.758209,399.422985 309.226499,377.451298 309.226499,341.842013 C309.226499,306.359001 324.758209,284.639863 350.139295,284.639863 C370.090597,284.639863 385.11721,298.024913 387.516417,317.849941 L432.091161,317.849941 C430.702146,276.558323 395.976779,246 350.139295,246 C295.462626,246 262,282.493204 262,341.968287 C262,401.44337 295.5889,438.062847 350.139295,438.062847 Z M457.724795,381.23952 C458.48244,416.343709 487.525474,438.062847 533.615506,438.062847 C581.347101,438.062847 610.390136,415.080968 610.390136,377.072476 C610.390136,348.155716 594.227056,331.866362 558.238948,324.921288 L534.751973,320.375422 C515.558315,316.5872 507.476775,310.778594 507.476775,300.802943 C507.476775,288.680633 518.210071,280.977915 534.499425,280.977915 C550.788779,280.977915 563.037363,289.943373 564.047555,302.823328 L606.854462,302.823328 C606.096817,269.108153 576.548687,246 533.868054,246 C489.924681,246 461.386743,269.360701 461.386743,304.969987 C461.386743,333.634199 478.560015,351.817663 511.896368,358.131367 L535.888439,362.929781 C556.723659,367.096825 564.678925,372.52661 564.678925,382.628534 C564.678925,394.62457 552.809164,402.958658 535.509617,402.958658 C516.31596,402.958658 503.057183,394.498296 501.920717,381.23952 L457.724795,381.23952 Z M637.412785,381.23952 C638.170429,416.343709 667.213463,438.062847 713.303496,438.062847 C761.035091,438.062847 790.078125,415.080968 790.078125,377.072476 C790.078125,348.155716 773.915045,331.866362 737.926938,324.921288 L714.439962,320.375422 C695.246305,316.5872 687.164765,310.778594 687.164765,300.802943 C687.164765,288.680633 697.89806,280.977915 714.187414,280.977915 C730.476768,280.977915 742.725352,289.943373 743.735544,302.823328 L786.542451,302.823328 C785.784807,269.108153 756.236677,246 713.556044,246 C669.61267,246 641.074732,269.360701 641.074732,304.969987 C641.074732,333.634199 658.248005,351.817663 691.584357,358.131367 L715.576429,362.929781 C736.411649,367.096825 744.366915,372.52661 744.366915,382.628534 C744.366915,394.62457 732.497153,402.958658 715.197607,402.958658 C696.003949,402.958658 682.745173,394.498296 681.608706,381.23952 L637.412785,381.23952 Z"/>
    <filter id="illustration-j" width="101.1%" height="103.1%" x="-.6%" y="-1.6%" filterUnits="objectBoundingBox">
      <feGaussianBlur in="SourceAlpha" result="shadowBlurInner1" stdDeviation="1"/>
      <feOffset dx="4" dy="4" in="shadowBlurInner1" result="shadowOffsetInner1"/>
      <feComposite in="shadowOffsetInner1" in2="SourceAlpha" k2="-1" k3="1" operator="arithmetic" result="shadowInnerInner1"/>
      <feColorMatrix in="shadowInnerInner1" values="0 0 0 0 0.0341961306   0 0 0 0 0.427552058   0 0 0 0 0.852598852  0 0 0 1 0"/>
    </filter>
  </defs>
  <g fill="none" fill-rule="evenodd">
    <use fill="url(#illustration-a)" xlink:href="#illustration-b"/>
    <rect width="749" height="421" x=".5" y=".5" stroke="#979797"/>
    <use fill="#000" filter="url(#illustration-c)" xlink:href="#illustration-d"/>
    <use fill="#3046CE" xlink:href="#illustration-d"/>
    <g opacity=".1">
      <use fill="#000" filter="url(#illustration-e)" xlink:href="#illustration-f"/>
      <use fill="#3046CE" xlink:href="#illustration-f"/>
    </g>
    <g>
      <use fill="#28BEFF" xlink:href="#illustration-g"/>
      <use fill="#000" filter="url(#illustration-h)" xlink:href="#illustration-g"/>
    </g>
    <g opacity=".8" style="mix-blend-mode:color-dodge">
      <use fill="#28BEFF" xlink:href="#illustration-i"/>
      <use fill="#000" filter="url(#illustration-j)" xlink:href="#illustration-i"/>
    </g>
  </g>
</svg>
