<?xml version="1.0" encoding="UTF-8"?>
<svg width="300px" height="300px" viewBox="0 0 300 300" version="1.1" xmlns="http://www.w3.org/2000/svg" xmlns:xlink="http://www.w3.org/1999/xlink">
    <!-- Generator: Sketch 41.2 (35397) - http://www.bohemiancoding.com/sketch -->
    <title>post-youtube</title>
    <desc>Created with Sketch.</desc>
    <defs>
        <polygon id="path-1" points="0.0146771037 175.865949 249.86546 175.865949 249.86546 0.141144814 0.0146771037 0.141144814"></polygon>
    </defs>
    <g id="Post-category-icons" stroke="none" stroke-width="1" fill="none" fill-rule="evenodd">
        <g id="post-youtube">
            <polyline id="Fill-1" fill="#FFFFFF" points="124.125489 182.420988 191.640166 147.440558 124.125489 112.215509 124.125489 182.420988"></polyline>
            <polyline id="Fill-2" fill="#DEDED9" points="183.333415 151.751957 183.327055 151.747798 191.640166 147.440558 183.333415 151.751957"></polyline>
            <g id="Group-6" transform="translate(25.000000, 62.000000)">
                <mask id="mask-2" fill="white">
                    <use xlink:href="#path-1"></use>
                </mask>
                <g id="Clip-4"></g>
                <polyline id="Fill-3" fill="#DEDED9" mask="url(#mask-2)" points="158.327055 89.7477984 99.1254892 50.2155088 166.640166 85.4405577 158.327055 89.7477984"></polyline>
                <path d="M99.1369863,120.420988 L99.1254892,50.2155088 L166.640166,85.4405577 L99.1369863,120.420988 Z M247.370352,38.0533268 C247.370352,38.0533268 244.929061,20.8348826 237.436888,13.2524462 C227.935421,3.30063601 217.285225,3.25122309 212.401174,2.66878669 C177.436155,0.141144814 124.986791,0.141144814 124.986791,0.141144814 L124.87818,0.141144814 C124.87818,0.141144814 72.4300391,0.141144814 37.4637965,2.66878669 C32.579501,3.25122309 21.9332192,3.30063601 12.4283268,13.2524462 C4.93664384,20.8348826 2.49877691,38.0533268 2.49877691,38.0533268 C2.49877691,38.0533268 0,58.2734834 0,78.4933953 L0,97.4496086 C0,117.669276 2.49877691,137.889188 2.49877691,137.889188 C2.49877691,137.889188 4.93664384,155.107877 12.4283268,162.690313 C21.9332192,172.642368 34.4185421,172.327544 39.9794521,173.370597 C59.9689335,175.287427 124.93273,175.880626 124.93273,175.880626 C124.93273,175.880626 177.436155,175.801614 212.401174,173.274217 C217.285225,172.691536 227.935421,172.642368 237.436888,162.690313 C244.929061,155.107877 247.370352,137.889188 247.370352,137.889188 C247.370352,137.889188 249.86546,117.669276 249.86546,97.4496086 L249.86546,78.4933953 C249.86546,58.2734834 247.370352,38.0533268 247.370352,38.0533268 L247.370352,38.0533268 Z" id="Fill-5" fill="#222321" mask="url(#mask-2)"></path>
            </g>
        </g>
    </g>
</svg>